<svg width="1491" height="82" viewBox="0 0 1491 82" fill="none" xmlns="http://www.w3.org/2000/svg">
<mask id="path-1-outside-1_349_7437" maskUnits="userSpaceOnUse" x="60" y="11" width="669" height="55" fill="black">
<rect fill="white" x="60" y="11" width="669" height="55"/>
<path d="M80.84 13.6C87.752 13.6 93.488 16.024 98.048 20.872C102.656 25.72 104.96 31.696 104.96 38.8C104.96 45.856 102.656 51.832 98.048 56.728C93.488 61.576 87.752 64 80.84 64H61.04V13.6H80.84ZM80.84 56.08C85.592 56.08 89.456 54.448 92.432 51.184C95.456 47.92 96.968 43.792 96.968 38.8C96.968 33.76 95.456 29.632 92.432 26.416C89.456 23.152 85.592 21.52 80.84 21.52H69.32V56.08H80.84ZM112.509 13.6H120.789V64H112.509V13.6ZM179.892 37.936V41.392C179.892 48.304 177.612 53.968 173.052 58.384C168.492 62.752 162.54 64.936 155.196 64.936C147.42 64.936 140.988 62.416 135.9 57.376C130.86 52.336 128.34 46.144 128.34 38.8C128.34 31.504 130.86 25.336 135.9 20.296C140.988 15.208 147.276 12.664 154.764 12.664C159.468 12.664 163.764 13.744 167.652 15.904C171.54 18.064 174.564 20.968 176.724 24.616L169.596 28.72C168.252 26.32 166.26 24.4 163.62 22.96C160.98 21.472 158.028 20.728 154.764 20.728C149.484 20.728 145.14 22.456 141.732 25.912C138.324 29.368 136.62 33.688 136.62 38.872C136.62 44.056 138.324 48.352 141.732 51.76C145.188 55.168 149.7 56.872 155.268 56.872C159.732 56.872 163.356 55.84 166.14 53.776C168.972 51.664 170.772 48.856 171.54 45.352H154.692V37.936H179.892ZM187.462 13.6H195.742V64H187.462V13.6ZM238.573 13.6V21.52H224.389V64H216.109V21.52H201.853V13.6H238.573ZM273.942 64L270.414 53.848H248.958L245.43 64H236.43L254.718 13.6H264.654L282.87 64H273.942ZM251.694 46.072H267.678L259.686 23.32L251.694 46.072ZM296.57 56.08H317.09V64H288.29V13.6H296.57V56.08Z"/>
<path d="M389.475 13.6V64H381.195V28.072L365.859 53.416H364.851L349.515 28V64H341.235V13.6H350.163L365.355 38.8L380.619 13.6H389.475ZM432.356 64L428.828 53.848H407.372L403.844 64H394.844L413.132 13.6H423.068L441.284 64H432.356ZM410.108 46.072H426.092L418.1 23.32L410.108 46.072ZM475.432 64L464.776 45.64H454.984V64H446.704V13.6H466.864C471.376 13.6 475.192 15.184 478.312 18.352C481.48 21.472 483.064 25.288 483.064 29.8C483.064 33.016 482.128 35.968 480.256 38.656C478.432 41.296 476.032 43.216 473.056 44.416L484.504 64H475.432ZM454.984 21.376V38.224H466.864C469.072 38.224 470.944 37.408 472.48 35.776C474.016 34.144 474.784 32.152 474.784 29.8C474.784 27.448 474.016 25.456 472.48 23.824C470.944 22.192 469.072 21.376 466.864 21.376H454.984ZM528.876 64H519.012L499.14 40.024V64H490.86V13.6H499.14V36.208L518.292 13.6H528.156L507.78 38.152L528.876 64ZM542.523 56.08H564.843V64H534.243V13.6H564.483V21.52H542.523V34.624H562.683V42.472H542.523V56.08ZM605.183 13.6V21.52H590.999V64H582.719V21.52H568.463V13.6H605.183ZM611.306 13.6H619.586V64H611.306V13.6ZM659.897 13.6H668.177V64H661.697L637.937 29.8V64H629.657V13.6H636.137L659.897 47.8V13.6ZM727.275 37.936V41.392C727.275 48.304 724.995 53.968 720.435 58.384C715.875 62.752 709.923 64.936 702.579 64.936C694.803 64.936 688.371 62.416 683.283 57.376C678.243 52.336 675.723 46.144 675.723 38.8C675.723 31.504 678.243 25.336 683.283 20.296C688.371 15.208 694.659 12.664 702.147 12.664C706.851 12.664 711.147 13.744 715.035 15.904C718.923 18.064 721.947 20.968 724.107 24.616L716.979 28.72C715.635 26.32 713.643 24.4 711.003 22.96C708.363 21.472 705.411 20.728 702.147 20.728C696.867 20.728 692.523 22.456 689.115 25.912C685.707 29.368 684.003 33.688 684.003 38.872C684.003 44.056 685.707 48.352 689.115 51.76C692.571 55.168 697.083 56.872 702.651 56.872C707.115 56.872 710.739 55.84 713.523 53.776C716.355 51.664 718.155 48.856 718.923 45.352H702.075V37.936H727.275Z"/>
</mask>
<path d="M389.475 13.6V64H381.195V28.072L365.859 53.416H364.851L349.515 28V64H341.235V13.6H350.163L365.355 38.8L380.619 13.6H389.475ZM432.356 64L428.828 53.848H407.372L403.844 64H394.844L413.132 13.6H423.068L441.284 64H432.356ZM410.108 46.072H426.092L418.1 23.32L410.108 46.072ZM475.432 64L464.776 45.64H454.984V64H446.704V13.6H466.864C471.376 13.6 475.192 15.184 478.312 18.352C481.48 21.472 483.064 25.288 483.064 29.8C483.064 33.016 482.128 35.968 480.256 38.656C478.432 41.296 476.032 43.216 473.056 44.416L484.504 64H475.432ZM454.984 21.376V38.224H466.864C469.072 38.224 470.944 37.408 472.48 35.776C474.016 34.144 474.784 32.152 474.784 29.8C474.784 27.448 474.016 25.456 472.48 23.824C470.944 22.192 469.072 21.376 466.864 21.376H454.984ZM528.876 64H519.012L499.14 40.024V64H490.86V13.6H499.14V36.208L518.292 13.6H528.156L507.78 38.152L528.876 64ZM542.523 56.08H564.843V64H534.243V13.6H564.483V21.52H542.523V34.624H562.683V42.472H542.523V56.08ZM605.183 13.6V21.52H590.999V64H582.719V21.52H568.463V13.6H605.183ZM611.306 13.6H619.586V64H611.306V13.6ZM659.897 13.6H668.177V64H661.697L637.937 29.8V64H629.657V13.6H636.137L659.897 47.8V13.6ZM727.275 37.936V41.392C727.275 48.304 724.995 53.968 720.435 58.384C715.875 62.752 709.923 64.936 702.579 64.936C694.803 64.936 688.371 62.416 683.283 57.376C678.243 52.336 675.723 46.144 675.723 38.8C675.723 31.504 678.243 25.336 683.283 20.296C688.371 15.208 694.659 12.664 702.147 12.664C706.851 12.664 711.147 13.744 715.035 15.904C718.923 18.064 721.947 20.968 724.107 24.616L716.979 28.72C715.635 26.32 713.643 24.4 711.003 22.96C708.363 21.472 705.411 20.728 702.147 20.728C696.867 20.728 692.523 22.456 689.115 25.912C685.707 29.368 684.003 33.688 684.003 38.872C684.003 44.056 685.707 48.352 689.115 51.76C692.571 55.168 697.083 56.872 702.651 56.872C707.115 56.872 710.739 55.84 713.523 53.776C716.355 51.664 718.155 48.856 718.923 45.352H702.075V37.936H727.275Z" fill="black"/>
<path d="M98.048 20.872L97.3196 21.5571L97.3232 21.5609L98.048 20.872ZM98.048 56.728L97.3198 56.0426L97.3196 56.0429L98.048 56.728ZM61.04 64H60.04V65H61.04V64ZM61.04 13.6V12.6H60.04V13.6H61.04ZM92.432 51.184L91.6984 50.5044L91.693 50.5102L92.432 51.184ZM92.432 26.416L91.693 27.0898L91.6982 27.0954L91.7035 27.101L92.432 26.416ZM69.32 21.52V20.52H68.32V21.52H69.32ZM69.32 56.08H68.32V57.08H69.32V56.08ZM80.84 14.6C87.4881 14.6 92.9566 16.9186 97.3196 21.5571L98.7764 20.1869C94.0194 15.1294 88.0159 12.6 80.84 12.6V14.6ZM97.3232 21.5609C101.743 26.2107 103.96 31.9349 103.96 38.8H105.96C105.96 31.4571 103.569 25.2293 98.7728 20.1831L97.3232 21.5609ZM103.96 38.8C103.96 45.6152 101.744 51.342 97.3198 56.0426L98.7762 57.4134C103.568 52.322 105.96 46.0968 105.96 38.8H103.96ZM97.3196 56.0429C92.9566 60.6814 87.4881 63 80.84 63V65C88.0159 65 94.0194 62.4706 98.7764 57.4131L97.3196 56.0429ZM80.84 63H61.04V65H80.84V63ZM62.04 64V13.6H60.04V64H62.04ZM61.04 14.6H80.84V12.6H61.04V14.6ZM80.84 57.08C85.8493 57.08 89.9899 55.3466 93.171 51.8578L91.693 50.5102C88.9221 53.5494 85.3347 55.08 80.84 55.08V57.08ZM93.1656 51.8636C96.3821 48.3918 97.968 44.0108 97.968 38.8H95.968C95.968 43.5732 94.5299 47.4482 91.6984 50.5044L93.1656 51.8636ZM97.968 38.8C97.968 33.5443 96.3838 29.1589 93.1605 25.731L91.7035 27.101C94.5282 30.1051 95.968 33.9757 95.968 38.8H97.968ZM93.171 25.7422C89.9899 22.2534 85.8493 20.52 80.84 20.52V22.52C85.3347 22.52 88.9221 24.0506 91.693 27.0898L93.171 25.7422ZM80.84 20.52H69.32V22.52H80.84V20.52ZM68.32 21.52V56.08H70.32V21.52H68.32ZM69.32 57.08H80.84V55.08H69.32V57.08ZM112.509 13.6V12.6H111.509V13.6H112.509ZM120.789 13.6H121.789V12.6H120.789V13.6ZM120.789 64V65H121.789V64H120.789ZM112.509 64H111.509V65H112.509V64ZM112.509 14.6H120.789V12.6H112.509V14.6ZM119.789 13.6V64H121.789V13.6H119.789ZM120.789 63H112.509V65H120.789V63ZM113.509 64V13.6H111.509V64H113.509ZM179.892 37.936H180.892V36.936H179.892V37.936ZM173.052 58.384L173.744 59.1062L173.748 59.1024L173.052 58.384ZM135.9 57.376L135.193 58.0831L135.197 58.0864L135.9 57.376ZM135.9 20.296L135.193 19.5889L135.9 20.296ZM176.724 24.616L177.223 25.4826L178.101 24.9775L177.585 24.1065L176.724 24.616ZM169.596 28.72L168.724 29.2086L169.218 30.0916L170.095 29.5866L169.596 28.72ZM163.62 22.96L163.129 23.8312L163.141 23.8379L163.62 22.96ZM141.732 25.912L141.02 25.2099L141.732 25.912ZM141.732 51.76L141.025 52.4671L141.03 52.472L141.732 51.76ZM166.14 53.776L166.736 54.5793L166.738 54.5776L166.14 53.776ZM171.54 45.352L172.517 45.5661L172.783 44.352H171.54V45.352ZM154.692 45.352H153.692V46.352H154.692V45.352ZM154.692 37.936V36.936H153.692V37.936H154.692ZM178.892 37.936V41.392H180.892V37.936H178.892ZM178.892 41.392C178.892 48.0599 176.704 53.4558 172.357 57.6656L173.748 59.1024C178.521 54.4802 180.892 48.5481 180.892 41.392H178.892ZM172.361 57.6619C168.017 61.8226 162.328 63.936 155.196 63.936V65.936C162.753 65.936 168.968 63.6814 173.744 59.1061L172.361 57.6619ZM155.196 63.936C147.659 63.936 141.488 61.5032 136.604 56.6656L135.197 58.0864C140.489 63.3288 147.182 65.936 155.196 65.936V63.936ZM136.607 56.6689C131.761 51.8227 129.34 45.8878 129.34 38.8H127.34C127.34 46.4002 129.959 52.8493 135.193 58.0831L136.607 56.6689ZM129.34 38.8C129.34 31.7622 131.76 25.8507 136.607 21.0031L135.193 19.5889C129.961 24.8213 127.34 31.2458 127.34 38.8H129.34ZM136.607 21.0031C141.5 16.111 147.53 13.664 154.764 13.664V11.664C147.023 11.664 140.477 14.305 135.193 19.5889L136.607 21.0031ZM154.764 13.664C159.309 13.664 163.436 14.7055 167.167 16.7782L168.138 15.0298C164.093 12.7825 159.628 11.664 154.764 11.664V13.664ZM167.167 16.7782C170.908 18.8564 173.799 21.6378 175.864 25.1255L177.585 24.1065C175.33 20.2982 172.173 17.2716 168.138 15.0298L167.167 16.7782ZM176.225 23.7494L169.097 27.8534L170.095 29.5866L177.223 25.4826L176.225 23.7494ZM170.469 28.2314C169.024 25.652 166.888 23.6035 164.099 22.0821L163.141 23.8379C165.632 25.1965 167.48 26.988 168.724 29.2086L170.469 28.2314ZM164.111 22.0888C161.31 20.5099 158.187 19.728 154.764 19.728V21.728C157.87 21.728 160.651 22.4341 163.129 23.8311L164.111 22.0888ZM154.764 19.728C149.243 19.728 144.634 21.5456 141.02 25.2099L142.444 26.6141C145.647 23.3664 149.726 21.728 154.764 21.728V19.728ZM141.02 25.2099C137.414 28.8666 135.62 33.445 135.62 38.872H137.62C137.62 33.931 139.234 29.8694 142.444 26.6141L141.02 25.2099ZM135.62 38.872C135.62 44.299 137.415 48.8565 141.025 52.4671L142.439 51.0529C139.234 47.8475 137.62 43.813 137.62 38.872H135.62ZM141.03 52.472C144.701 56.092 149.479 57.872 155.268 57.872V55.872C149.921 55.872 145.675 54.244 142.434 51.048L141.03 52.472ZM155.268 57.872C159.885 57.872 163.736 56.8036 166.736 54.5793L165.545 52.9727C162.977 54.8764 159.58 55.872 155.268 55.872V57.872ZM166.738 54.5776C169.766 52.3194 171.698 49.3012 172.517 45.5661L170.564 45.1379C169.846 48.4108 168.178 51.0087 165.542 52.9744L166.738 54.5776ZM171.54 44.352H154.692V46.352H171.54V44.352ZM155.692 45.352V37.936H153.692V45.352H155.692ZM154.692 38.936H179.892V36.936H154.692V38.936ZM187.462 13.6V12.6H186.462V13.6H187.462ZM195.742 13.6H196.742V12.6H195.742V13.6ZM195.742 64V65H196.742V64H195.742ZM187.462 64H186.462V65H187.462V64ZM187.462 14.6H195.742V12.6H187.462V14.6ZM194.742 13.6V64H196.742V13.6H194.742ZM195.742 63H187.462V65H195.742V63ZM188.462 64V13.6H186.462V64H188.462ZM238.573 13.6H239.573V12.6H238.573V13.6ZM238.573 21.52V22.52H239.573V21.52H238.573ZM224.389 21.52V20.52H223.389V21.52H224.389ZM224.389 64V65H225.389V64H224.389ZM216.109 64H215.109V65H216.109V64ZM216.109 21.52H217.109V20.52H216.109V21.52ZM201.853 21.52H200.853V22.52H201.853V21.52ZM201.853 13.6V12.6H200.853V13.6H201.853ZM237.573 13.6V21.52H239.573V13.6H237.573ZM238.573 20.52H224.389V22.52H238.573V20.52ZM223.389 21.52V64H225.389V21.52H223.389ZM224.389 63H216.109V65H224.389V63ZM217.109 64V21.52H215.109V64H217.109ZM216.109 20.52H201.853V22.52H216.109V20.52ZM202.853 21.52V13.6H200.853V21.52H202.853ZM201.853 14.6H238.573V12.6H201.853V14.6ZM273.942 64L272.998 64.3283L273.231 65H273.942V64ZM270.414 53.848L271.359 53.5197L271.125 52.848H270.414V53.848ZM248.958 53.848V52.848H248.247L248.014 53.5197L248.958 53.848ZM245.43 64V65H246.141L246.375 64.3283L245.43 64ZM236.43 64L235.49 63.6589L235.004 65H236.43V64ZM254.718 13.6V12.6H254.017L253.778 13.2589L254.718 13.6ZM264.654 13.6L265.595 13.2601L265.356 12.6H264.654V13.6ZM282.87 64V65H284.295L283.811 63.6601L282.87 64ZM251.694 46.072L250.751 45.7406L250.283 47.072H251.694V46.072ZM267.678 46.072V47.072H269.089L268.622 45.7406L267.678 46.072ZM259.686 23.32L260.63 22.9886L259.686 20.3026L258.743 22.9886L259.686 23.32ZM274.887 63.6717L271.359 53.5197L269.47 54.1763L272.998 64.3283L274.887 63.6717ZM270.414 52.848H248.958V54.848H270.414V52.848ZM248.014 53.5197L244.486 63.6717L246.375 64.3283L249.903 54.1763L248.014 53.5197ZM245.43 63H236.43V65H245.43V63ZM237.37 64.3411L255.658 13.9411L253.778 13.2589L235.49 63.6589L237.37 64.3411ZM254.718 14.6H264.654V12.6H254.718V14.6ZM263.714 13.9399L281.93 64.3399L283.811 63.6601L265.595 13.2601L263.714 13.9399ZM282.87 63H273.942V65H282.87V63ZM251.694 47.072H267.678V45.072H251.694V47.072ZM268.622 45.7406L260.63 22.9886L258.743 23.6514L266.735 46.4034L268.622 45.7406ZM258.743 22.9886L250.751 45.7406L252.638 46.4034L260.63 23.6514L258.743 22.9886ZM296.57 56.08H295.57V57.08H296.57V56.08ZM317.09 56.08H318.09V55.08H317.09V56.08ZM317.09 64V65H318.09V64H317.09ZM288.29 64H287.29V65H288.29V64ZM288.29 13.6V12.6H287.29V13.6H288.29ZM296.57 13.6H297.57V12.6H296.57V13.6ZM296.57 57.08H317.09V55.08H296.57V57.08ZM316.09 56.08V64H318.09V56.08H316.09ZM317.09 63H288.29V65H317.09V63ZM289.29 64V13.6H287.29V64H289.29ZM288.29 14.6H296.57V12.6H288.29V14.6ZM295.57 13.6V56.08H297.57V13.6H295.57ZM389.475 13.6H390.475V12.6H389.475V13.6ZM389.475 64V65H390.475V64H389.475ZM381.195 64H380.195V65H381.195V64ZM381.195 28.072H382.195V24.4878L380.34 27.5543L381.195 28.072ZM365.859 53.416V54.416H366.423L366.715 53.9337L365.859 53.416ZM364.851 53.416L363.995 53.9326L364.287 54.416H364.851V53.416ZM349.515 28L350.372 27.4834L348.515 24.4071V28H349.515ZM349.515 64V65H350.515V64H349.515ZM341.235 64H340.235V65H341.235V64ZM341.235 13.6V12.6H340.235V13.6H341.235ZM350.163 13.6L351.02 13.0837L350.728 12.6H350.163V13.6ZM365.355 38.8L364.499 39.3163L365.353 40.7335L366.211 39.3181L365.355 38.8ZM380.619 13.6V12.6H380.056L379.764 13.0819L380.619 13.6ZM388.475 13.6V64H390.475V13.6H388.475ZM389.475 63H381.195V65H389.475V63ZM382.195 64V28.072H380.195V64H382.195ZM380.34 27.5543L365.004 52.8983L366.715 53.9337L382.051 28.5897L380.34 27.5543ZM365.859 52.416H364.851V54.416H365.859V52.416ZM365.708 52.8994L350.372 27.4834L348.659 28.5166L363.995 53.9326L365.708 52.8994ZM348.515 28V64H350.515V28H348.515ZM349.515 63H341.235V65H349.515V63ZM342.235 64V13.6H340.235V64H342.235ZM341.235 14.6H350.163V12.6H341.235V14.6ZM349.307 14.1163L364.499 39.3163L366.212 38.2837L351.02 13.0837L349.307 14.1163ZM366.211 39.3181L381.475 14.1181L379.764 13.0819L364.5 38.2819L366.211 39.3181ZM380.619 14.6H389.475V12.6H380.619V14.6ZM432.356 64L431.412 64.3283L431.645 65H432.356V64ZM428.828 53.848L429.773 53.5197L429.54 52.848H428.828V53.848ZM407.372 53.848V52.848H406.661L406.428 53.5197L407.372 53.848ZM403.844 64V65H404.556L404.789 64.3283L403.844 64ZM394.844 64L393.904 63.6589L393.418 65H394.844V64ZM413.132 13.6V12.6H412.431L412.192 13.2589L413.132 13.6ZM423.068 13.6L424.009 13.2601L423.77 12.6H423.068V13.6ZM441.284 64V65H442.709L442.225 63.6601L441.284 64ZM410.108 46.072L409.165 45.7406L408.697 47.072H410.108V46.072ZM426.092 46.072V47.072H427.504L427.036 45.7406L426.092 46.072ZM418.1 23.32L419.044 22.9886L418.1 20.3026L417.157 22.9886L418.1 23.32ZM433.301 63.6717L429.773 53.5197L427.884 54.1763L431.412 64.3283L433.301 63.6717ZM428.828 52.848H407.372V54.848H428.828V52.848ZM406.428 53.5197L402.9 63.6717L404.789 64.3283L408.317 54.1763L406.428 53.5197ZM403.844 63H394.844V65H403.844V63ZM395.784 64.3411L414.072 13.9411L412.192 13.2589L393.904 63.6589L395.784 64.3411ZM413.132 14.6H423.068V12.6H413.132V14.6ZM422.128 13.9399L440.344 64.3399L442.225 63.6601L424.009 13.2601L422.128 13.9399ZM441.284 63H432.356V65H441.284V63ZM410.108 47.072H426.092V45.072H410.108V47.072ZM427.036 45.7406L419.044 22.9886L417.157 23.6514L425.149 46.4034L427.036 45.7406ZM417.157 22.9886L409.165 45.7406L411.052 46.4034L419.044 23.6514L417.157 22.9886ZM475.432 64L474.567 64.502L474.856 65H475.432V64ZM464.776 45.64L465.641 45.138L465.352 44.64H464.776V45.64ZM454.984 45.64V44.64H453.984V45.64H454.984ZM454.984 64V65H455.984V64H454.984ZM446.704 64H445.704V65H446.704V64ZM446.704 13.6V12.6H445.704V13.6H446.704ZM478.312 18.352L477.6 19.0537L477.605 19.0591L477.61 19.0645L478.312 18.352ZM480.256 38.656L479.435 38.0845L479.433 38.0876L480.256 38.656ZM473.056 44.416L472.682 43.4886L471.609 43.9214L472.193 44.9207L473.056 44.416ZM484.504 64V65H486.247L485.367 63.4953L484.504 64ZM454.984 21.376V20.376H453.984V21.376H454.984ZM454.984 38.224H453.984V39.224H454.984V38.224ZM472.48 35.776L473.208 36.4614L472.48 35.776ZM472.48 23.824L473.208 23.1386L472.48 23.824ZM476.297 63.498L465.641 45.138L463.911 46.142L474.567 64.502L476.297 63.498ZM464.776 44.64H454.984V46.64H464.776V44.64ZM453.984 45.64V64H455.984V45.64H453.984ZM454.984 63H446.704V65H454.984V63ZM447.704 64V13.6H445.704V64H447.704ZM446.704 14.6H466.864V12.6H446.704V14.6ZM466.864 14.6C471.113 14.6 474.671 16.0797 477.6 19.0537L479.025 17.6503C475.714 14.2883 471.639 12.6 466.864 12.6V14.6ZM477.61 19.0645C480.584 21.9934 482.064 25.5514 482.064 29.8H484.064C484.064 25.0246 482.376 20.9506 479.014 17.6395L477.61 19.0645ZM482.064 29.8C482.064 32.8076 481.193 35.5609 479.435 38.0845L481.077 39.2275C483.063 36.3751 484.064 33.2244 484.064 29.8H482.064ZM479.433 38.0876C477.721 40.5666 475.477 42.3617 472.682 43.4886L473.43 45.3434C476.588 44.0703 479.144 42.0254 481.079 39.2244L479.433 38.0876ZM472.193 44.9207L483.641 64.5047L485.367 63.4953L473.919 43.9113L472.193 44.9207ZM484.504 63H475.432V65H484.504V63ZM453.984 21.376V38.224H455.984V21.376H453.984ZM454.984 39.224H466.864V37.224H454.984V39.224ZM466.864 39.224C469.352 39.224 471.487 38.2907 473.208 36.4614L471.752 35.0906C470.402 36.5253 468.792 37.224 466.864 37.224V39.224ZM473.208 36.4614C474.928 34.634 475.784 32.3928 475.784 29.8H473.784C473.784 31.9112 473.104 33.654 471.752 35.0906L473.208 36.4614ZM475.784 29.8C475.784 27.2072 474.928 24.966 473.208 23.1386L471.752 24.5094C473.104 25.946 473.784 27.6888 473.784 29.8H475.784ZM473.208 23.1386C471.487 21.3093 469.352 20.376 466.864 20.376V22.376C468.792 22.376 470.402 23.0747 471.752 24.5094L473.208 23.1386ZM466.864 20.376H454.984V22.376H466.864V20.376ZM528.876 64V65H530.983L529.651 63.3677L528.876 64ZM519.012 64L518.242 64.6381L518.542 65H519.012V64ZM499.14 40.024L499.91 39.3859L498.14 37.2504V40.024H499.14ZM499.14 64V65H500.14V64H499.14ZM490.86 64H489.86V65H490.86V64ZM490.86 13.6V12.6H489.86V13.6H490.86ZM499.14 13.6H500.14V12.6H499.14V13.6ZM499.14 36.208H498.14V38.9355L499.903 36.8544L499.14 36.208ZM518.292 13.6V12.6H517.829L517.529 12.9536L518.292 13.6ZM528.156 13.6L528.926 14.2386L530.286 12.6H528.156V13.6ZM507.78 38.152L507.011 37.5134L506.485 38.1467L507.006 38.7843L507.78 38.152ZM528.876 63H519.012V65H528.876V63ZM519.782 63.3619L499.91 39.3859L498.37 40.6621L518.242 64.6381L519.782 63.3619ZM498.14 40.024V64H500.14V40.024H498.14ZM499.14 63H490.86V65H499.14V63ZM491.86 64V13.6H489.86V64H491.86ZM490.86 14.6H499.14V12.6H490.86V14.6ZM498.14 13.6V36.208H500.14V13.6H498.14ZM499.903 36.8544L519.055 14.2464L517.529 12.9536L498.377 35.5616L499.903 36.8544ZM518.292 14.6H528.156V12.6H518.292V14.6ZM527.387 12.9614L507.011 37.5134L508.55 38.7906L528.926 14.2386L527.387 12.9614ZM507.006 38.7843L528.102 64.6323L529.651 63.3677L508.555 37.5197L507.006 38.7843ZM542.523 56.08H541.523V57.08H542.523V56.08ZM564.843 56.08H565.843V55.08H564.843V56.08ZM564.843 64V65H565.843V64H564.843ZM534.243 64H533.243V65H534.243V64ZM534.243 13.6V12.6H533.243V13.6H534.243ZM564.483 13.6H565.483V12.6H564.483V13.6ZM564.483 21.52V22.52H565.483V21.52H564.483ZM542.523 21.52V20.52H541.523V21.52H542.523ZM542.523 34.624H541.523V35.624H542.523V34.624ZM562.683 34.624H563.683V33.624H562.683V34.624ZM562.683 42.472V43.472H563.683V42.472H562.683ZM542.523 42.472V41.472H541.523V42.472H542.523ZM542.523 57.08H564.843V55.08H542.523V57.08ZM563.843 56.08V64H565.843V56.08H563.843ZM564.843 63H534.243V65H564.843V63ZM535.243 64V13.6H533.243V64H535.243ZM534.243 14.6H564.483V12.6H534.243V14.6ZM563.483 13.6V21.52H565.483V13.6H563.483ZM564.483 20.52H542.523V22.52H564.483V20.52ZM541.523 21.52V34.624H543.523V21.52H541.523ZM542.523 35.624H562.683V33.624H542.523V35.624ZM561.683 34.624V42.472H563.683V34.624H561.683ZM562.683 41.472H542.523V43.472H562.683V41.472ZM541.523 42.472V56.08H543.523V42.472H541.523ZM605.183 13.6H606.183V12.6H605.183V13.6ZM605.183 21.52V22.52H606.183V21.52H605.183ZM590.999 21.52V20.52H589.999V21.52H590.999ZM590.999 64V65H591.999V64H590.999ZM582.719 64H581.719V65H582.719V64ZM582.719 21.52H583.719V20.52H582.719V21.52ZM568.463 21.52H567.463V22.52H568.463V21.52ZM568.463 13.6V12.6H567.463V13.6H568.463ZM604.183 13.6V21.52H606.183V13.6H604.183ZM605.183 20.52H590.999V22.52H605.183V20.52ZM589.999 21.52V64H591.999V21.52H589.999ZM590.999 63H582.719V65H590.999V63ZM583.719 64V21.52H581.719V64H583.719ZM582.719 20.52H568.463V22.52H582.719V20.52ZM569.463 21.52V13.6H567.463V21.52H569.463ZM568.463 14.6H605.183V12.6H568.463V14.6ZM611.306 13.6V12.6H610.306V13.6H611.306ZM619.586 13.6H620.586V12.6H619.586V13.6ZM619.586 64V65H620.586V64H619.586ZM611.306 64H610.306V65H611.306V64ZM611.306 14.6H619.586V12.6H611.306V14.6ZM618.586 13.6V64H620.586V13.6H618.586ZM619.586 63H611.306V65H619.586V63ZM612.306 64V13.6H610.306V64H612.306ZM659.897 13.6V12.6H658.897V13.6H659.897ZM668.177 13.6H669.177V12.6H668.177V13.6ZM668.177 64V65H669.177V64H668.177ZM661.697 64L660.876 64.5706L661.174 65H661.697V64ZM637.937 29.8L638.758 29.2294L636.937 26.6079V29.8H637.937ZM637.937 64V65H638.937V64H637.937ZM629.657 64H628.657V65H629.657V64ZM629.657 13.6V12.6H628.657V13.6H629.657ZM636.137 13.6L636.958 13.0294L636.66 12.6H636.137V13.6ZM659.897 47.8L659.076 48.3706L660.897 50.9921V47.8H659.897ZM659.897 14.6H668.177V12.6H659.897V14.6ZM667.177 13.6V64H669.177V13.6H667.177ZM668.177 63H661.697V65H668.177V63ZM662.518 63.4294L638.758 29.2294L637.116 30.3706L660.876 64.5706L662.518 63.4294ZM636.937 29.8V64H638.937V29.8H636.937ZM637.937 63H629.657V65H637.937V63ZM630.657 64V13.6H628.657V64H630.657ZM629.657 14.6H636.137V12.6H629.657V14.6ZM635.316 14.1706L659.076 48.3706L660.718 47.2294L636.958 13.0294L635.316 14.1706ZM660.897 47.8V13.6H658.897V47.8H660.897ZM727.275 37.936H728.275V36.936H727.275V37.936ZM720.435 58.384L721.127 59.1062L721.131 59.1024L720.435 58.384ZM683.283 57.376L682.576 58.0831L682.579 58.0864L683.283 57.376ZM683.283 20.296L682.576 19.5889L683.283 20.296ZM724.107 24.616L724.606 25.4826L725.483 24.9775L724.968 24.1065L724.107 24.616ZM716.979 28.72L716.107 29.2086L716.601 30.0916L717.478 29.5866L716.979 28.72ZM711.003 22.96L710.512 23.8312L710.524 23.8379L711.003 22.96ZM689.115 25.912L688.403 25.2099L689.115 25.912ZM689.115 51.76L688.408 52.4671L688.413 52.472L689.115 51.76ZM713.523 53.776L714.119 54.5793L714.121 54.5776L713.523 53.776ZM718.923 45.352L719.9 45.5661L720.166 44.352H718.923V45.352ZM702.075 45.352H701.075V46.352H702.075V45.352ZM702.075 37.936V36.936H701.075V37.936H702.075ZM726.275 37.936V41.392H728.275V37.936H726.275ZM726.275 41.392C726.275 48.0599 724.087 53.4558 719.739 57.6656L721.131 59.1024C725.904 54.4802 728.275 48.5481 728.275 41.392H726.275ZM719.743 57.6619C715.4 61.8226 709.71 63.936 702.579 63.936V65.936C710.136 65.936 716.351 63.6814 721.127 59.1061L719.743 57.6619ZM702.579 63.936C695.042 63.936 688.871 61.5032 683.987 56.6656L682.579 58.0864C687.872 63.3288 694.564 65.936 702.579 65.936V63.936ZM683.99 56.6689C679.144 51.8227 676.723 45.8878 676.723 38.8H674.723C674.723 46.4002 677.342 52.8493 682.576 58.0831L683.99 56.6689ZM676.723 38.8C676.723 31.7622 679.143 25.8507 683.99 21.0031L682.576 19.5889C677.344 24.8213 674.723 31.2458 674.723 38.8H676.723ZM683.99 21.0031C688.882 16.111 694.912 13.664 702.147 13.664V11.664C694.406 11.664 687.86 14.305 682.576 19.5889L683.99 21.0031ZM702.147 13.664C706.691 13.664 710.819 14.7055 714.549 16.7782L715.521 15.0298C711.476 12.7825 707.011 11.664 702.147 11.664V13.664ZM714.549 16.7782C718.29 18.8564 721.182 21.6378 723.247 25.1255L724.968 24.1065C722.713 20.2982 719.556 17.2716 715.521 15.0298L714.549 16.7782ZM723.608 23.7494L716.48 27.8534L717.478 29.5866L724.606 25.4826L723.608 23.7494ZM717.852 28.2314C716.407 25.652 714.271 23.6035 711.482 22.0821L710.524 23.8379C713.015 25.1965 714.863 26.988 716.107 29.2086L717.852 28.2314ZM711.494 22.0888C708.693 20.5099 705.569 19.728 702.147 19.728V21.728C705.253 21.728 708.033 22.4341 710.512 23.8311L711.494 22.0888ZM702.147 19.728C696.625 19.728 692.016 21.5456 688.403 25.2099L689.827 26.6141C693.03 23.3664 697.109 21.728 702.147 21.728V19.728ZM688.403 25.2099C684.797 28.8666 683.003 33.445 683.003 38.872H685.003C685.003 33.931 686.617 29.8694 689.827 26.6141L688.403 25.2099ZM683.003 38.872C683.003 44.299 684.797 48.8565 688.408 52.4671L689.822 51.0529C686.617 47.8475 685.003 43.813 685.003 38.872H683.003ZM688.413 52.472C692.084 56.092 696.862 57.872 702.651 57.872V55.872C697.304 55.872 693.058 54.244 689.817 51.048L688.413 52.472ZM702.651 57.872C707.268 57.872 711.118 56.8036 714.119 54.5793L712.928 52.9727C710.36 54.8764 706.963 55.872 702.651 55.872V57.872ZM714.121 54.5776C717.149 52.3194 719.081 49.3012 719.9 45.5661L717.946 45.1379C717.229 48.4108 715.561 51.0087 712.925 52.9744L714.121 54.5776ZM718.923 44.352H702.075V46.352H718.923V44.352ZM703.075 45.352V37.936H701.075V45.352H703.075ZM702.075 38.936H727.275V36.936H702.075V38.936Z" fill="black" mask="url(#path-1-outside-1_349_7437)"/>
<mask id="path-3-outside-2_349_7437" maskUnits="userSpaceOnUse" x="808" y="11" width="641" height="55" fill="black">
<rect fill="white" x="808" y="11" width="641" height="55"/>
<path d="M847.872 64L844.344 53.848H822.888L819.36 64H810.36L828.648 13.6H838.584L856.8 64H847.872ZM825.624 46.072H841.608L833.616 23.32L825.624 46.072ZM880.796 13.6C885.548 13.6 889.508 15.184 892.676 18.352C895.892 21.52 897.5 25.456 897.5 30.16C897.5 34.816 895.892 38.752 892.676 41.968C889.508 45.136 885.548 46.72 880.796 46.72H870.5V64H862.22V13.6H880.796ZM880.796 38.944C883.244 38.944 885.26 38.128 886.844 36.496C888.428 34.816 889.22 32.704 889.22 30.16C889.22 27.616 888.428 25.528 886.844 23.896C885.26 22.216 883.244 21.376 880.796 21.376H870.5V38.944H880.796ZM923.264 13.6C928.016 13.6 931.976 15.184 935.144 18.352C938.36 21.52 939.968 25.456 939.968 30.16C939.968 34.816 938.36 38.752 935.144 41.968C931.976 45.136 928.016 46.72 923.264 46.72H912.968V64H904.688V13.6H923.264ZM923.264 38.944C925.712 38.944 927.728 38.128 929.312 36.496C930.896 34.816 931.688 32.704 931.688 30.16C931.688 27.616 930.896 25.528 929.312 23.896C927.728 22.216 925.712 21.376 923.264 21.376H912.968V38.944H923.264Z"/>
<path d="M984.957 13.6C991.869 13.6 997.605 16.024 1002.17 20.872C1006.77 25.72 1009.08 31.696 1009.08 38.8C1009.08 45.856 1006.77 51.832 1002.17 56.728C997.605 61.576 991.869 64 984.957 64H965.157V13.6H984.957ZM984.957 56.08C989.709 56.08 993.573 54.448 996.549 51.184C999.573 47.92 1001.09 43.792 1001.09 38.8C1001.09 33.76 999.573 29.632 996.549 26.416C993.573 23.152 989.709 21.52 984.957 21.52H973.437V56.08H984.957ZM1024.91 56.08H1047.23V64H1016.63V13.6H1046.87V21.52H1024.91V34.624H1045.07V42.472H1024.91V56.08ZM1067.62 64L1050.13 13.6H1059.2L1072.59 53.992L1086.05 13.6H1095.05L1077.56 64H1067.62ZM1108.72 56.08H1131.04V64H1100.44V13.6H1130.68V21.52H1108.72V34.624H1128.88V42.472H1108.72V56.08ZM1146.9 56.08H1167.42V64H1138.62V13.6H1146.9V56.08ZM1212.45 57.376C1207.41 62.416 1201.24 64.936 1193.95 64.936C1186.65 64.936 1180.46 62.416 1175.37 57.376C1170.33 52.288 1167.81 46.096 1167.81 38.8C1167.81 31.504 1170.33 25.336 1175.37 20.296C1180.46 15.208 1186.65 12.664 1193.95 12.664C1201.24 12.664 1207.41 15.208 1212.45 20.296C1217.54 25.336 1220.08 31.504 1220.08 38.8C1220.08 46.096 1217.54 52.288 1212.45 57.376ZM1181.2 51.76C1184.66 55.168 1188.91 56.872 1193.95 56.872C1198.99 56.872 1203.21 55.168 1206.62 51.76C1210.07 48.304 1211.8 43.984 1211.8 38.8C1211.8 33.616 1210.07 29.32 1206.62 25.912C1203.21 22.456 1198.99 20.728 1193.95 20.728C1188.91 20.728 1184.66 22.456 1181.2 25.912C1177.79 29.32 1176.09 33.616 1176.09 38.8C1176.09 43.984 1177.79 48.304 1181.2 51.76ZM1246.21 13.6C1250.96 13.6 1254.92 15.184 1258.09 18.352C1261.31 21.52 1262.91 25.456 1262.91 30.16C1262.91 34.816 1261.31 38.752 1258.09 41.968C1254.92 45.136 1250.96 46.72 1246.21 46.72H1235.91V64H1227.63V13.6H1246.21ZM1246.21 38.944C1248.66 38.944 1250.67 38.128 1252.26 36.496C1253.84 34.816 1254.63 32.704 1254.63 30.16C1254.63 27.616 1253.84 25.528 1252.26 23.896C1250.67 22.216 1248.66 21.376 1246.21 21.376H1235.91V38.944H1246.21ZM1318.34 13.6V64H1310.06V28.072L1294.73 53.416H1293.72L1278.38 28V64H1270.1V13.6H1279.03L1294.22 38.8L1309.49 13.6H1318.34ZM1336.67 56.08H1358.99V64H1328.39V13.6H1358.63V21.52H1336.67V34.624H1356.83V42.472H1336.67V56.08ZM1396.81 13.6H1405.09V64H1398.61L1374.85 29.8V64H1366.57V13.6H1373.05L1396.81 47.8V13.6ZM1447.92 13.6V21.52H1433.73V64H1425.45V21.52H1411.2V13.6H1447.92Z"/>
</mask>
<path d="M984.957 13.6C991.869 13.6 997.605 16.024 1002.17 20.872C1006.77 25.72 1009.08 31.696 1009.08 38.8C1009.08 45.856 1006.77 51.832 1002.17 56.728C997.605 61.576 991.869 64 984.957 64H965.157V13.6H984.957ZM984.957 56.08C989.709 56.08 993.573 54.448 996.549 51.184C999.573 47.92 1001.09 43.792 1001.09 38.8C1001.09 33.76 999.573 29.632 996.549 26.416C993.573 23.152 989.709 21.52 984.957 21.52H973.437V56.08H984.957ZM1024.91 56.08H1047.23V64H1016.63V13.6H1046.87V21.52H1024.91V34.624H1045.07V42.472H1024.91V56.08ZM1067.62 64L1050.13 13.6H1059.2L1072.59 53.992L1086.05 13.6H1095.05L1077.56 64H1067.62ZM1108.72 56.08H1131.04V64H1100.44V13.6H1130.68V21.52H1108.72V34.624H1128.88V42.472H1108.72V56.08ZM1146.9 56.08H1167.42V64H1138.62V13.6H1146.9V56.08ZM1212.45 57.376C1207.41 62.416 1201.24 64.936 1193.95 64.936C1186.65 64.936 1180.46 62.416 1175.37 57.376C1170.33 52.288 1167.81 46.096 1167.81 38.8C1167.81 31.504 1170.33 25.336 1175.37 20.296C1180.46 15.208 1186.65 12.664 1193.95 12.664C1201.24 12.664 1207.41 15.208 1212.45 20.296C1217.54 25.336 1220.08 31.504 1220.08 38.8C1220.08 46.096 1217.54 52.288 1212.45 57.376ZM1181.2 51.76C1184.66 55.168 1188.91 56.872 1193.95 56.872C1198.99 56.872 1203.21 55.168 1206.62 51.76C1210.07 48.304 1211.8 43.984 1211.8 38.8C1211.8 33.616 1210.07 29.32 1206.62 25.912C1203.21 22.456 1198.99 20.728 1193.95 20.728C1188.91 20.728 1184.66 22.456 1181.2 25.912C1177.79 29.32 1176.09 33.616 1176.09 38.8C1176.09 43.984 1177.79 48.304 1181.2 51.76ZM1246.21 13.6C1250.96 13.6 1254.92 15.184 1258.09 18.352C1261.31 21.52 1262.91 25.456 1262.91 30.16C1262.91 34.816 1261.31 38.752 1258.09 41.968C1254.92 45.136 1250.96 46.72 1246.21 46.72H1235.91V64H1227.63V13.6H1246.21ZM1246.21 38.944C1248.66 38.944 1250.67 38.128 1252.26 36.496C1253.84 34.816 1254.63 32.704 1254.63 30.16C1254.63 27.616 1253.84 25.528 1252.26 23.896C1250.67 22.216 1248.66 21.376 1246.21 21.376H1235.91V38.944H1246.21ZM1318.34 13.6V64H1310.06V28.072L1294.73 53.416H1293.72L1278.38 28V64H1270.1V13.6H1279.03L1294.22 38.8L1309.49 13.6H1318.34ZM1336.67 56.08H1358.99V64H1328.39V13.6H1358.63V21.52H1336.67V34.624H1356.83V42.472H1336.67V56.08ZM1396.81 13.6H1405.09V64H1398.61L1374.85 29.8V64H1366.57V13.6H1373.05L1396.81 47.8V13.6ZM1447.92 13.6V21.52H1433.73V64H1425.45V21.52H1411.2V13.6H1447.92Z" fill="black"/>
<path d="M847.872 64L846.927 64.3283L847.161 65H847.872V64ZM844.344 53.848L845.289 53.5197L845.055 52.848H844.344V53.848ZM822.888 53.848V52.848H822.177L821.943 53.5197L822.888 53.848ZM819.36 64V65H820.071L820.305 64.3283L819.36 64ZM810.36 64L809.42 63.6589L808.933 65H810.36V64ZM828.648 13.6V12.6H827.947L827.708 13.2589L828.648 13.6ZM838.584 13.6L839.524 13.2601L839.286 12.6H838.584V13.6ZM856.8 64V65H858.225L857.74 63.6601L856.8 64ZM825.624 46.072L824.681 45.7406L824.213 47.072H825.624V46.072ZM841.608 46.072V47.072H843.019L842.551 45.7406L841.608 46.072ZM833.616 23.32L834.559 22.9886L833.616 20.3026L832.673 22.9886L833.616 23.32ZM848.817 63.6717L845.289 53.5197L843.399 54.1763L846.927 64.3283L848.817 63.6717ZM844.344 52.848H822.888V54.848H844.344V52.848ZM821.943 53.5197L818.415 63.6717L820.305 64.3283L823.833 54.1763L821.943 53.5197ZM819.36 63H810.36V65H819.36V63ZM811.3 64.3411L829.588 13.9411L827.708 13.2589L809.42 63.6589L811.3 64.3411ZM828.648 14.6H838.584V12.6H828.648V14.6ZM837.644 13.9399L855.86 64.3399L857.74 63.6601L839.524 13.2601L837.644 13.9399ZM856.8 63H847.872V65H856.8V63ZM825.624 47.072H841.608V45.072H825.624V47.072ZM842.551 45.7406L834.559 22.9886L832.673 23.6514L840.665 46.4034L842.551 45.7406ZM832.673 22.9886L824.681 45.7406L826.567 46.4034L834.559 23.6514L832.673 22.9886ZM892.676 18.352L891.969 19.0591L891.974 19.0644L892.676 18.352ZM892.676 41.968L893.383 42.6751L892.676 41.968ZM870.5 46.72V45.72H869.5V46.72H870.5ZM870.5 64V65H871.5V64H870.5ZM862.22 64H861.22V65H862.22V64ZM862.22 13.6V12.6H861.22V13.6H862.22ZM886.844 36.496L887.561 37.1925L887.566 37.1873L887.571 37.182L886.844 36.496ZM886.844 23.896L886.116 24.582L886.121 24.5873L886.126 24.5925L886.844 23.896ZM870.5 21.376V20.376H869.5V21.376H870.5ZM870.5 38.944H869.5V39.944H870.5V38.944ZM880.796 14.6C885.3 14.6 889 16.0909 891.969 19.0591L893.383 17.6449C890.015 14.2771 885.795 12.6 880.796 12.6V14.6ZM891.974 19.0644C894.99 22.0358 896.5 25.7112 896.5 30.16H898.5C898.5 25.2008 896.793 21.0042 893.377 17.6396L891.974 19.0644ZM896.5 30.16C896.5 34.5578 894.992 38.2374 891.969 41.2609L893.383 42.6751C896.791 39.2666 898.5 35.0742 898.5 30.16H896.5ZM891.969 41.2609C889 44.2291 885.3 45.72 880.796 45.72V47.72C885.795 47.72 890.015 46.0429 893.383 42.6751L891.969 41.2609ZM880.796 45.72H870.5V47.72H880.796V45.72ZM869.5 46.72V64H871.5V46.72H869.5ZM870.5 63H862.22V65H870.5V63ZM863.22 64V13.6H861.22V64H863.22ZM862.22 14.6H880.796V12.6H862.22V14.6ZM880.796 39.944C883.491 39.944 885.774 39.0344 887.561 37.1925L886.126 35.7995C884.746 37.2216 882.996 37.944 880.796 37.944V39.944ZM887.571 37.182C889.349 35.2969 890.22 32.9308 890.22 30.16H888.22C888.22 32.4772 887.507 34.3351 886.116 35.81L887.571 37.182ZM890.22 30.16C890.22 27.3895 889.348 25.0409 887.561 23.1995L886.126 24.5925C887.507 26.0151 888.22 27.8425 888.22 30.16H890.22ZM887.571 23.21C885.786 21.3165 883.501 20.376 880.796 20.376V22.376C882.987 22.376 884.733 23.1155 886.116 24.582L887.571 23.21ZM880.796 20.376H870.5V22.376H880.796V20.376ZM869.5 21.376V38.944H871.5V21.376H869.5ZM870.5 39.944H880.796V37.944H870.5V39.944ZM935.144 18.352L934.437 19.0591L934.443 19.0644L935.144 18.352ZM935.144 41.968L935.852 42.6751L935.144 41.968ZM912.968 46.72V45.72H911.968V46.72H912.968ZM912.968 64V65H913.968V64H912.968ZM904.688 64H903.688V65H904.688V64ZM904.688 13.6V12.6H903.688V13.6H904.688ZM929.312 36.496L930.03 37.1925L930.035 37.1873L930.04 37.182L929.312 36.496ZM929.312 23.896L928.585 24.582L928.59 24.5873L928.595 24.5925L929.312 23.896ZM912.968 21.376V20.376H911.968V21.376H912.968ZM912.968 38.944H911.968V39.944H912.968V38.944ZM923.264 14.6C927.769 14.6 931.469 16.0909 934.437 19.0591L935.852 17.6449C932.484 14.2771 928.264 12.6 923.264 12.6V14.6ZM934.443 19.0644C937.459 22.0358 938.968 25.7112 938.968 30.16H940.968C940.968 25.2008 939.262 21.0042 935.846 17.6396L934.443 19.0644ZM938.968 30.16C938.968 34.5578 937.461 38.2374 934.437 41.2609L935.852 42.6751C939.26 39.2666 940.968 35.0742 940.968 30.16H938.968ZM934.437 41.2609C931.469 44.2291 927.769 45.72 923.264 45.72V47.72C928.264 47.72 932.484 46.0429 935.852 42.6751L934.437 41.2609ZM923.264 45.72H912.968V47.72H923.264V45.72ZM911.968 46.72V64H913.968V46.72H911.968ZM912.968 63H904.688V65H912.968V63ZM905.688 64V13.6H903.688V64H905.688ZM904.688 14.6H923.264V12.6H904.688V14.6ZM923.264 39.944C925.96 39.944 928.242 39.0344 930.03 37.1925L928.595 35.7995C927.215 37.2216 925.465 37.944 923.264 37.944V39.944ZM930.04 37.182C931.817 35.2969 932.688 32.9308 932.688 30.16H930.688C930.688 32.4772 929.975 34.3351 928.585 35.81L930.04 37.182ZM932.688 30.16C932.688 27.3895 931.817 25.0409 930.03 23.1995L928.595 24.5925C929.976 26.0151 930.688 27.8425 930.688 30.16H932.688ZM930.04 23.21C928.255 21.3165 925.969 20.376 923.264 20.376V22.376C925.456 22.376 927.202 23.1155 928.585 24.582L930.04 23.21ZM923.264 20.376H912.968V22.376H923.264V20.376ZM911.968 21.376V38.944H913.968V21.376H911.968ZM912.968 39.944H923.264V37.944H912.968V39.944ZM1002.17 20.872L1001.44 21.5571L1001.44 21.5609L1002.17 20.872ZM1002.17 56.728L1001.44 56.0426L1001.44 56.0429L1002.17 56.728ZM965.157 64H964.157V65H965.157V64ZM965.157 13.6V12.6H964.157V13.6H965.157ZM996.549 51.184L995.816 50.5044L995.81 50.5102L996.549 51.184ZM996.549 26.416L995.81 27.0898L995.815 27.0954L995.821 27.101L996.549 26.416ZM973.437 21.52V20.52H972.437V21.52H973.437ZM973.437 56.08H972.437V57.08H973.437V56.08ZM984.957 14.6C991.605 14.6 997.074 16.9186 1001.44 21.5571L1002.89 20.1869C998.137 15.1294 992.133 12.6 984.957 12.6V14.6ZM1001.44 21.5609C1005.86 26.2107 1008.08 31.9349 1008.08 38.8H1010.08C1010.08 31.4571 1007.69 25.2293 1002.89 20.1831L1001.44 21.5609ZM1008.08 38.8C1008.08 45.6152 1005.86 51.342 1001.44 56.0426L1002.89 57.4134C1007.69 52.322 1010.08 46.0968 1010.08 38.8H1008.08ZM1001.44 56.0429C997.074 60.6814 991.605 63 984.957 63V65C992.133 65 998.137 62.4706 1002.89 57.4131L1001.44 56.0429ZM984.957 63H965.157V65H984.957V63ZM966.157 64V13.6H964.157V64H966.157ZM965.157 14.6H984.957V12.6H965.157V14.6ZM984.957 57.08C989.966 57.08 994.107 55.3466 997.288 51.8578L995.81 50.5102C993.039 53.5494 989.452 55.08 984.957 55.08V57.08ZM997.283 51.8636C1000.5 48.3918 1002.09 44.0108 1002.09 38.8H1000.09C1000.09 43.5732 998.647 47.4482 995.816 50.5044L997.283 51.8636ZM1002.09 38.8C1002.09 33.5443 1000.5 29.1589 997.278 25.731L995.821 27.101C998.645 30.1051 1000.09 33.9757 1000.09 38.8H1002.09ZM997.288 25.7422C994.107 22.2534 989.966 20.52 984.957 20.52V22.52C989.452 22.52 993.039 24.0506 995.81 27.0898L997.288 25.7422ZM984.957 20.52H973.437V22.52H984.957V20.52ZM972.437 21.52V56.08H974.437V21.52H972.437ZM973.437 57.08H984.957V55.08H973.437V57.08ZM1024.91 56.08H1023.91V57.08H1024.91V56.08ZM1047.23 56.08H1048.23V55.08H1047.23V56.08ZM1047.23 64V65H1048.23V64H1047.23ZM1016.63 64H1015.63V65H1016.63V64ZM1016.63 13.6V12.6H1015.63V13.6H1016.63ZM1046.87 13.6H1047.87V12.6H1046.87V13.6ZM1046.87 21.52V22.52H1047.87V21.52H1046.87ZM1024.91 21.52V20.52H1023.91V21.52H1024.91ZM1024.91 34.624H1023.91V35.624H1024.91V34.624ZM1045.07 34.624H1046.07V33.624H1045.07V34.624ZM1045.07 42.472V43.472H1046.07V42.472H1045.07ZM1024.91 42.472V41.472H1023.91V42.472H1024.91ZM1024.91 57.08H1047.23V55.08H1024.91V57.08ZM1046.23 56.08V64H1048.23V56.08H1046.23ZM1047.23 63H1016.63V65H1047.23V63ZM1017.63 64V13.6H1015.63V64H1017.63ZM1016.63 14.6H1046.87V12.6H1016.63V14.6ZM1045.87 13.6V21.52H1047.87V13.6H1045.87ZM1046.87 20.52H1024.91V22.52H1046.87V20.52ZM1023.91 21.52V34.624H1025.91V21.52H1023.91ZM1024.91 35.624H1045.07V33.624H1024.91V35.624ZM1044.07 34.624V42.472H1046.07V34.624H1044.07ZM1045.07 41.472H1024.91V43.472H1045.07V41.472ZM1023.91 42.472V56.08H1025.91V42.472H1023.91ZM1067.62 64L1066.68 64.3279L1066.91 65H1067.62V64ZM1050.13 13.6V12.6H1048.72L1049.18 13.9279L1050.13 13.6ZM1059.2 13.6L1060.15 13.2853L1059.92 12.6H1059.2V13.6ZM1072.59 53.992L1071.64 54.3067L1072.59 57.1619L1073.54 54.3082L1072.59 53.992ZM1086.05 13.6V12.6H1085.33L1085.1 13.2838L1086.05 13.6ZM1095.05 13.6L1096 13.9279L1096.46 12.6H1095.05V13.6ZM1077.56 64V65H1078.27L1078.5 64.3279L1077.56 64ZM1068.57 63.6721L1051.07 13.2721L1049.18 13.9279L1066.68 64.3279L1068.57 63.6721ZM1050.13 14.6H1059.2V12.6H1050.13V14.6ZM1058.25 13.9147L1071.64 54.3067L1073.54 53.6773L1060.15 13.2853L1058.25 13.9147ZM1073.54 54.3082L1087 13.9162L1085.1 13.2838L1071.64 53.6758L1073.54 54.3082ZM1086.05 14.6H1095.05V12.6H1086.05V14.6ZM1094.11 13.2721L1076.61 63.6721L1078.5 64.3279L1096 13.9279L1094.11 13.2721ZM1077.56 63H1067.62V65H1077.56V63ZM1108.72 56.08H1107.72V57.08H1108.72V56.08ZM1131.04 56.08H1132.04V55.08H1131.04V56.08ZM1131.04 64V65H1132.04V64H1131.04ZM1100.44 64H1099.44V65H1100.44V64ZM1100.44 13.6V12.6H1099.44V13.6H1100.44ZM1130.68 13.6H1131.68V12.6H1130.68V13.6ZM1130.68 21.52V22.52H1131.68V21.52H1130.68ZM1108.72 21.52V20.52H1107.72V21.52H1108.72ZM1108.72 34.624H1107.72V35.624H1108.72V34.624ZM1128.88 34.624H1129.88V33.624H1128.88V34.624ZM1128.88 42.472V43.472H1129.88V42.472H1128.88ZM1108.72 42.472V41.472H1107.72V42.472H1108.72ZM1108.72 57.08H1131.04V55.08H1108.72V57.08ZM1130.04 56.08V64H1132.04V56.08H1130.04ZM1131.04 63H1100.44V65H1131.04V63ZM1101.44 64V13.6H1099.44V64H1101.44ZM1100.44 14.6H1130.68V12.6H1100.44V14.6ZM1129.68 13.6V21.52H1131.68V13.6H1129.68ZM1130.68 20.52H1108.72V22.52H1130.68V20.52ZM1107.72 21.52V34.624H1109.72V21.52H1107.72ZM1108.72 35.624H1128.88V33.624H1108.72V35.624ZM1127.88 34.624V42.472H1129.88V34.624H1127.88ZM1128.88 41.472H1108.72V43.472H1128.88V41.472ZM1107.72 42.472V56.08H1109.72V42.472H1107.72ZM1146.9 56.08H1145.9V57.08H1146.9V56.08ZM1167.42 56.08H1168.42V55.08H1167.42V56.08ZM1167.42 64V65H1168.42V64H1167.42ZM1138.62 64H1137.62V65H1138.62V64ZM1138.62 13.6V12.6H1137.62V13.6H1138.62ZM1146.9 13.6H1147.9V12.6H1146.9V13.6ZM1146.9 57.08H1167.42V55.08H1146.9V57.08ZM1166.42 56.08V64H1168.42V56.08H1166.42ZM1167.42 63H1138.62V65H1167.42V63ZM1139.62 64V13.6H1137.62V64H1139.62ZM1138.62 14.6H1146.9V12.6H1138.62V14.6ZM1145.9 13.6V56.08H1147.9V13.6H1145.9ZM1212.45 57.376L1213.16 58.0831L1212.45 57.376ZM1175.37 57.376L1174.66 58.0798L1174.67 58.0864L1175.37 57.376ZM1175.37 20.296L1174.66 19.5889L1175.37 20.296ZM1212.45 20.296L1211.74 20.9998L1211.75 21.0064L1212.45 20.296ZM1181.2 51.76L1180.49 52.4622L1180.5 52.472L1181.2 51.76ZM1206.62 51.76L1205.91 51.0529L1206.62 51.76ZM1206.62 25.912L1205.9 26.6142L1205.91 26.624L1206.62 25.912ZM1181.2 25.912L1180.49 25.2049L1181.2 25.912ZM1211.74 56.6689C1206.89 61.5165 1200.98 63.936 1193.95 63.936V65.936C1201.5 65.936 1207.92 63.3155 1213.16 58.0831L1211.74 56.6689ZM1193.95 63.936C1186.91 63.936 1180.97 61.5162 1176.07 56.6656L1174.67 58.0864C1179.94 63.3158 1186.39 65.936 1193.95 65.936V63.936ZM1176.08 56.6723C1171.23 51.7754 1168.81 45.838 1168.81 38.8H1166.81C1166.81 46.354 1169.43 52.8006 1174.66 58.0797L1176.08 56.6723ZM1168.81 38.8C1168.81 31.7622 1171.23 25.8507 1176.08 21.0031L1174.66 19.5889C1169.43 24.8213 1166.81 31.2458 1166.81 38.8H1168.81ZM1176.08 21.0031C1180.97 16.1056 1186.91 13.664 1193.95 13.664V11.664C1186.39 11.664 1179.94 14.3104 1174.66 19.5889L1176.08 21.0031ZM1193.95 13.664C1200.98 13.664 1206.89 16.1053 1211.74 20.9997L1213.16 19.5922C1207.93 14.3107 1201.5 11.664 1193.95 11.664V13.664ZM1211.75 21.0064C1216.64 25.8547 1219.08 31.7652 1219.08 38.8H1221.08C1221.08 31.2428 1218.43 24.8173 1213.15 19.5855L1211.75 21.0064ZM1219.08 38.8C1219.08 45.8349 1216.64 51.7714 1211.74 56.6689L1213.16 58.0831C1218.43 52.8046 1221.08 46.3571 1221.08 38.8H1219.08ZM1180.5 52.472C1184.15 56.0723 1188.65 57.872 1193.95 57.872V55.872C1189.16 55.872 1185.16 54.2637 1181.9 51.048L1180.5 52.472ZM1193.95 57.872C1199.24 57.872 1203.72 56.072 1207.32 52.4671L1205.91 51.0529C1202.7 54.264 1198.73 55.872 1193.95 55.872V57.872ZM1207.32 52.4671C1210.98 48.8113 1212.8 44.2314 1212.8 38.8H1210.8C1210.8 43.7366 1209.17 47.7967 1205.91 51.0529L1207.32 52.4671ZM1212.8 38.8C1212.8 33.3686 1210.98 28.8096 1207.32 25.2L1205.91 26.624C1209.17 29.8304 1210.8 33.8634 1210.8 38.8H1212.8ZM1207.33 25.2099C1203.73 21.5553 1199.24 19.728 1193.95 19.728V21.728C1198.73 21.728 1202.69 23.3567 1205.91 26.6141L1207.33 25.2099ZM1193.95 19.728C1188.65 19.728 1184.14 21.5549 1180.49 25.2049L1181.91 26.6191C1185.17 23.3571 1189.16 21.728 1193.95 21.728V19.728ZM1180.49 25.2049C1176.88 28.8155 1175.09 33.3729 1175.09 38.8H1177.09C1177.09 33.859 1178.7 29.8245 1181.91 26.6191L1180.49 25.2049ZM1175.09 38.8C1175.09 44.227 1176.88 48.8054 1180.49 52.4621L1181.91 51.0579C1178.7 47.8026 1177.09 43.741 1177.09 38.8H1175.09ZM1258.09 18.352L1257.38 19.0591L1257.39 19.0644L1258.09 18.352ZM1258.09 41.968L1258.8 42.6751L1258.09 41.968ZM1235.91 46.72V45.72H1234.91V46.72H1235.91ZM1235.91 64V65H1236.91V64H1235.91ZM1227.63 64H1226.63V65H1227.63V64ZM1227.63 13.6V12.6H1226.63V13.6H1227.63ZM1252.26 36.496L1252.98 37.1925L1252.98 37.1873L1252.99 37.182L1252.26 36.496ZM1252.26 23.896L1251.53 24.582L1251.54 24.5873L1251.54 24.5925L1252.26 23.896ZM1235.91 21.376V20.376H1234.91V21.376H1235.91ZM1235.91 38.944H1234.91V39.944H1235.91V38.944ZM1246.21 14.6C1250.71 14.6 1254.41 16.0909 1257.38 19.0591L1258.8 17.6449C1255.43 14.2771 1251.21 12.6 1246.21 12.6V14.6ZM1257.39 19.0644C1260.4 22.0358 1261.91 25.7112 1261.91 30.16H1263.91C1263.91 25.2008 1262.21 21.0042 1258.79 17.6396L1257.39 19.0644ZM1261.91 30.16C1261.91 34.5578 1260.41 38.2374 1257.38 41.2609L1258.8 42.6751C1262.21 39.2666 1263.91 35.0742 1263.91 30.16H1261.91ZM1257.38 41.2609C1254.41 44.2291 1250.71 45.72 1246.21 45.72V47.72C1251.21 47.72 1255.43 46.0429 1258.8 42.6751L1257.38 41.2609ZM1246.21 45.72H1235.91V47.72H1246.21V45.72ZM1234.91 46.72V64H1236.91V46.72H1234.91ZM1235.91 63H1227.63V65H1235.91V63ZM1228.63 64V13.6H1226.63V64H1228.63ZM1227.63 14.6H1246.21V12.6H1227.63V14.6ZM1246.21 39.944C1248.91 39.944 1251.19 39.0344 1252.98 37.1925L1251.54 35.7995C1250.16 37.2216 1248.41 37.944 1246.21 37.944V39.944ZM1252.99 37.182C1254.76 35.2969 1255.63 32.9308 1255.63 30.16H1253.63C1253.63 32.4772 1252.92 34.3351 1251.53 35.81L1252.99 37.182ZM1255.63 30.16C1255.63 27.3895 1254.76 25.0409 1252.98 23.1995L1251.54 24.5925C1252.92 26.0151 1253.63 27.8425 1253.63 30.16H1255.63ZM1252.99 23.21C1251.2 21.3165 1248.91 20.376 1246.21 20.376V22.376C1248.4 22.376 1250.15 23.1155 1251.53 24.582L1252.99 23.21ZM1246.21 20.376H1235.91V22.376H1246.21V20.376ZM1234.91 21.376V38.944H1236.91V21.376H1234.91ZM1235.91 39.944H1246.21V37.944H1235.91V39.944ZM1318.34 13.6H1319.34V12.6H1318.34V13.6ZM1318.34 64V65H1319.34V64H1318.34ZM1310.06 64H1309.06V65H1310.06V64ZM1310.06 28.072H1311.06V24.4878L1309.21 27.5543L1310.06 28.072ZM1294.73 53.416V54.416H1295.29L1295.58 53.9337L1294.73 53.416ZM1293.72 53.416L1292.86 53.9326L1293.15 54.416H1293.72V53.416ZM1278.38 28L1279.24 27.4834L1277.38 24.4071V28H1278.38ZM1278.38 64V65H1279.38V64H1278.38ZM1270.1 64H1269.1V65H1270.1V64ZM1270.1 13.6V12.6H1269.1V13.6H1270.1ZM1279.03 13.6L1279.89 13.0837L1279.6 12.6H1279.03V13.6ZM1294.22 38.8L1293.37 39.3163L1294.22 40.7335L1295.08 39.3181L1294.22 38.8ZM1309.49 13.6V12.6H1308.92L1308.63 13.0819L1309.49 13.6ZM1317.34 13.6V64H1319.34V13.6H1317.34ZM1318.34 63H1310.06V65H1318.34V63ZM1311.06 64V28.072H1309.06V64H1311.06ZM1309.21 27.5543L1293.87 52.8983L1295.58 53.9337L1310.92 28.5897L1309.21 27.5543ZM1294.73 52.416H1293.72V54.416H1294.73V52.416ZM1294.57 52.8994L1279.24 27.4834L1277.53 28.5166L1292.86 53.9326L1294.57 52.8994ZM1277.38 28V64H1279.38V28H1277.38ZM1278.38 63H1270.1V65H1278.38V63ZM1271.1 64V13.6H1269.1V64H1271.1ZM1270.1 14.6H1279.03V12.6H1270.1V14.6ZM1278.17 14.1163L1293.37 39.3163L1295.08 38.2837L1279.89 13.0837L1278.17 14.1163ZM1295.08 39.3181L1310.34 14.1181L1308.63 13.0819L1293.37 38.2819L1295.08 39.3181ZM1309.49 14.6H1318.34V12.6H1309.49V14.6ZM1336.67 56.08H1335.67V57.08H1336.67V56.08ZM1358.99 56.08H1359.99V55.08H1358.99V56.08ZM1358.99 64V65H1359.99V64H1358.99ZM1328.39 64H1327.39V65H1328.39V64ZM1328.39 13.6V12.6H1327.39V13.6H1328.39ZM1358.63 13.6H1359.63V12.6H1358.63V13.6ZM1358.63 21.52V22.52H1359.63V21.52H1358.63ZM1336.67 21.52V20.52H1335.67V21.52H1336.67ZM1336.67 34.624H1335.67V35.624H1336.67V34.624ZM1356.83 34.624H1357.83V33.624H1356.83V34.624ZM1356.83 42.472V43.472H1357.83V42.472H1356.83ZM1336.67 42.472V41.472H1335.67V42.472H1336.67ZM1336.67 57.08H1358.99V55.08H1336.67V57.08ZM1357.99 56.08V64H1359.99V56.08H1357.99ZM1358.99 63H1328.39V65H1358.99V63ZM1329.39 64V13.6H1327.39V64H1329.39ZM1328.39 14.6H1358.63V12.6H1328.39V14.6ZM1357.63 13.6V21.52H1359.63V13.6H1357.63ZM1358.63 20.52H1336.67V22.52H1358.63V20.52ZM1335.67 21.52V34.624H1337.67V21.52H1335.67ZM1336.67 35.624H1356.83V33.624H1336.67V35.624ZM1355.83 34.624V42.472H1357.83V34.624H1355.83ZM1356.83 41.472H1336.67V43.472H1356.83V41.472ZM1335.67 42.472V56.08H1337.67V42.472H1335.67ZM1396.81 13.6V12.6H1395.81V13.6H1396.81ZM1405.09 13.6H1406.09V12.6H1405.09V13.6ZM1405.09 64V65H1406.09V64H1405.09ZM1398.61 64L1397.79 64.5706L1398.09 65H1398.61V64ZM1374.85 29.8L1375.67 29.2294L1373.85 26.6079V29.8H1374.85ZM1374.85 64V65H1375.85V64H1374.85ZM1366.57 64H1365.57V65H1366.57V64ZM1366.57 13.6V12.6H1365.57V13.6H1366.57ZM1373.05 13.6L1373.87 13.0294L1373.57 12.6H1373.05V13.6ZM1396.81 47.8L1395.99 48.3706L1397.81 50.9921V47.8H1396.81ZM1396.81 14.6H1405.09V12.6H1396.81V14.6ZM1404.09 13.6V64H1406.09V13.6H1404.09ZM1405.09 63H1398.61V65H1405.09V63ZM1399.43 63.4294L1375.67 29.2294L1374.03 30.3706L1397.79 64.5706L1399.43 63.4294ZM1373.85 29.8V64H1375.85V29.8H1373.85ZM1374.85 63H1366.57V65H1374.85V63ZM1367.57 64V13.6H1365.57V64H1367.57ZM1366.57 14.6H1373.05V12.6H1366.57V14.6ZM1372.23 14.1706L1395.99 48.3706L1397.63 47.2294L1373.87 13.0294L1372.23 14.1706ZM1397.81 47.8V13.6H1395.81V47.8H1397.81ZM1447.92 13.6H1448.92V12.6H1447.92V13.6ZM1447.92 21.52V22.52H1448.92V21.52H1447.92ZM1433.73 21.52V20.52H1432.73V21.52H1433.73ZM1433.73 64V65H1434.73V64H1433.73ZM1425.45 64H1424.45V65H1425.45V64ZM1425.45 21.52H1426.45V20.52H1425.45V21.52ZM1411.2 21.52H1410.2V22.52H1411.2V21.52ZM1411.2 13.6V12.6H1410.2V13.6H1411.2ZM1446.92 13.6V21.52H1448.92V13.6H1446.92ZM1447.92 20.52H1433.73V22.52H1447.92V20.52ZM1432.73 21.52V64H1434.73V21.52H1432.73ZM1433.73 63H1425.45V65H1433.73V63ZM1426.45 64V21.52H1424.45V64H1426.45ZM1425.45 20.52H1411.2V22.52H1425.45V20.52ZM1412.2 21.52V13.6H1410.2V21.52H1412.2ZM1411.2 14.6H1447.92V12.6H1411.2V14.6Z" fill="black" mask="url(#path-3-outside-2_349_7437)"/>
<path d="M772.307 27.68L774.653 32.3734C774.973 33.0267 775.827 33.6534 776.547 33.7734L780.8 34.48C783.52 34.9334 784.16 36.9067 782.2 38.8534L778.893 42.16C778.333 42.72 778.027 43.8 778.2 44.5734L779.147 48.6667C779.893 51.9067 778.173 53.16 775.307 51.4667L771.32 49.1067C770.6 48.68 769.413 48.68 768.68 49.1067L764.693 51.4667C761.84 53.16 760.107 51.8934 760.853 48.6667L761.8 44.5734C761.973 43.8 761.667 42.72 761.107 42.16L757.8 38.8534C755.853 36.9067 756.48 34.9334 759.2 34.48L763.453 33.7734C764.16 33.6534 765.013 33.0267 765.333 32.3734L767.68 27.68C768.96 25.1334 771.04 25.1334 772.307 27.68Z" fill="black"/>
<path d="M18.3067 27.68L20.6533 32.3734C20.9733 33.0267 21.8267 33.6534 22.5467 33.7734L26.8 34.48C29.52 34.9334 30.16 36.9067 28.2 38.8534L24.8933 42.16C24.3333 42.72 24.0267 43.8 24.2 44.5734L25.1467 48.6667C25.8933 51.9067 24.1733 53.16 21.3067 51.4667L17.32 49.1067C16.6 48.68 15.4133 48.68 14.68 49.1067L10.6933 51.4667C7.84 53.16 6.10667 51.8934 6.85333 48.6667L7.8 44.5734C7.97333 43.8 7.66667 42.72 7.10667 42.16L3.8 38.8534C1.85333 36.9067 2.48 34.9334 5.2 34.48L9.45333 33.7734C10.16 33.6534 11.0133 33.0267 11.3333 32.3734L13.68 27.68C14.96 25.1334 17.04 25.1334 18.3067 27.68Z" fill="black"/>
<path d="M1491.31 27.68L1493.65 32.3734C1493.97 33.0267 1494.83 33.6534 1495.55 33.7734L1499.8 34.48C1502.52 34.9334 1503.16 36.9067 1501.2 38.8534L1497.89 42.16C1497.33 42.72 1497.03 43.8 1497.2 44.5734L1498.15 48.6667C1498.89 51.9067 1497.17 53.16 1494.31 51.4667L1490.32 49.1067C1489.6 48.68 1488.41 48.68 1487.68 49.1067L1483.69 51.4667C1480.84 53.16 1479.11 51.8934 1479.85 48.6667L1480.8 44.5734C1480.97 43.8 1480.67 42.72 1480.11 42.16L1476.8 38.8534C1474.85 36.9067 1475.48 34.9334 1478.2 34.48L1482.45 33.7734C1483.16 33.6534 1484.01 33.0267 1484.33 32.3734L1486.68 27.68C1487.96 25.1334 1490.04 25.1334 1491.31 27.68Z" fill="black"/>
</svg>
