<svg width="306" height="191" viewBox="0 0 306 191" fill="none" xmlns="http://www.w3.org/2000/svg">
<path d="M162.446 84.1607L172.384 78.7672C173.997 77.8924 173.997 77.8924 174.619 79.6359C174.927 80.5047 175.193 81.3916 175.531 82.2482C175.613 82.5354 175.774 82.7936 175.996 82.9932C176.218 83.1927 176.492 83.3254 176.786 83.3759C177.081 83.4264 177.384 83.3926 177.66 83.2785C177.936 83.1643 178.174 82.9745 178.346 82.7309C180.964 79.4851 183.552 76.2152 186.11 72.9212C187.004 71.7749 186.514 70.5502 185.034 70.1942C181.567 69.3677 178.093 68.5834 174.625 67.781C174.013 67.6092 173.389 67.4861 172.758 67.413C171.405 67.3104 170.668 68.2697 171.091 69.5728C171.604 71.1414 172.16 72.698 172.728 74.2484C172.867 74.6346 172.897 74.8517 172.48 75.0991C170.239 76.3057 168.004 77.5123 165.762 78.7189C165.497 78.3931 165.611 78.0674 165.611 77.7717C165.611 73.446 165.611 69.1143 165.611 64.7886C165.611 64.5171 165.762 64.1431 165.484 63.9983C165.207 63.8535 164.989 64.2034 164.772 64.3603L154.646 71.7508C154.487 71.4597 154.44 71.1209 154.513 70.7975C154.513 66.3391 154.568 61.8807 154.477 57.4283C154.442 56.506 154.625 55.5884 155.011 54.7499C155.398 53.9114 155.976 53.1755 156.7 52.6019C157.346 52.1452 158.128 51.9218 158.918 51.9684C162.421 51.9684 165.932 51.8719 169.429 52.0227C171.844 52.1744 174.224 52.6701 176.498 53.4948C181.316 55.1678 185.573 58.1466 188.792 62.0979C191.347 65.1733 193.171 68.7871 194.126 72.6678C194.692 74.8491 194.98 77.093 194.984 79.3463C194.984 82.4534 195.166 85.5664 194.948 88.6493C194.87 89.7775 193.933 90.9177 192.828 91.5814C191.887 92.1243 190.814 92.3958 189.728 92.3657C179.657 92.3657 169.587 92.3657 159.522 92.3657C158.866 92.3887 158.213 92.2782 157.602 92.041C156.99 91.8039 156.434 91.4449 155.966 90.9861C155.498 90.5272 155.128 89.978 154.88 89.372C154.631 88.7659 154.508 88.1157 154.519 87.4608C154.483 83.7987 154.519 80.1427 154.519 76.4807C154.487 76.3094 154.501 76.1327 154.56 75.9685C154.618 75.8043 154.719 75.6584 154.852 75.5455C157.353 73.7356 159.842 71.9257 162.476 70.0253L162.446 84.1607Z" fill="#29479E"/>
<path d="M145.53 78.4173V75.3706C145.53 71.8715 145.53 68.3723 145.53 64.8671C145.53 64.6016 145.681 64.2276 145.379 64.0949C145.077 63.9621 144.871 64.2819 144.648 64.4448C141.434 66.7796 138.214 69.1083 135.012 71.4733C134.462 71.8835 134.196 71.974 133.665 71.3526C132.322 69.7483 130.416 68.7172 128.337 68.4704C126.259 68.2237 124.164 68.78 122.482 70.0254C121.305 70.8844 120.376 72.0388 119.789 73.3716C119.202 74.7045 118.978 76.1686 119.139 77.6157C119.301 79.0628 119.843 80.4416 120.71 81.6124C121.576 82.7833 122.738 83.7047 124.076 84.2835C125.414 84.8622 126.881 85.0776 128.329 84.908C129.777 84.7384 131.155 84.1898 132.322 83.3177C133.49 82.4455 134.406 81.2808 134.978 79.9414C135.55 78.6021 135.758 77.1356 135.58 75.6904C135.525 75.2801 135.483 74.9845 135.876 74.707C137.894 73.2651 139.893 71.7991 141.917 70.3451C142.07 70.2614 142.23 70.1908 142.394 70.1339V84.6132L151.342 78.1217C151.595 78.3811 151.505 78.6466 151.505 78.8819C151.505 81.7777 151.505 84.6796 151.505 87.5755C151.51 88.2056 151.39 88.8305 151.152 89.4138C150.913 89.9972 150.56 90.5272 150.115 90.9731C149.669 91.4189 149.138 91.7717 148.554 92.0108C147.971 92.2499 147.345 92.3705 146.714 92.3657C136.448 92.3898 126.177 92.3898 115.903 92.3657C113.239 92.3657 112.139 90.8755 111.034 88.776C110.828 88.3839 111.034 87.9616 111.034 87.5694C111.034 84.8606 111.034 82.1397 111.034 79.449C110.959 77.6396 111.109 75.8279 111.481 74.0554C112.051 71.6182 112.913 69.2584 114.048 67.0269C115.651 63.9845 117.778 61.2479 120.331 58.9426C124.467 55.1684 129.693 52.7988 135.26 52.1736C139.253 51.6547 143.276 51.9443 147.282 51.9986C149.408 52.0288 151.432 54.2429 151.456 56.4027C151.511 62.104 151.456 67.7992 151.493 73.4944C151.498 73.6663 151.458 73.8366 151.376 73.9881C151.295 74.1396 151.174 74.2669 151.028 74.3571C149.263 75.6542 147.505 76.9573 145.53 78.4173Z" fill="#3CA3DA"/>
<path d="M241.968 121.463C242.24 119.883 242.602 118.308 242.753 116.715C242.941 114.613 243.278 112.526 243.762 110.471C244.173 108.818 244.398 107.124 244.433 105.421C244.433 104.281 244.868 103.901 245.991 103.901C248.317 103.901 250.643 103.901 252.969 103.901C253.724 103.901 253.996 104.034 253.99 104.872C253.954 112.156 253.954 119.442 253.99 126.73C253.99 127.508 253.748 127.707 253.017 127.665C252 127.599 250.978 127.599 249.96 127.665C249.066 127.725 248.752 127.472 248.782 126.525C248.831 121.367 248.782 116.214 248.782 111.062V110.127C248.507 110.59 248.356 111.115 248.341 111.653C247.834 114.555 247.302 117.457 246.916 120.377C246.62 122.609 246.088 124.787 245.804 127.014C245.744 127.508 245.55 127.653 245.079 127.653C242.85 127.653 240.621 127.653 238.391 127.653C237.787 127.653 237.6 127.4 237.521 126.899C237.123 124.317 236.869 121.692 236.265 119.159C235.564 116.19 235.498 113.126 234.585 110.175C234.585 110.507 234.543 110.839 234.543 111.165C234.543 116.323 234.543 121.475 234.543 126.633C234.543 127.418 234.344 127.701 233.534 127.653C232.422 127.587 231.305 127.617 230.187 127.653C229.631 127.653 229.408 127.52 229.408 126.911C229.408 119.494 229.408 112.08 229.408 104.667C229.408 104.106 229.547 103.895 230.151 103.901C232.797 103.933 235.441 103.933 238.083 103.901C238.645 103.901 238.893 104.07 238.977 104.607C239.634 108.854 240.302 113.101 240.983 117.349C241.201 118.724 241.46 120.088 241.702 121.457L241.968 121.463Z" fill="#3CA3DA"/>
<path d="M65.9654 115.654C68.4424 116.257 69.5238 117.838 69.7473 120.184C69.9086 121.745 69.7941 123.321 69.409 124.842C69.2018 125.595 68.7611 126.264 68.1501 126.751C67.5391 127.239 66.7891 127.521 66.0077 127.557C61.5854 127.834 57.1571 127.593 52.7168 127.696C52.1126 127.696 51.9737 127.515 51.9797 126.941C51.9797 119.497 51.9797 112.056 51.9797 104.619C51.9797 104.082 52.1187 103.925 52.6684 103.925C56.7101 103.925 60.7578 103.865 64.7994 103.968C67.0891 104.022 68.4242 104.873 68.8653 107.286C69.1664 108.846 69.197 110.445 68.9559 112.016C68.6961 113.862 67.9168 114.749 65.9654 115.654ZM60.3953 122.767H62.3044C64.0564 122.767 64.3886 122.441 64.4249 120.661C64.4672 118.978 63.7845 118.097 62.256 118.037C60.7276 117.976 59.2716 118.037 57.7794 118.037C57.3807 118.037 57.2055 118.157 57.2115 118.58C57.2115 119.786 57.2115 120.993 57.2115 122.199C57.2115 122.652 57.3746 122.803 57.8156 122.803C58.6796 122.748 59.5374 122.767 60.3953 122.767ZM60.1536 108.842C59.3864 108.842 58.6252 108.842 57.8579 108.842C57.3505 108.842 57.1994 109.023 57.2115 109.512C57.2115 110.495 57.2115 111.479 57.2115 112.468C57.2115 112.939 57.3203 113.162 57.8156 113.15C59.187 113.114 60.5524 113.15 61.9177 113.102C62.9931 113.071 63.4462 112.625 63.6153 111.557C63.6939 111.023 63.6939 110.48 63.6153 109.946C63.622 109.795 63.5953 109.643 63.5369 109.503C63.4786 109.363 63.3901 109.237 63.2778 109.134C63.1654 109.032 63.0319 108.955 62.8867 108.91C62.7414 108.865 62.588 108.852 62.4373 108.872C61.6761 108.854 60.9148 108.842 60.1536 108.842Z" fill="#29479E"/>
<path d="M129.871 114.803V119.931C129.871 122.217 129.871 124.51 129.871 126.796C129.871 127.436 129.75 127.707 129.043 127.677C127.805 127.617 126.56 127.635 125.316 127.677C124.79 127.677 124.597 127.532 124.603 126.983C124.603 119.511 124.603 112.036 124.603 104.559C124.603 104.058 124.754 103.895 125.249 103.913C126.427 103.943 127.611 103.955 128.789 103.913C129.034 103.887 129.28 103.936 129.496 104.053C129.712 104.171 129.887 104.351 129.998 104.571C132.354 108.191 134.722 111.81 137.102 115.43C137.392 115.871 137.706 116.299 138.008 116.776C138.31 116.408 138.19 116.082 138.19 115.786C138.19 112.166 138.226 108.546 138.19 104.927C138.19 104.106 138.419 103.913 139.199 103.955C140.371 104.028 141.555 103.998 142.733 103.955C143.24 103.955 143.452 104.052 143.452 104.619C143.452 112.092 143.452 119.569 143.452 127.05C143.452 127.605 143.252 127.756 142.727 127.726C141.966 127.644 141.198 127.644 140.437 127.726C138.957 127.973 138.159 127.285 137.416 126.091C135.223 122.622 132.916 119.219 130.644 115.798C130.479 115.404 130.212 115.06 129.871 114.803Z" fill="#29479E"/>
<path d="M195.256 127.973C194.217 127.913 192.791 128.106 191.384 127.774C190.294 127.554 189.277 127.067 188.424 126.356C187.57 125.645 186.908 124.732 186.496 123.702C186.133 122.621 185.929 121.493 185.892 120.353C185.521 116.784 185.605 113.181 186.14 109.632C186.563 106.99 187.819 105.114 190.399 104.094C191.121 103.833 191.879 103.687 192.646 103.66C195.365 103.467 198.084 103.286 200.778 104.076C203.756 104.951 205.007 107.231 205.369 110.013C205.85 113.763 205.868 117.558 205.424 121.312C205.122 124.124 203.859 126.254 201.267 127.43C200.252 127.87 199.146 128.06 198.041 127.985C197.232 127.943 196.434 127.973 195.256 127.973ZM200.234 115.84C200.271 114.38 200.215 112.919 200.065 111.467C199.866 110.019 199.183 109.053 197.951 108.884C196.662 108.706 195.357 108.67 194.06 108.776C192.06 108.909 191.444 110.206 191.257 111.877C190.949 114.462 190.949 117.074 191.257 119.659C191.517 121.729 192.048 122.676 194.308 122.797C195.259 122.863 196.214 122.863 197.165 122.797C199.014 122.652 199.805 121.855 200.065 120.027C200.209 118.637 200.266 117.238 200.234 115.84Z" fill="#3CA3DA"/>
<path d="M155.534 103.515C157.091 103.464 158.649 103.583 160.18 103.871C162.367 104.402 163.805 105.596 164.282 107.853C164.495 109.038 164.638 110.234 164.711 111.436C164.766 112.039 164.512 112.22 163.938 112.208C162.572 112.208 161.201 112.208 159.83 112.208C159.304 112.208 159.123 112.027 159.117 111.484C159.117 109.349 158.446 108.715 156.265 108.679C155.438 108.658 154.611 108.694 153.788 108.788C152.997 108.89 152.453 109.156 152.296 109.994C152.103 111.038 152.423 111.877 153.251 112.281C154.333 112.731 155.455 113.077 156.604 113.312C158.887 113.916 161.213 114.477 163.05 116.112C164.469 117.373 164.747 119.092 164.82 120.842C164.924 122.367 164.719 123.898 164.216 125.342C164.019 125.801 163.722 126.209 163.347 126.538C162.972 126.867 162.527 127.108 162.047 127.243C160.599 127.735 159.081 127.987 157.552 127.991C155.365 127.991 153.178 128.081 150.997 127.653C148.629 127.188 146.454 124.944 146.49 122.32C146.527 119.695 146.43 119.726 149.088 119.726H150.043C150.586 119.726 151.215 119.587 151.644 119.816C152.073 120.045 151.843 120.793 151.958 121.306C151.997 121.672 152.163 122.013 152.428 122.269C152.693 122.525 153.04 122.68 153.408 122.706C154.893 122.906 156.397 122.916 157.884 122.736C158.489 122.652 159.093 122.591 159.244 121.916C159.407 121.143 159.534 120.317 158.821 119.695C158.312 119.261 157.714 118.943 157.069 118.766C155.033 118.163 152.931 117.765 150.955 116.956C147.892 115.708 146.871 114.187 146.889 110.923C146.865 110.037 146.902 109.15 146.998 108.269C147.421 105.18 149.167 104.227 151.831 103.726C153.059 103.568 154.296 103.497 155.534 103.515Z" fill="#3CA3DA"/>
<path d="M87.3578 116.999C89.7743 117.886 90.5839 119.611 90.5658 121.825C90.5658 123.508 90.5658 125.192 90.5658 126.881C90.5658 127.424 90.4449 127.683 89.8287 127.665C88.4936 127.629 87.1524 127.623 85.8173 127.665C85.1406 127.665 85.044 127.394 85.044 126.821C85.044 124.878 85.044 122.941 84.9956 120.999C84.9594 119.792 84.5486 119.4 83.3645 119.376C81.8723 119.34 80.3438 119.376 78.8758 119.322C78.3079 119.322 78.2052 119.527 78.2112 120.04C78.2112 122.326 78.2112 124.619 78.2112 126.905C78.2112 127.508 78.0602 127.683 77.4681 127.665C76.2599 127.629 74.9851 127.635 73.7406 127.665C73.2392 127.665 73.0036 127.575 73.0036 126.99C73.0036 119.521 73.0036 112.048 73.0036 104.571C73.0036 103.998 73.2211 103.895 73.7285 103.901C77.6796 103.901 81.6306 103.901 85.5756 103.901C86.7886 103.916 87.977 104.245 89.0252 104.854C89.3877 105.065 89.3575 105.415 89.5327 105.681C90.0686 106.376 90.3804 107.218 90.4268 108.094C90.4268 109.614 90.6805 111.111 90.4268 112.649C90.1429 114.501 89.6173 116.245 87.3578 116.999ZM81.0446 114.423V114.35C81.9931 114.35 82.9476 114.35 83.8961 114.35C84.0801 114.357 84.2636 114.326 84.4349 114.258C84.6063 114.191 84.7618 114.089 84.8917 113.959C85.0217 113.828 85.1232 113.673 85.1899 113.501C85.2567 113.33 85.2872 113.146 85.2796 112.963C85.3884 112.049 85.364 111.124 85.2071 110.218C85.1732 109.934 85.0365 109.672 84.8228 109.482C84.6092 109.292 84.3333 109.187 84.0471 109.186C82.271 108.993 80.4888 109.144 78.7187 109.09C78.2414 109.09 78.2233 109.349 78.2293 109.693C78.2293 111.062 78.2293 112.426 78.2293 113.789C78.2293 114.272 78.3502 114.471 78.8335 114.441C79.5826 114.381 80.3136 114.405 81.0446 114.405V114.423Z" fill="#29479E"/>
<path d="M222.672 116.999C225.433 118.03 226.158 119.032 226.23 121.891C226.278 123.575 226.23 125.258 226.23 126.947C226.23 127.484 226.061 127.677 225.523 127.665C224.182 127.665 222.847 127.635 221.512 127.665C220.908 127.665 220.763 127.424 220.757 126.869C220.757 124.872 220.847 122.869 220.672 120.866C220.685 120.496 220.553 120.136 220.303 119.863C220.054 119.59 219.707 119.426 219.337 119.406C217.654 119.281 215.966 119.247 214.28 119.303C213.706 119.303 213.839 119.738 213.839 120.051C213.839 122.278 213.803 124.504 213.839 126.73C213.839 127.412 213.718 127.713 212.963 127.671C211.822 127.611 210.668 127.635 209.526 127.671C208.97 127.671 208.734 127.55 208.734 126.935C208.734 119.494 208.734 112.054 208.734 104.613C208.734 104.058 208.934 103.919 209.453 103.925C213.374 103.925 217.307 103.804 221.204 103.973C224.091 104.106 225.777 104.878 226.037 108.733C226.149 109.966 226.149 111.205 226.037 112.438C225.88 114.549 225.112 116.299 222.672 116.999ZM216.679 114.441C217.712 114.398 218.66 114.477 219.615 114.356C219.97 114.341 220.306 114.195 220.558 113.944C220.809 113.694 220.958 113.359 220.974 113.005C221.098 112.124 221.098 111.231 220.974 110.35C220.957 110.026 220.813 109.721 220.574 109.501C220.335 109.281 220.018 109.164 219.693 109.174C218.582 109.132 217.47 109.095 216.359 109.089C213.87 109.089 213.851 109.089 213.876 111.545C213.876 112.456 213.489 113.638 214.027 114.217C214.564 114.797 215.827 114.29 216.679 114.417V114.441Z" fill="#3CA3DA"/>
<path d="M103.24 103.901C104.382 103.901 105.536 103.98 106.678 103.901C107.524 103.829 107.753 104.215 107.935 104.915C108.817 108.36 109.747 111.792 110.629 115.237C111.632 119.104 112.586 122.99 113.65 126.851C113.867 127.653 113.571 127.689 112.949 127.683C111.517 127.683 110.085 127.683 108.654 127.683C108.122 127.683 107.923 127.533 107.747 127.002C107.391 125.946 107.144 124.856 107.01 123.75C106.956 123.261 106.769 123.068 106.231 123.074C104.195 123.11 102.153 123.074 100.117 123.074C99.5553 123.074 99.3559 123.261 99.2532 123.81C99.0538 124.866 98.7155 125.898 98.492 126.953C98.3772 127.484 98.1537 127.69 97.5979 127.677C96.2265 127.641 94.8551 127.629 93.4898 127.677C92.7769 127.677 92.7467 127.43 92.8494 126.839C93.2844 124.426 94.2751 122.151 94.7403 119.756C95.3082 116.8 96.5527 114.031 97.0723 111.093C97.326 109.723 97.7731 108.42 98.0449 107.063C98.2322 106.109 98.8786 105.253 98.7759 104.215C98.7336 103.775 99.1928 103.925 99.4344 103.919C100.685 103.889 101.96 103.901 103.24 103.901ZM105.554 117.832C104.781 114.881 104.032 112.046 103.283 109.21C102.371 111.925 101.658 114.64 100.896 117.331C100.745 117.88 101.029 117.832 101.362 117.832H105.554Z" fill="#29479E"/>
<path d="M172.535 118.513C172.535 115.78 172.535 113.041 172.535 110.308C172.535 109.542 172.372 109.234 171.538 109.283C170.172 109.355 168.801 109.283 167.43 109.283C166.946 109.283 166.65 109.216 166.662 108.619C166.699 107.249 166.693 105.88 166.662 104.516C166.662 103.998 166.868 103.877 167.339 103.877C172.575 103.877 177.801 103.877 183.016 103.877C183.445 103.877 183.735 103.925 183.729 104.48C183.729 105.783 183.739 107.087 183.759 108.39C183.759 109.096 183.5 109.319 182.799 109.289C181.53 109.24 180.243 109.361 178.981 109.252C177.936 109.162 177.772 109.572 177.772 110.459C177.809 115.798 177.772 121.144 177.809 126.489C177.809 127.352 177.603 127.665 176.709 127.605C175.564 127.539 174.417 127.539 173.272 127.605C172.619 127.635 172.462 127.382 172.468 126.778C172.547 124.051 172.535 121.282 172.535 118.513Z" fill="#3CA3DA"/>
<path d="M115.927 115.738C115.927 112.082 115.927 108.426 115.927 104.77C115.927 104.04 116.127 103.847 116.834 103.883C118.009 103.946 119.186 103.946 120.362 103.883C121.081 103.847 121.274 104.052 121.268 104.776C121.232 109.258 121.268 113.741 121.268 118.224C121.268 121.083 121.268 123.943 121.268 126.803C121.268 127.466 121.075 127.695 120.404 127.671C119.196 127.623 117.987 127.617 116.779 127.671C116.084 127.701 115.933 127.454 115.939 126.809C115.927 123.11 115.927 119.412 115.927 115.738Z" fill="#29479E"/>
<path d="M127.321 81.7295C125.971 81.6997 124.685 81.1444 123.738 80.1821C122.792 79.2198 122.259 77.9263 122.253 76.5773C122.308 75.2482 122.866 73.9894 123.813 73.0539C124.76 72.1183 126.026 71.5752 127.357 71.5337C128.035 71.5344 128.705 71.6694 129.329 71.9307C129.954 72.192 130.52 72.5744 130.996 73.0559C131.471 73.5374 131.846 74.1083 132.099 74.7355C132.352 75.3628 132.477 76.0339 132.468 76.71C132.464 77.3781 132.327 78.0386 132.065 78.6533C131.803 79.2681 131.422 79.8249 130.943 80.2917C130.464 80.7584 129.898 81.1258 129.276 81.3726C128.655 81.6194 127.99 81.7407 127.321 81.7295Z" fill="#29479E"/>
<path d="M177.615 78.6043C176.77 76.191 176.002 74.0373 175.199 71.8654C174.993 71.2621 175.024 71.063 175.755 71.2621C177.658 71.7568 179.573 72.1791 181.488 72.6135C181.905 72.71 182.195 72.7945 181.82 73.265L177.615 78.6043Z" fill="#3CA3DA"/>
<path d="M250.075 135.098C250.075 136.196 250.075 137.294 250.075 138.392C250.075 138.832 250.033 139.098 249.471 139.086C248.909 139.074 248.964 138.754 248.964 138.398C248.964 136.775 248.964 135.158 248.964 133.541C248.964 133.27 248.776 132.847 249.284 132.787C249.467 132.732 249.662 132.739 249.841 132.805C250.02 132.872 250.172 132.994 250.275 133.155C250.879 134.145 251.568 135.11 252.22 136.087C252.353 136.286 252.425 136.546 252.824 136.691C252.824 135.593 252.824 134.531 252.824 133.469C252.824 133.034 252.824 132.6 253.428 132.618C254.032 132.636 253.893 133.113 253.899 133.463C253.899 135.146 253.899 136.829 253.899 138.506C253.899 138.784 253.972 139.14 253.646 139.261C253.32 139.381 253.042 139.104 252.885 138.838L250.335 135.068L250.075 135.098Z" fill="#29479E"/>
<path d="M239.497 135.961C239.557 138.507 237.642 139.285 236.017 139.188C234.392 139.092 233.268 137.777 233.377 135.092C233.425 133.915 235.34 132.323 236.627 132.383C238.18 132.455 239.618 134.247 239.497 135.961ZM236.476 138.09C237.684 138.09 238.446 137.197 238.446 135.876C238.446 134.555 237.582 133.59 236.386 133.626C235.189 133.662 234.446 134.591 234.483 135.924C234.519 137.258 235.268 138.114 236.506 138.114L236.476 138.09Z" fill="#29479E"/>
<path d="M169.593 139.098C167.895 139.231 166.391 137.535 166.409 136.528C166.457 134 167.532 132.594 169.526 132.576C171.659 132.576 172.547 133.922 172.637 135.852C172.716 137.596 171.61 139.164 169.593 139.098ZM167.623 135.87C167.623 137.276 168.3 138.078 169.514 138.09C170.728 138.102 171.544 137.216 171.538 135.864C171.532 134.513 170.777 133.656 169.605 133.632C168.336 133.602 167.623 134.404 167.623 135.87Z" fill="#29479E"/>
<path d="M52.0341 135.876C52.0341 135.049 52.0341 134.223 52.0341 133.396C52.0341 132.932 52.1187 132.685 52.6382 132.733C53.6109 132.823 54.6258 132.528 55.5562 132.944C56.837 133.517 57.429 134.151 57.4652 135.755C57.5348 136.408 57.392 137.065 57.0579 137.63C56.7238 138.196 56.2163 138.638 55.6106 138.893C54.5896 139.297 53.4175 139.019 52.312 139.025C51.9133 139.025 52.0341 138.669 52.028 138.422C52.022 137.589 52.0341 136.733 52.0341 135.876ZM53.0309 135.798C53.0309 136.371 53.0309 136.944 53.0309 137.511C53.0309 137.861 53.1517 138.012 53.5202 138.048C56.0153 138.289 56.4805 137.052 56.2086 135.086C56.0576 133.982 55.0427 133.475 53.5625 133.698C52.5234 133.849 53.2182 134.712 53.043 135.224C53.0085 135.414 53.0044 135.607 53.0309 135.798Z" fill="#29479E"/>
<path d="M82.4885 137.264C82.4885 138.905 82.3556 139.074 80.6761 139.074C79.6309 139.074 78.5314 139.164 77.9031 138.078C77.5413 137.309 77.3477 136.472 77.3352 135.623C77.2023 134.416 77.9031 133.722 78.7429 133.137C79.2003 132.811 79.7337 132.608 80.2921 132.547C80.8505 132.486 81.4154 132.568 81.9327 132.787C82.3314 132.932 82.3193 133.24 82.2831 133.565C82.2468 133.891 81.9025 133.813 81.679 133.843C81.5241 133.861 81.3673 133.836 81.2259 133.771C80.8497 133.593 80.4247 133.548 80.0193 133.641C79.6139 133.734 79.2516 133.96 78.9906 134.283C78.7089 134.706 78.5428 135.196 78.5089 135.703C78.475 136.21 78.5744 136.717 78.7972 137.173C78.9785 137.513 79.2637 137.787 79.6114 137.954C79.9591 138.121 80.3512 138.173 80.7305 138.102C81.0446 138.102 81.4917 138.145 81.4736 137.602C81.4736 137.222 81.6427 136.715 80.948 136.727C80.5794 136.727 80.5915 136.455 80.5794 136.19C80.5794 135.828 80.7969 135.81 81.0748 135.78C82.4885 135.635 82.4885 135.629 82.4885 137.264Z" fill="#29479E"/>
<path d="M198.917 134.905C198.917 134.331 198.96 133.752 198.917 133.185C198.875 132.618 199.304 132.691 199.521 132.648C199.739 132.606 200.011 132.823 200.011 133.185C200.09 134.675 200.017 136.169 199.793 137.644C199.736 137.914 199.612 138.166 199.433 138.377C199.253 138.587 199.024 138.75 198.766 138.85C196.531 139.707 194.749 138.537 194.833 136.31C194.87 135.291 194.833 134.271 194.833 133.252C194.833 132.956 194.791 132.6 195.268 132.648C195.746 132.697 195.872 132.817 195.872 133.294C195.793 134.501 195.83 135.713 195.981 136.914C195.998 137.107 196.056 137.294 196.151 137.463C196.247 137.632 196.377 137.779 196.534 137.893C196.691 138.007 196.87 138.087 197.061 138.126C197.251 138.165 197.447 138.163 197.636 138.12C197.821 138.112 198.002 138.067 198.168 137.986C198.334 137.905 198.481 137.79 198.601 137.65C198.721 137.51 198.81 137.346 198.863 137.169C198.917 136.993 198.933 136.807 198.911 136.624C198.911 136.057 198.911 135.484 198.911 134.911L198.917 134.905Z" fill="#29479E"/>
<path d="M120.881 138.941C119.836 139.393 119.612 138.507 119.407 137.97C119.238 137.529 119.075 137.475 118.694 137.469C117.746 137.469 116.761 137.252 116.592 138.675C116.525 139.243 115.951 139.007 115.42 139.019C115.843 137.813 116.254 136.721 116.628 135.599C116.822 135.097 116.976 134.58 117.087 134.054C117.16 133.687 117.315 133.34 117.54 133.041C117.605 132.931 117.7 132.842 117.813 132.785C117.927 132.727 118.054 132.703 118.181 132.715C118.308 132.727 118.428 132.775 118.529 132.853C118.629 132.931 118.706 133.036 118.749 133.155C119.178 134.081 119.555 135.029 119.878 135.997C120.156 136.998 120.549 137.964 120.881 138.941ZM118.193 134.265C117.903 135.001 117.709 135.472 117.528 135.991C117.45 136.196 117.353 136.461 117.697 136.491C118.064 136.576 118.447 136.557 118.803 136.437C119.051 136.292 118.761 135.888 118.67 135.605C118.549 135.225 118.404 134.857 118.193 134.265Z" fill="#29479E"/>
<path d="M157.178 134C156.428 133.879 155.794 133.517 155.075 133.607C154.646 133.662 154.235 133.74 154.151 134.259C154.066 134.778 154.435 134.983 154.846 135.134C155.353 135.315 155.879 135.454 156.362 135.683C156.755 135.861 157.082 136.158 157.299 136.531C157.515 136.904 157.61 137.335 157.57 137.764C157.437 138.404 156.459 139.037 155.583 139.043C154.979 139.043 154.374 139.043 153.77 139.043C153.432 139.043 153.1 139.043 153.039 138.627C153.003 138.361 152.985 137.969 153.136 137.819C153.263 137.726 153.417 137.679 153.574 137.686C153.731 137.693 153.881 137.752 154 137.855C154.441 138.106 154.954 138.201 155.456 138.126C155.909 138.126 156.302 137.945 156.368 137.463C156.434 136.98 156.102 136.72 155.685 136.558L154.362 136.039C153.571 135.719 152.949 135.23 153.033 134.289C153.118 133.348 153.813 132.847 154.737 132.648C155.46 132.541 156.198 132.628 156.875 132.902C157.528 133.101 157.141 133.577 157.178 134Z" fill="#29479E"/>
<path d="M104.044 136.419C104.044 136.039 104.014 135.653 104.044 135.273C104.147 134.295 104.08 133.463 102.733 133.752C102.34 133.831 102.28 133.541 102.274 133.216C102.268 132.89 102.449 132.733 102.799 132.739C104.008 132.739 105.216 132.739 106.424 132.739C106.793 132.739 106.932 132.866 106.926 133.24C106.92 133.614 106.859 133.801 106.454 133.771C106.237 133.771 106.007 133.771 105.79 133.771C105.186 133.698 104.999 133.903 105.023 134.507C105.059 135.81 105.023 137.113 105.023 138.422C105.023 138.82 104.986 139.074 104.467 139.062C103.947 139.05 104.014 138.748 104.014 138.428L104.044 136.419Z" fill="#29479E"/>
<path d="M210.946 136.407C210.946 135.738 210.946 135.068 210.946 134.404C210.946 133.897 210.782 133.716 210.287 133.765C210.001 133.783 209.715 133.783 209.429 133.765C209.073 133.765 209.061 133.499 209.055 133.228C209.049 132.956 209.133 132.745 209.478 132.745C210.752 132.745 212.021 132.745 213.296 132.745C213.64 132.745 213.725 132.938 213.719 133.234C213.712 133.529 213.719 133.753 213.338 133.765C213.179 133.783 213.019 133.783 212.861 133.765C212.039 133.614 211.912 134.042 211.942 134.736C212 135.815 212 136.897 211.942 137.976C211.942 138.344 212.335 139.007 211.471 139.05C210.607 139.092 211 138.404 210.958 138.03C210.92 137.49 210.916 136.948 210.946 136.407Z" fill="#29479E"/>
<path d="M131.031 135.418C131.031 135.544 131.031 135.671 131.031 135.798C131.079 136.516 130.735 137.409 131.182 137.909C131.629 138.41 132.499 138.042 133.181 138.078C133.604 138.078 133.973 138.151 133.961 138.682C133.949 139.213 133.526 139.044 133.242 139.05C132.384 139.05 131.526 139.05 130.674 139.05C130.191 139.05 130.022 138.947 130.016 138.446C129.979 136.908 130.209 135.357 129.841 133.831C129.774 133.566 129.992 133.354 130.01 133.113C130.046 132.649 130.372 132.781 130.614 132.763C130.982 132.733 131.013 132.968 131.013 133.246C131.031 133.958 131.031 134.688 131.031 135.418Z" fill="#29479E"/>
<path d="M182.068 136.039C182.068 134.995 182.068 134.139 182.068 133.276C182.068 132.962 182.068 132.727 182.509 132.733C182.95 132.739 183.113 132.824 183.083 133.264C183.083 134.567 183.083 135.87 183.083 137.173C183.083 137.867 183.228 138.187 183.977 138.096C184.454 138.069 184.932 138.069 185.409 138.096C185.486 138.087 185.564 138.094 185.638 138.117C185.712 138.141 185.78 138.18 185.837 138.232C185.895 138.284 185.94 138.348 185.971 138.42C186.001 138.491 186.015 138.568 186.013 138.645C186.013 139.092 185.669 139.013 185.409 139.05H185.312C184.273 139.05 182.896 139.394 182.291 138.869C181.687 138.344 182.153 136.908 182.068 136.039Z" fill="#29479E"/>
<path d="M66.8052 135.888C66.8052 135.032 66.8052 134.175 66.8052 133.318C66.8052 132.938 66.8776 132.715 67.3247 132.715C67.7718 132.715 67.9288 132.86 67.9288 133.318C67.9288 135.032 67.9288 136.745 67.9288 138.458C67.9411 138.552 67.9329 138.647 67.9049 138.737C67.8769 138.827 67.8297 138.909 67.7665 138.979C67.7033 139.049 67.6257 139.105 67.539 139.142C67.4523 139.179 67.3586 139.197 67.2643 139.194C66.7327 139.243 66.7991 138.784 66.7991 138.452C66.7991 137.608 66.8052 136.745 66.8052 135.888Z" fill="#29479E"/>
<path d="M93.0669 135.888C93.0669 136.721 93.0669 137.547 93.0669 138.374C93.0669 138.736 93.0669 139.055 92.5473 139.055C92.0278 139.055 91.9794 138.838 91.9855 138.422C91.9855 136.739 91.9855 135.049 91.9855 133.366C91.9855 132.956 92.0338 132.721 92.5413 132.727C93.0487 132.733 93.0669 133.04 93.0669 133.408C93.0669 134.235 93.0669 135.061 93.0669 135.888Z" fill="#29479E"/>
<path d="M224.067 135.961C224.067 136.787 224.067 137.614 224.067 138.44C224.067 138.887 223.94 139.044 223.463 139.044C222.986 139.044 222.962 138.802 222.962 138.44C222.962 136.723 222.962 135.004 222.962 133.282C222.962 132.89 223.064 132.709 223.493 132.709C223.922 132.709 224.061 132.866 224.055 133.27C224.067 134.175 224.067 135.098 224.067 135.961Z" fill="#29479E"/>
<path d="M60.3953 122.766C59.5374 122.766 58.6796 122.766 57.8217 122.766C57.3746 122.766 57.2176 122.615 57.2176 122.163C57.2176 120.956 57.2176 119.75 57.2176 118.543C57.2176 118.121 57.3867 117.994 57.7854 118C59.2776 118 60.7699 117.958 62.2621 118C63.7543 118.042 64.4732 118.941 64.4309 120.625C64.3947 122.404 64.0624 122.73 62.3104 122.73L60.3953 122.766Z" fill="#FBFDFE"/>
<path d="M60.1536 108.842C60.9148 108.842 61.676 108.842 62.4433 108.842C62.594 108.822 62.7475 108.835 62.8927 108.88C63.0379 108.925 63.1714 109.002 63.2838 109.104C63.3962 109.206 63.4846 109.332 63.543 109.473C63.6013 109.613 63.628 109.764 63.6214 109.916C63.6999 110.45 63.6999 110.993 63.6214 111.527C63.4522 112.595 63.0172 113.041 61.9237 113.071C60.5584 113.12 59.1931 113.071 57.8217 113.12C57.2961 113.12 57.1752 112.908 57.2175 112.438C57.2175 111.448 57.2175 110.465 57.2175 109.482C57.2175 108.993 57.3565 108.788 57.864 108.812C58.6312 108.842 59.3924 108.812 60.1597 108.812L60.1536 108.842Z" fill="#FBFDFE"/>
<path d="M200.234 115.841C200.267 117.234 200.213 118.629 200.071 120.015C199.811 121.825 199.02 122.64 197.171 122.785C196.22 122.851 195.265 122.851 194.314 122.785C192.054 122.664 191.523 121.717 191.263 119.647C190.955 117.062 190.955 114.45 191.263 111.865C191.45 110.194 192.066 108.897 194.066 108.764C195.363 108.658 196.668 108.694 197.957 108.872C199.165 109.065 199.872 110.007 200.071 111.455C200.219 112.912 200.274 114.377 200.234 115.841Z" fill="#FBFDFE"/>
<path d="M81.0446 114.405C80.3136 114.405 79.5826 114.405 78.8516 114.405C78.3381 114.405 78.2112 114.236 78.2475 113.753C78.2475 112.39 78.2475 111.026 78.2475 109.657C78.2475 109.313 78.2475 109.053 78.7368 109.053C80.5069 109.108 82.2891 108.957 84.0653 109.15C84.3514 109.151 84.6273 109.256 84.8409 109.446C85.0546 109.636 85.1913 109.898 85.2252 110.181C85.3821 111.088 85.4065 112.013 85.2977 112.926C85.3053 113.11 85.2748 113.294 85.2081 113.465C85.1413 113.636 85.0398 113.792 84.9099 113.922C84.7799 114.053 84.6244 114.155 84.4531 114.222C84.2817 114.29 84.0983 114.321 83.9142 114.314C82.9657 114.344 82.0112 114.314 81.0627 114.314L81.0446 114.405Z" fill="#FBFDFE"/>
<path d="M216.679 114.417C215.827 114.29 214.613 114.833 214.015 114.193C213.416 113.554 213.87 112.432 213.863 111.521C213.863 109.065 213.863 109.053 216.346 109.065C217.458 109.065 218.57 109.108 219.681 109.15C220.006 109.14 220.322 109.257 220.562 109.477C220.801 109.697 220.945 110.002 220.962 110.326C221.086 111.207 221.086 112.1 220.962 112.981C220.946 113.335 220.797 113.67 220.545 113.92C220.294 114.171 219.958 114.317 219.603 114.332C218.66 114.453 217.712 114.374 216.679 114.417Z" fill="#FBFDFE"/>
<path d="M105.548 117.831H101.356C101.023 117.831 100.751 117.879 100.89 117.33C101.652 114.634 102.364 111.901 103.277 109.21C104.026 112.045 104.775 114.881 105.548 117.831Z" fill="#FBFDFE"/>
<path d="M236.506 138.114C235.298 138.114 234.543 137.342 234.513 135.948C234.483 134.555 235.244 133.692 236.416 133.65C237.588 133.608 238.482 134.567 238.476 135.9C238.47 137.233 237.691 138.078 236.506 138.114Z" fill="#FBFDFE"/>
<path d="M167.623 135.87C167.623 134.404 168.336 133.602 169.605 133.632C170.777 133.632 171.532 134.531 171.538 135.864C171.544 137.197 170.734 138.114 169.514 138.114C168.294 138.114 167.617 137.276 167.623 135.87Z" fill="#FBFDFE"/>
<path d="M53.0309 135.798C52.9971 135.598 52.9971 135.394 53.0309 135.194C53.2061 134.681 52.5113 133.819 53.5505 133.668C55.0306 133.445 56.0455 133.951 56.1966 135.055C56.4684 137.022 56.0032 138.259 53.5082 138.018C53.1396 137.982 53.0128 137.831 53.0188 137.481C53.043 136.944 53.0309 136.371 53.0309 135.798Z" fill="#FBFDFE"/>
<path d="M118.193 134.265C118.404 134.868 118.549 135.224 118.67 135.604C118.761 135.888 119.051 136.292 118.803 136.437C118.447 136.557 118.064 136.576 117.697 136.491C117.353 136.461 117.45 136.196 117.528 135.991C117.74 135.49 117.903 135.001 118.193 134.265Z" fill="#FBFDFE"/>
</svg>
