<svg width="59" height="59" viewBox="0 0 59 59" fill="none" xmlns="http://www.w3.org/2000/svg">
<path d="M19.6667 29.9917H36.875" stroke="white" stroke-width="3" stroke-miterlimit="10" stroke-linecap="round" stroke-linejoin="round"/>
<path d="M19.6667 39.825H30.4342" stroke="white" stroke-width="3" stroke-miterlimit="10" stroke-linecap="round" stroke-linejoin="round"/>
<path d="M24.5833 14.75H34.4167C39.3333 14.75 39.3333 12.2917 39.3333 9.83332C39.3333 4.91666 36.875 4.91666 34.4167 4.91666H24.5833C22.125 4.91666 19.6667 4.91666 19.6667 9.83332C19.6667 14.75 22.125 14.75 24.5833 14.75Z" stroke="white" stroke-width="3" stroke-miterlimit="10" stroke-linecap="round" stroke-linejoin="round"/>
<path d="M39.3333 9.88251C47.5196 10.325 51.625 13.3488 51.625 24.5833V39.3333C51.625 49.1667 49.1667 54.0833 36.875 54.0833H22.125C9.83333 54.0833 7.375 49.1667 7.375 39.3333V24.5833C7.375 13.3733 11.4804 10.325 19.6667 9.88251" stroke="white" stroke-width="3" stroke-miterlimit="10" stroke-linecap="round" stroke-linejoin="round"/>
</svg>
