<svg width="59" height="59" viewBox="0 0 59 59" fill="none" xmlns="http://www.w3.org/2000/svg">
    <path d="M20.8959 46.6345H19.6667C9.83335 46.6345 4.91669 44.1762 4.91669 31.8845V19.5928C4.91669 9.7595 9.83335 4.84283 19.6667 4.84283H39.3334C49.1667 4.84283 54.0834 9.7595 54.0834 19.5928V31.8845C54.0834 41.7178 49.1667 46.6345 39.3334 46.6345H38.1042C37.3421 46.6345 36.6046 47.0033 36.1375 47.6179L32.45 52.5346C30.8275 54.6979 28.1725 54.6979 26.55 52.5346L22.8625 47.6179C22.4692 47.0771 21.5842 46.6345 20.8959 46.6345Z" stroke="white" stroke-width="3" stroke-miterlimit="10" stroke-linecap="round" stroke-linejoin="round"/>
    <path d="M19.6667 21.3875L14.75 26.3042L19.6667 31.2209" stroke="white" stroke-width="3" stroke-miterlimit="10" stroke-linecap="round" stroke-linejoin="round"/>
    <path d="M39.3333 21.3875L44.25 26.3042L39.3333 31.2209" stroke="white" stroke-width="3" stroke-miterlimit="10" stroke-linecap="round" stroke-linejoin="round"/>
    <path d="M31.9584 20.5762L27.0417 32.0321" stroke="white" stroke-width="3" stroke-miterlimit="10" stroke-linecap="round" stroke-linejoin="round"/>
</svg>
