<svg width="59" height="59" viewBox="0 0 59 59" fill="none" xmlns="http://www.w3.org/2000/svg">
    <path d="M22.125 54.0834H36.875C49.1667 54.0834 54.0833 49.1667 54.0833 36.875V22.125C54.0833 9.83335 49.1667 4.91669 36.875 4.91669H22.125C9.83332 4.91669 4.91666 9.83335 4.91666 22.125V36.875C4.91666 49.1667 9.83332 54.0834 22.125 54.0834Z" stroke="white" stroke-width="3" stroke-linecap="round" stroke-linejoin="round"/>
    <path d="M29.5 38.1041C34.2519 38.1041 38.1042 34.2519 38.1042 29.5C38.1042 24.748 34.2519 20.8958 29.5 20.8958C24.748 20.8958 20.8958 24.748 20.8958 29.5C20.8958 34.2519 24.748 38.1041 29.5 38.1041Z" stroke="white" stroke-width="3" stroke-linecap="round" stroke-linejoin="round"/>
    <path d="M43.3555 17.2084H43.3839" stroke="white" stroke-width="3" stroke-linecap="round" stroke-linejoin="round"/>
</svg>
