<svg width="396" height="396" viewBox="0 0 396 396" fill="none" xmlns="http://www.w3.org/2000/svg">
<circle cx="202.568" cy="197.568" r="168.568" stroke="black" stroke-width="2" stroke-dasharray="45 45"/>
<circle cx="198" cy="198" r="197.5" stroke="black" stroke-dasharray="100 100"/>
<circle cx="202" cy="197" r="143" fill="url(#paint0_linear_349_7408)"/>
<path d="M190.632 223.744C186.024 230.08 179.56 233.248 171.24 233.248C162.92 233.248 156.424 230.08 151.752 223.744C147.144 217.408 144.84 208.96 144.84 198.4C144.84 187.84 147.144 179.392 151.752 173.056C156.424 166.72 162.92 163.552 171.24 163.552C179.56 163.552 186.024 166.72 190.632 173.056C195.304 179.392 197.64 187.84 197.64 198.4C197.64 208.96 195.304 217.408 190.632 223.744ZM171.24 222.496C176.232 222.496 180.04 220.416 182.664 216.256C185.288 212.096 186.6 206.144 186.6 198.4C186.6 190.656 185.288 184.704 182.664 180.544C180.04 176.384 176.232 174.304 171.24 174.304C166.312 174.304 162.504 176.384 159.816 180.544C157.192 184.704 155.88 190.656 155.88 198.4C155.88 206.144 157.192 212.096 159.816 216.256C162.504 220.416 166.312 222.496 171.24 222.496ZM255.517 209.632V219.904H247.837V232H236.701V219.904H203.677V209.632L226.813 164.8H238.813L215.677 209.632H236.701V192.16H247.837V209.632H255.517Z" fill="white"/>
<path d="M273.68 154.336V160.864H262.864V171.68H256.336V160.864H245.52V154.336H256.336V143.52H262.864V154.336H273.68Z" fill="white"/>
<path d="M184.16 252L179.28 260.44V266H176.98V260.44L172.1 252H174.72L178.14 258.2L181.54 252H184.16ZM185.233 261.92C185.393 262.68 185.76 263.267 186.333 263.68C186.907 264.08 187.607 264.28 188.433 264.28C189.58 264.28 190.44 263.867 191.013 263.04L192.793 264.08C191.807 265.533 190.347 266.26 188.413 266.26C186.787 266.26 185.473 265.767 184.473 264.78C183.473 263.78 182.973 262.52 182.973 261C182.973 259.507 183.467 258.26 184.453 257.26C185.44 256.247 186.707 255.74 188.253 255.74C189.72 255.74 190.92 256.253 191.853 257.28C192.8 258.307 193.273 259.553 193.273 261.02C193.273 261.247 193.247 261.547 193.193 261.92H185.233ZM185.213 260.16H191.093C190.947 259.347 190.607 258.733 190.073 258.32C189.553 257.907 188.94 257.7 188.233 257.7C187.433 257.7 186.767 257.92 186.233 258.36C185.7 258.8 185.36 259.4 185.213 260.16ZM203.035 256H205.195V266H203.035V264.56C202.222 265.693 201.055 266.26 199.535 266.26C198.162 266.26 196.989 265.753 196.015 264.74C195.042 263.713 194.555 262.467 194.555 261C194.555 259.52 195.042 258.273 196.015 257.26C196.989 256.247 198.162 255.74 199.535 255.74C201.055 255.74 202.222 256.3 203.035 257.42V256ZM197.615 263.3C198.215 263.9 198.969 264.2 199.875 264.2C200.782 264.2 201.535 263.9 202.135 263.3C202.735 262.687 203.035 261.92 203.035 261C203.035 260.08 202.735 259.32 202.135 258.72C201.535 258.107 200.782 257.8 199.875 257.8C198.969 257.8 198.215 258.107 197.615 258.72C197.015 259.32 196.715 260.08 196.715 261C196.715 261.92 197.015 262.687 197.615 263.3ZM209.873 257.68C210.42 256.44 211.446 255.82 212.953 255.82V258.16C212.126 258.107 211.406 258.307 210.793 258.76C210.18 259.2 209.873 259.933 209.873 260.96V266H207.713V256H209.873V257.68ZM216.138 258.76C216.138 259.093 216.318 259.36 216.678 259.56C217.051 259.747 217.498 259.913 218.018 260.06C218.551 260.193 219.084 260.353 219.618 260.54C220.151 260.727 220.598 261.047 220.958 261.5C221.331 261.94 221.518 262.5 221.518 263.18C221.518 264.14 221.144 264.893 220.398 265.44C219.664 265.987 218.738 266.26 217.618 266.26C216.631 266.26 215.784 266.053 215.078 265.64C214.371 265.227 213.858 264.653 213.538 263.92L215.398 262.84C215.744 263.8 216.484 264.28 217.618 264.28C218.751 264.28 219.318 263.907 219.318 263.16C219.318 262.84 219.131 262.58 218.758 262.38C218.398 262.18 217.951 262.013 217.418 261.88C216.898 261.733 216.371 261.567 215.838 261.38C215.304 261.193 214.851 260.887 214.478 260.46C214.118 260.02 213.938 259.467 213.938 258.8C213.938 257.88 214.284 257.14 214.978 256.58C215.684 256.02 216.558 255.74 217.598 255.74C218.424 255.74 219.158 255.927 219.798 256.3C220.451 256.66 220.951 257.167 221.298 257.82L219.478 258.84C219.131 258.08 218.504 257.7 217.598 257.7C217.184 257.7 216.838 257.793 216.558 257.98C216.278 258.153 216.138 258.413 216.138 258.76Z" fill="white"/>
<defs>
<linearGradient id="paint0_linear_349_7408" x1="207.789" y1="54" x2="299.787" y2="307.326" gradientUnits="userSpaceOnUse">
<stop stop-color="#3E2215"/>
<stop offset="1" stop-color="#B55E39"/>
</linearGradient>
</defs>
</svg>
