<svg width="274" height="102" viewBox="0 0 274 102" fill="none" xmlns="http://www.w3.org/2000/svg">
<mask id="mask0_349_7615" style="mask-type:luminance" maskUnits="userSpaceOnUse" x="2" y="8" width="46" height="85">
<path d="M19.8872 10.5497C5.0991 23.3771 3.16353 39.3041 3.16353 39.3041C0.0187135 57.2924 6.56667 70.6502 12.1487 78.328C16.1049 83.8153 21.5256 88.085 27.7942 90.6513C27.914 90.6999 32.2643 92.1227 33.9041 92.3206C45.8844 94.311 47.8162 86.0207 47.8162 86.0207L44.4468 87.4734C44.5406 87.2835 44.6219 87.0876 44.6901 86.8871C12.1188 90.1098 7.48017 49.5437 7.48017 49.5437C3.96471 29.5425 14.6608 16.0578 19.876 10.8297L20.0969 10.7177L21.2462 9.62354C21.2462 9.60487 21.265 9.58247 21.265 9.58247L21.4933 9.38455L21.6393 9.24264L21.9838 8.93269L22.1373 8.80199L22.4892 8.49951C21.8116 8.9327 19.8947 10.5721 19.8947 10.5721" fill="white"/>
</mask>
<g mask="url(#mask0_349_7615)">
<path d="M0.103288 6.52851L-3.50238 94.167L47.7375 96.2645L51.3432 8.62597L0.103288 6.52851Z" fill="url(#paint0_linear_349_7615)"/>
</g>
<mask id="mask1_349_7615" style="mask-type:luminance" maskUnits="userSpaceOnUse" x="44" y="1" width="17" height="44">
<path d="M44.5104 32.2984C44.5104 32.2984 53.8363 37.5937 57.6138 44.3043C57.6138 44.3043 62.3348 9.22389 58.9129 1.68799C58.9129 1.68799 47.8162 10.1649 44.5104 32.3096" fill="white"/>
</mask>
<g mask="url(#mask1_349_7615)">
<path d="M45.6006 -2.58013L34.2633 41.688L61.2399 48.5618L72.5771 4.2937L45.6006 -2.58013Z" fill="url(#paint1_linear_349_7615)"/>
</g>
<mask id="mask2_349_7615" style="mask-type:luminance" maskUnits="userSpaceOnUse" x="23" y="30" width="35" height="58">
<path d="M23.0657 37.7318C23.2529 37.8065 50.6465 48.5614 50.2946 87.167C50.2946 87.167 56.8688 84.7658 57.6962 78.5519C58.5236 72.3379 48.9955 46.2013 48.9955 46.2013C48.9955 46.2013 35.5439 32.3095 35.0685 32.0742C34.8064 31.9435 31.9573 31.3684 29.4976 30.8867C26.9278 32.7295 24.743 35.0546 23.0657 37.7318Z" fill="white"/>
</mask>
<g mask="url(#mask2_349_7615)">
<path d="M27.8576 18.7797L3.76318 79.543L53.7214 99.2526L77.8158 38.4893L27.8576 18.7797Z" fill="url(#paint2_linear_349_7615)"/>
</g>
<mask id="mask3_349_7615" style="mask-type:luminance" maskUnits="userSpaceOnUse" x="42" y="58" width="40" height="44">
<path d="M42.0919 101.088C42.0919 101.088 78.3472 108.15 81.9637 58.8643C81.9637 58.8643 62.9638 94.9679 42.0919 101.088Z" fill="white"/>
</mask>
<g mask="url(#mask3_349_7615)">
<path d="M50.6839 42.5328L21.7857 97.5527L73.3804 124.515L102.279 69.4947L50.6839 42.5328Z" fill="url(#paint3_linear_349_7615)"/>
</g>
<mask id="mask4_349_7615" style="mask-type:luminance" maskUnits="userSpaceOnUse" x="62" y="2" width="17" height="54">
<path d="M69.6053 21.0281C69.669 21.5622 69.7476 22.0887 69.8187 22.619C73.3604 47.9453 63.2782 55.3729 63.2782 55.3729C82.7462 52.4302 78.6279 28.0599 78.6279 28.0599C75.3221 9.69441 62.0353 2.74854 62.0353 2.74854C66.0928 8.09166 68.7024 14.387 69.6128 21.0281" fill="white"/>
</mask>
<g mask="url(#mask4_349_7615)">
<path d="M70.4862 -7.40856L36.1021 33.9023L74.2976 65.5325L108.682 24.2216L70.4862 -7.40856Z" fill="url(#paint4_linear_349_7615)"/>
</g>
<mask id="mask5_349_7615" style="mask-type:luminance" maskUnits="userSpaceOnUse" x="3" y="8" width="45" height="84">
<path d="M4.38405 40.1853C1.98425 58.2894 9.07506 71.3634 14.9679 78.8097C19.1481 84.1266 24.7398 88.1671 31.1075 90.472C45.2405 95.5171 47.8162 86.0207 47.8162 86.0207C15.3984 90.5803 9.10502 50.2121 9.10502 50.2121C3.4406 24.2957 22.4817 8.47705 22.4817 8.47705C5.79921 22.2941 4.38405 40.1853 4.38405 40.1853Z" fill="white"/>
</mask>
<g mask="url(#mask5_349_7615)">
<path d="M43.5633 -4.76609L-23.3281 16.5532L6.21786 108.787L73.1092 87.4677L43.5633 -4.76609Z" fill="url(#paint5_linear_349_7615)"/>
</g>
<mask id="mask6_349_7615" style="mask-type:luminance" maskUnits="userSpaceOnUse" x="0" y="56" width="81" height="45">
<path d="M63.8548 64.0177C63.551 70.546 61.3529 76.8458 57.5277 82.1516C56.5544 83.8607 55.4858 85.5138 54.3267 87.1034C45.4164 99.2886 27.2289 100.327 15.7653 90.5091C15.5144 90.2963 15.2599 90.0722 15.0165 89.8481C11.8502 86.9728 9.12988 83.644 6.94481 79.9708L0 68.4391C0 68.4391 7.0384 103.617 37.3634 100.573C45.7084 99.7329 58.546 96.8799 80.0918 56.3511C80.0918 56.3511 63.8773 63.9318 63.8698 64.0177" fill="white"/>
</mask>
<g mask="url(#mask6_349_7615)">
<path d="M78.998 47.0873L-5.49951 56.9883L1.08081 112.862L85.5783 102.961L78.998 47.0873Z" fill="url(#paint6_linear_349_7615)"/>
</g>
<mask id="mask7_349_7615" style="mask-type:luminance" maskUnits="userSpaceOnUse" x="65" y="5" width="14" height="50">
<path d="M67.9281 52.1165C66.9996 53.1733 66.2546 54.0882 65.6593 54.8911C82.4017 50.4099 78.6205 28.0785 78.6205 28.0785C76.5613 16.6402 70.6311 9.63085 66.453 5.97119C66.4755 6.00853 83.9891 33.8966 67.9281 52.1165Z" fill="white"/>
</mask>
<g mask="url(#mask7_349_7615)">
<path d="M66.0015 3.48773L59.042 53.9678L83.6508 57.3433L90.6102 6.86326L66.0015 3.48773Z" fill="url(#paint7_linear_349_7615)"/>
</g>
<mask id="mask8_349_7615" style="mask-type:luminance" maskUnits="userSpaceOnUse" x="42" y="58" width="40" height="44">
<path d="M42.0919 101.088C42.0919 101.088 78.3472 108.15 81.9637 58.8643C81.9637 58.8643 72.0201 100.084 42.0919 101.088Z" fill="white"/>
</mask>
<g mask="url(#mask8_349_7615)">
<path d="M55.0294 40.2541L18.9626 92.1704L69.0321 126.778L105.099 74.8619L55.0294 40.2541Z" fill="url(#paint8_linear_349_7615)"/>
</g>
<mask id="mask9_349_7615" style="mask-type:luminance" maskUnits="userSpaceOnUse" x="51" y="1" width="10" height="44">
<path d="M51.2755 37.1008C53.6379 39.0986 56.0826 41.582 57.6138 44.3043C57.6138 44.3043 62.3348 9.22389 58.913 1.68799C52.2377 12.2412 51.0509 26.7081 51.2755 37.1008Z" fill="white"/>
</mask>
<g mask="url(#mask9_349_7615)">
<path d="M51.0937 1.30805L49.5898 44.2642L62.3298 44.7079L63.8336 1.75181L51.0937 1.30805Z" fill="url(#paint9_linear_349_7615)"/>
</g>
<mask id="mask10_349_7615" style="mask-type:luminance" maskUnits="userSpaceOnUse" x="14" y="0" width="39" height="79">
<path d="M30.823 9.26117C11.9391 24.9454 14.9267 51.3285 14.9267 51.3285C18.794 77.5772 33.3388 78.5519 33.3388 78.5519C20.4338 73.1222 18.3897 59.5068 18.3897 59.5068C16.8472 35.0356 32.7099 29.0756 32.7099 29.0756C43.8815 5.84798 52.3388 0 52.3388 0C39.7033 1.3705 30.8267 9.26117 30.8267 9.26117" fill="white"/>
</mask>
<g mask="url(#mask10_349_7615)">
<path d="M52.335 0H11.9391V78.5482H52.335V0Z" fill="url(#paint10_linear_349_7615)"/>
</g>
<mask id="mask11_349_7615" style="mask-type:luminance" maskUnits="userSpaceOnUse" x="27" y="29" width="37" height="55">
<path d="M27.2214 32.7314C27.2813 32.7314 36.5211 34.1243 47.8125 53.0574C47.8125 53.0574 58.6696 68.1255 55.6745 83.1936C55.6745 83.1936 71.0242 66.7923 57.6026 44.3041C57.6026 44.3041 50.4893 30.4871 32.6986 29.0605C32.6986 29.0605 30.1603 30.0203 27.2102 32.7314" fill="white"/>
</mask>
<g mask="url(#mask11_349_7615)">
<path d="M59.405 9.76154L3.26465 43.4219L38.8544 102.48L94.9948 68.8194L59.405 9.76154Z" fill="url(#paint11_linear_349_7615)"/>
</g>
<mask id="mask12_349_7615" style="mask-type:luminance" maskUnits="userSpaceOnUse" x="26" y="0" width="27" height="33">
<path d="M27.2214 32.7315C30.1716 30.0204 32.7099 29.0607 32.7099 29.0607C43.8815 5.84798 52.3388 0 52.3388 0C22.0437 13.8171 27.2252 32.7278 27.2252 32.7315" fill="white"/>
</mask>
<g mask="url(#mask12_349_7615)">
<path d="M32.6676 -14.4222L6.38199 21.2446L41.705 47.1452L67.9907 11.4784L32.6676 -14.4222Z" fill="url(#paint12_linear_349_7615)"/>
</g>
<path d="M115.174 60.8848C115.174 62.2129 114.969 63.3945 114.559 64.4297C114.168 65.4648 113.543 66.3535 112.684 67.0957C111.844 67.8184 110.75 68.375 109.402 68.7656C108.055 69.1367 106.443 69.3223 104.568 69.3223C103.943 69.3223 103.25 69.3125 102.488 69.293C101.727 69.2734 100.945 69.2441 100.145 69.2051C99.3633 69.166 98.5918 69.1172 97.8301 69.0586C97.0684 69 96.375 68.9414 95.75 68.8828V39.2051C96.9219 39.0684 98.1621 38.9707 99.4707 38.9121C100.799 38.8535 102.117 38.8242 103.426 38.8242C105.027 38.8242 106.463 38.9609 107.732 39.2344C109.002 39.5078 110.086 39.9277 110.984 40.4941C111.883 41.0605 112.566 41.8027 113.035 42.7207C113.523 43.6191 113.768 44.6934 113.768 45.9434C113.768 46.959 113.602 47.8574 113.27 48.6387C112.957 49.4199 112.527 50.0938 111.98 50.6602C111.453 51.2266 110.838 51.6953 110.135 52.0664C109.451 52.418 108.748 52.6816 108.025 52.8574V52.9453C109.236 53.1992 110.291 53.5801 111.189 54.0879C112.088 54.5762 112.83 55.1621 113.416 55.8457C114.002 56.5293 114.441 57.3008 114.734 58.1602C115.027 59.0195 115.174 59.9277 115.174 60.8848ZM109.549 46.4121C109.549 45.4355 109.393 44.6055 109.08 43.9219C108.787 43.2383 108.357 42.6816 107.791 42.252C107.244 41.8027 106.57 41.4805 105.77 41.2852C104.969 41.0703 104.07 40.9629 103.074 40.9629C102.625 40.9629 102.244 40.9727 101.932 40.9922C101.619 40.9922 101.336 41.002 101.082 41.0215C100.848 41.041 100.633 41.0605 100.438 41.0801C100.242 41.0996 100.037 41.1191 99.8223 41.1387V52.0371H103.719C104.52 52.0371 105.242 51.9688 105.887 51.832C106.551 51.6758 107.107 51.4805 107.557 51.2461C107.771 51.1289 107.996 50.9629 108.23 50.748C108.465 50.5137 108.68 50.2109 108.875 49.8398C109.07 49.4492 109.227 48.9805 109.344 48.4336C109.48 47.8672 109.549 47.1934 109.549 46.4121ZM110.926 60.7676C110.926 59.5762 110.721 58.5605 110.311 57.7207C109.92 56.8809 109.383 56.1973 108.699 55.6699C108.035 55.1426 107.254 54.7617 106.355 54.5273C105.457 54.293 104.51 54.1758 103.514 54.1758H99.8223V66.8613C100.252 66.9004 100.818 66.959 101.521 67.0371C102.244 67.0957 103.035 67.125 103.895 67.125C104.324 67.125 104.773 67.1152 105.242 67.0957C105.711 67.0566 106.16 67.0078 106.59 66.9492C107.039 66.8711 107.449 66.7832 107.82 66.6855C108.191 66.5879 108.494 66.4707 108.729 66.334C108.982 66.1973 109.236 66.0117 109.49 65.7773C109.744 65.543 109.979 65.2109 110.193 64.7812C110.408 64.3516 110.584 63.8145 110.721 63.1699C110.857 62.5254 110.926 61.7246 110.926 60.7676ZM139.725 69L135.975 58.0137L124.432 58.1602L120.389 69H117.4L129.295 39.2637L132.811 38.2383L143.943 69H139.725ZM135.359 56.0508L130.379 42.0469L125.164 56.0508H135.359ZM156.131 56.3438H151.912V69H147.84V39.0586C149.07 38.9609 150.428 38.8828 151.912 38.8242C153.396 38.7656 154.852 38.7363 156.277 38.7363C158.016 38.7363 159.529 38.9219 160.818 39.293C162.107 39.6641 163.172 40.2012 164.012 40.9043C164.852 41.6074 165.477 42.4668 165.887 43.4824C166.297 44.498 166.502 45.6504 166.502 46.9395C166.502 48.1895 166.326 49.3027 165.975 50.2793C165.643 51.2363 165.193 52.0762 164.627 52.7988C164.061 53.5215 163.387 54.1367 162.605 54.6445C161.844 55.1523 161.043 55.5723 160.203 55.9043C161.102 57.4473 161.961 58.9219 162.781 60.3281C163.621 61.7148 164.461 62.9453 165.301 64.0195C166.141 65.0742 166.99 65.9141 167.85 66.5391C168.709 67.1641 169.627 67.4766 170.604 67.4766H170.896V68.7949C170.467 68.9512 169.92 69.0781 169.256 69.1758C168.592 69.2734 167.918 69.3223 167.234 69.3223C166.258 69.3223 165.428 69.1953 164.744 68.9414C164.061 68.668 163.387 68.1699 162.723 67.4473C162.078 66.7051 161.375 65.6895 160.613 64.4004C159.852 63.1113 158.914 61.4414 157.801 59.3906L156.131 56.3438ZM153.172 54.2637C155.008 54.2637 156.492 54.1562 157.625 53.9414C158.777 53.7266 159.656 53.4238 160.262 53.0332C160.535 52.8574 160.789 52.623 161.023 52.3301C161.258 52.0371 161.453 51.666 161.609 51.2168C161.785 50.748 161.912 50.1914 161.99 49.5469C162.088 48.8828 162.137 48.0918 162.137 47.1738C162.137 46.0215 161.971 45.0449 161.639 44.2441C161.307 43.4238 160.828 42.7598 160.203 42.252C159.578 41.7441 158.816 41.373 157.918 41.1387C157.039 40.9043 156.033 40.7871 154.9 40.7871C154.334 40.7871 153.846 40.8066 153.436 40.8457C153.025 40.8652 152.518 40.9043 151.912 40.9629V54.2637H153.172ZM174.676 69V39H178.748V69H174.676ZM202.566 60.2988C202.566 61.4316 202.342 62.5449 201.893 63.6387C201.443 64.7129 200.779 65.6797 199.9 66.5391C199.041 67.3984 197.977 68.0918 196.707 68.6191C195.457 69.1465 194.021 69.4102 192.4 69.4102C190.701 69.4102 189.178 69.2148 187.83 68.8242C186.502 68.4336 185.252 67.9062 184.08 67.2422L185.545 63.7266C185.975 64.0195 186.492 64.332 187.098 64.6641C187.703 64.9766 188.348 65.2695 189.031 65.543C189.715 65.8164 190.418 66.0508 191.141 66.2461C191.883 66.4219 192.596 66.5098 193.279 66.5098C194.217 66.5098 195.018 66.4219 195.682 66.2461C196.365 66.0703 196.922 65.8555 197.352 65.6016C197.586 65.4648 197.811 65.2988 198.025 65.1035C198.24 64.9082 198.426 64.6445 198.582 64.3125C198.758 63.9805 198.895 63.5703 198.992 63.082C199.09 62.5742 199.139 61.9688 199.139 61.2656C199.139 60.3477 198.934 59.5762 198.523 58.9512C198.133 58.3066 197.605 57.7598 196.941 57.3105C196.277 56.8613 195.525 56.4707 194.686 56.1387C193.846 55.7871 192.986 55.4355 192.107 55.084C191.248 54.7129 190.398 54.3125 189.559 53.8828C188.719 53.4336 187.967 52.8867 187.303 52.2422C186.639 51.5781 186.102 50.7871 185.691 49.8691C185.301 48.9512 185.105 47.8281 185.105 46.5C185.105 45.582 185.32 44.6641 185.75 43.7461C186.18 42.8086 186.795 41.9688 187.596 41.2266C188.416 40.4648 189.412 39.8496 190.584 39.3809C191.775 38.8926 193.123 38.6484 194.627 38.6484C195.838 38.6484 196.971 38.7168 198.025 38.8535C199.08 38.9902 200.135 39.166 201.189 39.3809L200.281 42.9258C199.168 42.5352 198.006 42.2031 196.795 41.9297C195.584 41.6367 194.451 41.4902 193.396 41.4902C192.576 41.4902 191.854 41.5488 191.229 41.666C190.604 41.7832 190.125 41.959 189.793 42.1934C189.441 42.4668 189.139 42.8672 188.885 43.3945C188.631 43.9023 188.504 44.6836 188.504 45.7383C188.504 46.5781 188.699 47.291 189.09 47.877C189.5 48.4434 190.037 48.9414 190.701 49.3711C191.365 49.8008 192.117 50.1914 192.957 50.543C193.797 50.875 194.656 51.2266 195.535 51.5977C196.414 51.9492 197.273 52.3594 198.113 52.8281C198.953 53.2773 199.705 53.834 200.369 54.498C201.033 55.1621 201.561 55.9629 201.951 56.9004C202.361 57.8379 202.566 58.9707 202.566 60.2988ZM214.285 69V41.3145L205.057 41.168L205.35 39H227.586L227.293 41.0801L218.357 41.3145V69H214.285ZM259.461 53.8828C259.461 56.2656 259.148 58.4141 258.523 60.3281C257.918 62.2422 257.01 63.873 255.799 65.2207C254.588 66.5684 253.064 67.6035 251.229 68.3262C249.412 69.0488 247.293 69.4102 244.871 69.4102C242.41 69.4102 240.291 69.0391 238.514 68.2969C236.736 67.5547 235.281 66.5098 234.148 65.1621C233.016 63.7949 232.176 62.1641 231.629 60.2695C231.102 58.3555 230.838 56.2266 230.838 53.8828C230.838 51.5391 231.111 49.4297 231.658 47.5547C232.205 45.6797 233.055 44.0879 234.207 42.7793C235.359 41.4512 236.824 40.4355 238.602 39.7324C240.379 39.0293 242.488 38.6777 244.93 38.6777C247.352 38.6777 249.471 39.0293 251.287 39.7324C253.104 40.4355 254.617 41.4512 255.828 42.7793C257.039 44.0879 257.947 45.6797 258.553 47.5547C259.158 49.4297 259.461 51.5391 259.461 53.8828ZM255.096 53.8828C255.096 51.9688 254.9 50.2207 254.51 48.6387C254.119 47.0566 253.504 45.6992 252.664 44.5664C251.844 43.4336 250.789 42.5547 249.5 41.9297C248.23 41.3047 246.707 40.9922 244.93 40.9922C243.387 40.9922 241.951 41.1582 240.623 41.4902C239.295 41.8223 238.24 42.3203 237.459 42.9844C237.029 43.3555 236.668 43.9023 236.375 44.625C236.082 45.3477 235.848 46.1973 235.672 47.1738C235.496 48.1309 235.369 49.1855 235.291 50.3379C235.213 51.4707 235.174 52.6523 235.174 53.8828C235.174 55.7773 235.33 57.5352 235.643 59.1562C235.975 60.7578 236.512 62.1445 237.254 63.3164C237.996 64.4883 238.982 65.4062 240.213 66.0703C241.463 66.7344 243.016 67.0664 244.871 67.0664C246.648 67.0664 248.152 66.9102 249.383 66.5977C250.633 66.2656 251.746 65.6797 252.723 64.8398C253.152 64.4883 253.514 63.9414 253.807 63.1992C254.1 62.4375 254.344 61.5684 254.539 60.5918C254.734 59.5957 254.871 58.5215 254.949 57.3691C255.047 56.2168 255.096 55.0547 255.096 53.8828Z" fill="black"/>
<path d="M97.1562 98V83.2344L92.2344 83.1562L92.3906 82H104.25L104.094 83.1094L99.3281 83.2344V98H97.1562ZM115.047 98H106.5V82H114.703L114.547 83.1562L108.672 83.2344V88.9062L114.203 88.9688L114.047 89.9844L108.672 90.1094V96.7656L115.203 96.8906L115.047 98ZM123.953 98.2188C122.797 98.2188 121.818 98.0208 121.016 97.625C120.214 97.2292 119.557 96.6719 119.047 95.9531C118.547 95.2344 118.182 94.3698 117.953 93.3594C117.724 92.3385 117.609 91.2031 117.609 89.9531C117.609 88.4323 117.828 87.1562 118.266 86.125C118.703 85.0833 119.271 84.2448 119.969 83.6094C120.677 82.9635 121.469 82.5052 122.344 82.2344C123.219 81.9531 124.094 81.8125 124.969 81.8125C125.292 81.8125 125.651 81.8229 126.047 81.8438C126.443 81.8646 126.828 81.8906 127.203 81.9219C127.578 81.9531 127.927 81.9896 128.25 82.0312C128.583 82.0625 128.844 82.099 129.031 82.1406L128.453 84.0469C128.245 83.9844 127.953 83.9115 127.578 83.8281C127.203 83.7448 126.797 83.6719 126.359 83.6094C125.932 83.5365 125.51 83.4792 125.094 83.4375C124.677 83.3854 124.328 83.3594 124.047 83.3594C123.422 83.3594 122.885 83.4115 122.438 83.5156C121.99 83.6094 121.573 83.8073 121.188 84.1094C120.719 84.474 120.391 85.1615 120.203 86.1719C120.016 87.1823 119.922 88.4427 119.922 89.9531C119.922 92.2552 120.255 94.0052 120.922 95.2031C121.599 96.3906 122.682 96.9844 124.172 96.9844C124.589 96.9844 125.021 96.9688 125.469 96.9375C125.917 96.9062 126.359 96.8594 126.797 96.7969C127.245 96.7344 127.682 96.6562 128.109 96.5625C128.536 96.4688 128.938 96.3594 129.312 96.2344V97.0625C128.927 97.25 128.51 97.4167 128.062 97.5625C127.625 97.6979 127.172 97.8177 126.703 97.9219C126.245 98.0156 125.781 98.0885 125.312 98.1406C124.844 98.1927 124.391 98.2188 123.953 98.2188ZM143.219 98V90.5625H134.422V98H132.25V82H134.422V89.3906H143.219V82H145.391V98H143.219ZM162.062 98.0781L150.766 85.6094H150.719C150.74 86.7865 150.76 87.8594 150.781 88.8281C150.792 89.2448 150.797 89.6615 150.797 90.0781C150.807 90.4844 150.812 90.8594 150.812 91.2031C150.823 91.5469 150.828 91.8438 150.828 92.0938C150.839 92.3438 150.844 92.5156 150.844 92.6094V98H149.406V81.8906H150.359L161.672 94.3281H161.688C161.667 93.2344 161.651 92.2188 161.641 91.2812C161.641 90.8854 161.635 90.4844 161.625 90.0781C161.625 89.6719 161.62 89.2917 161.609 88.9375C161.609 88.5729 161.609 88.25 161.609 87.9688C161.609 87.6875 161.609 87.4688 161.609 87.3125V82.0156H163.047V98.0781H162.062ZM181.812 89.9375C181.812 91.2083 181.646 92.3542 181.312 93.375C180.99 94.3958 180.505 95.2656 179.859 95.9844C179.214 96.7031 178.401 97.2552 177.422 97.6406C176.453 98.026 175.323 98.2188 174.031 98.2188C172.719 98.2188 171.589 98.0208 170.641 97.625C169.693 97.2292 168.917 96.6719 168.312 95.9531C167.708 95.224 167.26 94.3542 166.969 93.3438C166.688 92.3229 166.547 91.1875 166.547 89.9375C166.547 88.6875 166.693 87.5625 166.984 86.5625C167.276 85.5625 167.729 84.7135 168.344 84.0156C168.958 83.3073 169.74 82.7656 170.688 82.3906C171.635 82.0156 172.76 81.8281 174.062 81.8281C175.354 81.8281 176.484 82.0156 177.453 82.3906C178.422 82.7656 179.229 83.3073 179.875 84.0156C180.521 84.7135 181.005 85.5625 181.328 86.5625C181.651 87.5625 181.812 88.6875 181.812 89.9375ZM179.484 89.9375C179.484 88.9167 179.38 87.9844 179.172 87.1406C178.964 86.2969 178.635 85.5729 178.188 84.9688C177.75 84.3646 177.188 83.8958 176.5 83.5625C175.823 83.2292 175.01 83.0625 174.062 83.0625C173.24 83.0625 172.474 83.151 171.766 83.3281C171.057 83.5052 170.495 83.7708 170.078 84.125C169.849 84.3229 169.656 84.6146 169.5 85C169.344 85.3854 169.219 85.8385 169.125 86.3594C169.031 86.8698 168.964 87.4323 168.922 88.0469C168.88 88.651 168.859 89.2812 168.859 89.9375C168.859 90.9479 168.943 91.8854 169.109 92.75C169.286 93.6042 169.573 94.3438 169.969 94.9688C170.365 95.5938 170.891 96.0833 171.547 96.4375C172.214 96.7917 173.042 96.9688 174.031 96.9688C174.979 96.9688 175.781 96.8854 176.438 96.7188C177.104 96.5417 177.698 96.2292 178.219 95.7812C178.448 95.5938 178.641 95.3021 178.797 94.9062C178.953 94.5 179.083 94.0365 179.188 93.5156C179.292 92.9844 179.365 92.4115 179.406 91.7969C179.458 91.1823 179.484 90.5625 179.484 89.9375ZM185.312 98V82H187.484V96.7812H193.562L193.406 98H185.312ZM211.312 89.9375C211.312 91.2083 211.146 92.3542 210.812 93.375C210.49 94.3958 210.005 95.2656 209.359 95.9844C208.714 96.7031 207.901 97.2552 206.922 97.6406C205.953 98.026 204.823 98.2188 203.531 98.2188C202.219 98.2188 201.089 98.0208 200.141 97.625C199.193 97.2292 198.417 96.6719 197.812 95.9531C197.208 95.224 196.76 94.3542 196.469 93.3438C196.188 92.3229 196.047 91.1875 196.047 89.9375C196.047 88.6875 196.193 87.5625 196.484 86.5625C196.776 85.5625 197.229 84.7135 197.844 84.0156C198.458 83.3073 199.24 82.7656 200.188 82.3906C201.135 82.0156 202.26 81.8281 203.562 81.8281C204.854 81.8281 205.984 82.0156 206.953 82.3906C207.922 82.7656 208.729 83.3073 209.375 84.0156C210.021 84.7135 210.505 85.5625 210.828 86.5625C211.151 87.5625 211.312 88.6875 211.312 89.9375ZM208.984 89.9375C208.984 88.9167 208.88 87.9844 208.672 87.1406C208.464 86.2969 208.135 85.5729 207.688 84.9688C207.25 84.3646 206.688 83.8958 206 83.5625C205.323 83.2292 204.51 83.0625 203.562 83.0625C202.74 83.0625 201.974 83.151 201.266 83.3281C200.557 83.5052 199.995 83.7708 199.578 84.125C199.349 84.3229 199.156 84.6146 199 85C198.844 85.3854 198.719 85.8385 198.625 86.3594C198.531 86.8698 198.464 87.4323 198.422 88.0469C198.38 88.651 198.359 89.2812 198.359 89.9375C198.359 90.9479 198.443 91.8854 198.609 92.75C198.786 93.6042 199.073 94.3438 199.469 94.9688C199.865 95.5938 200.391 96.0833 201.047 96.4375C201.714 96.7917 202.542 96.9688 203.531 96.9688C204.479 96.9688 205.281 96.8854 205.938 96.7188C206.604 96.5417 207.198 96.2292 207.719 95.7812C207.948 95.5938 208.141 95.3021 208.297 94.9062C208.453 94.5 208.583 94.0365 208.688 93.5156C208.792 92.9844 208.865 92.4115 208.906 91.7969C208.958 91.1823 208.984 90.5625 208.984 89.9375ZM224.922 91.3594L221.359 91.1719L221.531 90.3438H227.031V96.875C226.698 97.0312 226.286 97.1875 225.797 97.3438C225.307 97.5 224.776 97.6458 224.203 97.7812C223.63 97.9062 223.036 98.0104 222.422 98.0938C221.807 98.1771 221.214 98.2188 220.641 98.2188C219.484 98.2188 218.505 98.0208 217.703 97.625C216.901 97.2188 216.245 96.651 215.734 95.9219C215.234 95.1823 214.87 94.3021 214.641 93.2812C214.411 92.2604 214.297 91.125 214.297 89.875C214.297 88.625 214.453 87.5052 214.766 86.5156C215.089 85.5156 215.568 84.6667 216.203 83.9688C216.849 83.2708 217.656 82.7396 218.625 82.375C219.594 82 220.729 81.8125 222.031 81.8125C222.354 81.8125 222.714 81.8281 223.109 81.8594C223.516 81.8802 223.911 81.9115 224.297 81.9531C224.693 81.9948 225.062 82.0417 225.406 82.0938C225.76 82.1458 226.052 82.1927 226.281 82.2344L225.719 84.0938C225.448 84.0104 225.104 83.9271 224.688 83.8438C224.281 83.75 223.849 83.6719 223.391 83.6094C222.943 83.5365 222.49 83.4792 222.031 83.4375C221.583 83.3854 221.182 83.3594 220.828 83.3594C220.245 83.3594 219.693 83.4062 219.172 83.5C218.661 83.5938 218.188 83.8177 217.75 84.1719C217.51 84.3594 217.318 84.6562 217.172 85.0625C217.026 85.4688 216.911 85.9323 216.828 86.4531C216.745 86.974 216.688 87.5312 216.656 88.125C216.625 88.7188 216.609 89.3021 216.609 89.875C216.609 90.9271 216.682 91.8906 216.828 92.7656C216.974 93.6302 217.208 94.375 217.531 95C217.854 95.625 218.271 96.1094 218.781 96.4531C219.302 96.7969 219.938 96.9688 220.688 96.9688C221.042 96.9688 221.417 96.9583 221.812 96.9375C222.208 96.9062 222.594 96.8698 222.969 96.8281C223.354 96.7865 223.714 96.7396 224.047 96.6875C224.391 96.6354 224.682 96.5833 224.922 96.5312V91.3594ZM230.75 98V82H232.922V98H230.75ZM245.422 98H236.875V82H245.078L244.922 83.1562L239.047 83.2344V88.9062L244.578 88.9688L244.422 89.9844L239.047 90.1094V96.7656L245.578 96.8906L245.422 98ZM257.25 93.3594C257.25 93.9635 257.13 94.5573 256.891 95.1406C256.651 95.7135 256.297 96.2292 255.828 96.6875C255.37 97.1458 254.802 97.5156 254.125 97.7969C253.458 98.0781 252.693 98.2188 251.828 98.2188C250.922 98.2188 250.109 98.1146 249.391 97.9062C248.682 97.6979 248.016 97.4167 247.391 97.0625L248.172 95.1875C248.401 95.3438 248.677 95.5104 249 95.6875C249.323 95.8542 249.667 96.0104 250.031 96.1562C250.396 96.3021 250.771 96.4271 251.156 96.5312C251.552 96.625 251.932 96.6719 252.297 96.6719C252.797 96.6719 253.224 96.625 253.578 96.5312C253.943 96.4375 254.24 96.3229 254.469 96.1875C254.594 96.1146 254.714 96.026 254.828 95.9219C254.943 95.8177 255.042 95.6771 255.125 95.5C255.219 95.3229 255.292 95.1042 255.344 94.8438C255.396 94.5729 255.422 94.25 255.422 93.875C255.422 93.3854 255.312 92.974 255.094 92.6406C254.885 92.2969 254.604 92.0052 254.25 91.7656C253.896 91.526 253.495 91.3177 253.047 91.1406C252.599 90.9531 252.141 90.7656 251.672 90.5781C251.214 90.3802 250.76 90.1667 250.312 89.9375C249.865 89.6979 249.464 89.4062 249.109 89.0625C248.755 88.7083 248.469 88.2865 248.25 87.7969C248.042 87.3073 247.938 86.7083 247.938 86C247.938 85.5104 248.052 85.0208 248.281 84.5312C248.51 84.0312 248.839 83.5833 249.266 83.1875C249.703 82.7812 250.234 82.4531 250.859 82.2031C251.495 81.9427 252.214 81.8125 253.016 81.8125C253.661 81.8125 254.266 81.849 254.828 81.9219C255.391 81.9948 255.953 82.0885 256.516 82.2031L256.031 84.0938C255.438 83.8854 254.818 83.7083 254.172 83.5625C253.526 83.4062 252.922 83.3281 252.359 83.3281C251.922 83.3281 251.536 83.3594 251.203 83.4219C250.87 83.4844 250.615 83.5781 250.438 83.7031C250.25 83.849 250.089 84.0625 249.953 84.3438C249.818 84.6146 249.75 85.0312 249.75 85.5938C249.75 86.0417 249.854 86.4219 250.062 86.7344C250.281 87.0365 250.568 87.3021 250.922 87.5312C251.276 87.7604 251.677 87.9688 252.125 88.1562C252.573 88.3333 253.031 88.5208 253.5 88.7188C253.969 88.9062 254.427 89.125 254.875 89.375C255.323 89.6146 255.724 89.9115 256.078 90.2656C256.432 90.6198 256.714 91.0469 256.922 91.5469C257.141 92.0469 257.25 92.651 257.25 93.3594Z" fill="black"/>
<defs>
<linearGradient id="paint0_linear_349_7615" x1="2.0051" y1="50.435" x2="48.9802" y2="52.3676" gradientUnits="userSpaceOnUse">
<stop stop-color="#2B1A0F"/>
<stop offset="0.21" stop-color="#3A2013"/>
<stop offset="0.72" stop-color="#5A2E1D"/>
<stop offset="1" stop-color="#663320"/>
</linearGradient>
<linearGradient id="paint1_linear_349_7615" x1="58.6732" y1="2.39448" x2="49.5912" y2="38.0371" gradientUnits="userSpaceOnUse">
<stop stop-color="#2B1A0F"/>
<stop offset="1" stop-color="#663320"/>
</linearGradient>
<linearGradient id="paint2_linear_349_7615" x1="42.267" y1="55.4161" x2="47.9057" y2="41.1236" gradientUnits="userSpaceOnUse">
<stop stop-color="#452413"/>
<stop offset="1" stop-color="#1F120A"/>
</linearGradient>
<linearGradient id="paint3_linear_349_7615" x1="74.2833" y1="59.8702" x2="57.039" y2="92.8692" gradientUnits="userSpaceOnUse">
<stop stop-color="#2B1A0F"/>
<stop offset="0.21" stop-color="#3A2013"/>
<stop offset="0.72" stop-color="#5A2E1D"/>
<stop offset="1" stop-color="#663320"/>
</linearGradient>
<linearGradient id="paint4_linear_349_7615" x1="77.5468" y1="22.7126" x2="63.7396" y2="39.3857" gradientUnits="userSpaceOnUse">
<stop stop-color="#2B1A0F"/>
<stop offset="1" stop-color="#663320"/>
</linearGradient>
<linearGradient id="paint5_linear_349_7615" x1="38.3039" y1="93.2439" x2="12.7775" y2="13.1523" gradientUnits="userSpaceOnUse">
<stop stop-color="#2B1A0F"/>
<stop offset="1" stop-color="#663320"/>
</linearGradient>
<linearGradient id="paint6_linear_349_7615" x1="75.9695" y1="75.6984" x2="-1.76281" y2="84.8531" gradientUnits="userSpaceOnUse">
<stop stop-color="#2B1A0F"/>
<stop offset="1" stop-color="#663320"/>
</linearGradient>
<linearGradient id="paint7_linear_349_7615" x1="71.5353" y1="52.9402" x2="76.7032" y2="15.2643" gradientUnits="userSpaceOnUse">
<stop stop-color="#2B1A0F"/>
<stop offset="0.21" stop-color="#3A2013"/>
<stop offset="0.72" stop-color="#5A2E1D"/>
<stop offset="1" stop-color="#663320"/>
</linearGradient>
<linearGradient id="paint8_linear_349_7615" x1="54.0569" y1="94.818" x2="67.8591" y2="74.8493" gradientUnits="userSpaceOnUse">
<stop stop-color="#2B1A0F"/>
<stop offset="1" stop-color="#663320"/>
</linearGradient>
<linearGradient id="paint9_linear_349_7615" x1="55.6866" y1="46.7217" x2="57.2557" y2="1.67167" gradientUnits="userSpaceOnUse">
<stop stop-color="#2B1A0F"/>
<stop offset="0.21" stop-color="#3A2013"/>
<stop offset="0.72" stop-color="#5A2E1D"/>
<stop offset="1" stop-color="#663320"/>
</linearGradient>
<linearGradient id="paint10_linear_349_7615" x1="14.7544" y1="39.3892" x2="52.335" y2="39.3892" gradientUnits="userSpaceOnUse">
<stop stop-color="#2B1A0F"/>
<stop offset="1" stop-color="#663320"/>
</linearGradient>
<linearGradient id="paint11_linear_349_7615" x1="63.4518" y1="80.0869" x2="28.0176" y2="20.988" gradientUnits="userSpaceOnUse">
<stop stop-color="#2B1A0F"/>
<stop offset="1" stop-color="#663320"/>
</linearGradient>
<linearGradient id="paint12_linear_349_7615" x1="50.6847" y1="-1.6863" x2="25.4337" y2="32.7509" gradientUnits="userSpaceOnUse">
<stop stop-color="#2B1A0F"/>
<stop offset="0.21" stop-color="#3A2013"/>
<stop offset="0.72" stop-color="#5A2E1D"/>
<stop offset="1" stop-color="#663320"/>
</linearGradient>
</defs>
</svg>
