<svg width="239" height="117" viewBox="0 0 239 117" fill="none" xmlns="http://www.w3.org/2000/svg">
<path d="M57.6742 35.173C54.6774 35.107 51.6971 35.6322 48.9043 36.7183C48.623 36.8283 48.3741 37.0074 48.1807 37.2389C47.9872 37.4705 47.8555 37.747 47.7978 38.0428C47.4408 39.8287 46.4738 41.4357 45.0618 42.5899C43.6498 43.744 41.8801 44.3738 40.0546 44.3719H39.7736C39.4739 44.3618 39.1766 44.4278 38.9095 44.5637C38.6425 44.6997 38.4144 44.901 38.2466 45.1489C35.4649 49.217 34.0805 54.0752 34.3009 58.9946C34.8033 71.0103 44.735 80.6639 56.7868 80.8714C59.8156 80.9235 62.8247 80.3759 65.6399 79.2603C68.4552 78.1447 71.0208 76.4834 73.1882 74.3724C75.3557 72.2613 77.082 69.7425 78.2673 66.9616C79.4527 64.1807 80.0734 61.193 80.0938 58.1712C80.1756 45.7494 70.1244 35.4313 57.6742 35.173ZM57.8601 70.922C55.2449 71.0582 52.6497 70.4003 50.417 69.0351C48.1844 67.6698 46.419 65.6614 45.354 63.2748C44.289 60.8883 43.9743 58.2357 44.4515 55.667C44.9287 53.0984 46.1753 50.7344 48.0269 48.887C49.8785 47.0397 52.248 45.7957 54.8229 45.3192C57.3977 44.8427 60.0569 45.1561 62.4495 46.2181C64.8421 47.2801 66.8558 49.0407 68.2248 51.2677C69.5938 53.4947 70.2538 56.0834 70.1177 58.6922C69.9509 61.8814 68.606 64.8961 66.3425 67.1545C64.0789 69.4129 61.0572 70.755 57.8601 70.922Z" fill="url(#paint0_linear_349_7477)"/>
<path d="M106.621 35.1685V44.7912C105.227 44.7909 103.847 45.0644 102.56 45.5961C101.273 46.1278 100.103 46.9073 99.1175 47.8901C98.1321 48.8728 97.3505 50.0396 96.8172 51.3237C96.2839 52.6078 96.0094 53.9842 96.0094 55.3742V80.8735H85.8829V55.851C85.8826 53.1343 86.4188 50.4441 87.4608 47.9341C88.5029 45.4241 90.0304 43.1435 91.9561 41.2225C93.8819 39.3015 96.1681 37.7777 98.6842 36.7382C101.2 35.6987 103.897 35.1638 106.621 35.1641V35.1685Z" fill="#206BEB"/>
<path d="M135.801 35.1683C131.047 35.1617 126.41 36.6349 122.536 39.3825V23.6206H112.89V58.0208C112.891 58.986 112.951 59.9503 113.069 60.9083C113.626 65.2701 115.432 69.3791 118.27 72.7427C121.109 76.1063 124.86 78.5816 129.074 79.8717C133.288 81.1619 137.785 81.2122 142.027 80.0165C146.268 78.8209 150.074 76.43 152.988 73.1308C155.902 69.8315 157.799 65.7638 158.454 61.4156C159.108 57.0674 158.491 52.6232 156.677 48.616C154.862 44.6087 151.928 41.2086 148.225 38.8234C144.522 36.4382 140.208 35.1691 135.801 35.1683ZM135.801 70.9305C133.239 70.9305 130.736 70.1729 128.606 68.7534C126.476 67.3339 124.816 65.3163 123.836 62.9557C122.856 60.5951 122.6 57.9977 123.099 55.4917C123.599 52.9857 124.832 50.6839 126.643 48.8772C128.455 47.0705 130.762 45.8401 133.274 45.3416C135.786 44.8432 138.39 45.099 140.757 46.0768C143.123 47.0546 145.145 48.7104 146.568 50.8348C147.991 52.9593 148.751 55.4569 148.751 58.012C148.752 59.7092 148.418 61.39 147.768 62.9584C147.117 64.5268 146.164 65.952 144.961 67.1525C143.758 68.353 142.33 69.3054 140.759 69.9552C139.187 70.6049 137.502 70.9394 135.801 70.9394V70.9305Z" fill="#206BEB"/>
<path d="M171.009 35.6473C174.338 35.6473 177.037 32.9551 177.037 29.634C177.037 26.3129 174.338 23.6206 171.009 23.6206C167.68 23.6206 164.981 26.3129 164.981 29.634C164.981 32.9551 167.68 35.6473 171.009 35.6473Z" fill="#206BEB"/>
<path d="M176.072 40.6738V80.8733H165.943V40.6782C167.537 41.3898 169.262 41.7576 171.008 41.7576C172.753 41.7576 174.479 41.3898 176.072 40.6782V40.6738Z" fill="#206BEB"/>
<path d="M196.33 47.1952V68.3303C196.33 69.2325 196.689 70.0977 197.328 70.7357C197.968 71.3737 198.835 71.7321 199.74 71.7321H203.081V80.8735H197.992C194.739 80.8735 191.619 79.5846 189.319 77.2902C187.019 74.9959 185.727 71.884 185.727 68.6393V24.1021H196.339V38.535H203.09V47.1952H196.33Z" fill="#206BEB"/>
<path d="M40.0613 40.7071C42.3846 40.7071 44.2681 38.8282 44.2681 36.5105C44.2681 34.1928 42.3846 32.314 40.0613 32.314C37.7379 32.314 35.8544 34.1928 35.8544 36.5105C35.8544 38.8282 37.7379 40.7071 40.0613 40.7071Z" fill="#00C3DD"/>
<path d="M37.7598 29.5592C39.3939 29.5592 40.7185 28.2378 40.7185 26.6077C40.7185 24.9777 39.3939 23.6562 37.7598 23.6562C36.1257 23.6562 34.8011 24.9777 34.8011 26.6077C34.8011 28.2378 36.1257 29.5592 37.7598 29.5592Z" fill="#00C3DD"/>
<path d="M28.5561 31.7885C29.6817 31.7885 30.5942 30.8782 30.5942 29.7553C30.5942 28.6324 29.6817 27.7222 28.5561 27.7222C27.4304 27.7222 26.5179 28.6324 26.5179 29.7553C26.5179 30.8782 27.4304 31.7885 28.5561 31.7885Z" fill="#00C3DD"/>
<path d="M40.7008 92.0921C40.7101 92.4548 40.6343 92.8146 40.4795 93.1429C40.3216 93.4485 40.0942 93.7131 39.8156 93.9155C39.5045 94.1373 39.1548 94.2997 38.7844 94.3946C38.3457 94.5075 37.8941 94.5624 37.4411 94.5579H35.2746V86.3149H37.6403C39.4815 86.3149 40.4028 86.9838 40.4043 88.3216C40.4159 88.7278 40.304 89.128 40.0834 89.4695C39.829 89.8192 39.4617 90.071 39.0433 90.1826C39.2652 90.2256 39.4798 90.2999 39.6806 90.4033C39.8773 90.5025 40.0555 90.6347 40.2073 90.7941C40.3624 90.9588 40.4848 91.1513 40.568 91.3614C40.6585 91.5943 40.7036 91.8423 40.7008 92.0921ZM39.2336 88.4695C39.2351 88.3082 39.2097 88.1478 39.1584 87.9949C39.1069 87.8443 39.0151 87.7107 38.8928 87.6086C38.7412 87.4893 38.5663 87.4029 38.3794 87.3547C38.1138 87.2848 37.8396 87.2528 37.565 87.2598H36.401V89.847H37.5274C37.7624 89.8493 37.9968 89.8211 38.2245 89.7631C38.4193 89.7174 38.6025 89.6317 38.7623 89.5115C38.911 89.3997 39.0303 89.2535 39.1097 89.0854C39.1985 88.8925 39.2409 88.6816 39.2336 88.4695ZM39.5058 92.1296C39.5089 91.9325 39.4633 91.7377 39.373 91.5623C39.2818 91.3908 39.1495 91.2444 38.988 91.1362C38.7994 91.0114 38.5905 90.9203 38.3706 90.8669C38.1027 90.8013 37.8276 90.7694 37.5518 90.772H36.401V93.6109H37.5894C38.2356 93.6109 38.7165 93.4917 39.0322 93.2533C39.1956 93.1175 39.3239 92.9445 39.4063 92.749C39.4887 92.5535 39.5228 92.3411 39.5058 92.1296Z" fill="#666666"/>
<path d="M48.9375 94.5581H47.9505L47.9129 93.536C47.7469 93.7317 47.5656 93.914 47.3707 94.0812C47.2147 94.2168 47.044 94.3345 46.8617 94.4322C46.7016 94.5175 46.5303 94.5799 46.3527 94.6177C46.175 94.6537 45.9941 94.6714 45.8128 94.6707C45.1489 94.6707 44.6665 94.4808 44.3323 94.0967C43.9981 93.7126 43.8344 93.1364 43.8344 92.3638V88.2246H44.9409V92.2755C44.9409 93.2468 45.306 93.7324 46.0473 93.7324C46.1816 93.7324 46.3152 93.7123 46.4435 93.6728C46.588 93.6246 46.7239 93.5538 46.8462 93.4631C47.0106 93.3447 47.1632 93.2109 47.3021 93.0636C47.4952 92.8605 47.6777 92.6475 47.8487 92.4256V88.2312H48.9552L48.9375 94.5581Z" fill="#666666"/>
<path d="M57.4065 92.8295C57.4105 93.0347 57.3713 93.2385 57.2914 93.4277C57.2185 93.6024 57.1134 93.7619 56.9816 93.8979C56.8488 94.0369 56.6958 94.1552 56.5279 94.2489C56.3516 94.3465 56.1664 94.4271 55.9747 94.4896C55.7772 94.5515 55.5752 94.598 55.3705 94.6286C55.1689 94.6566 54.9656 94.6706 54.762 94.6706C54.3666 94.6726 53.9715 94.6541 53.578 94.6154C53.221 94.5782 52.8668 94.517 52.518 94.4322V93.4233C52.8813 93.5265 53.2509 93.6061 53.6245 93.6617C53.9864 93.7161 54.3518 93.7434 54.7177 93.7434C55.1202 93.767 55.5223 93.6911 55.8884 93.5227C56.0038 93.4679 56.1008 93.381 56.168 93.2726C56.2351 93.1641 56.2694 93.0386 56.2668 92.9112C56.2684 92.8059 56.248 92.7014 56.207 92.6043C56.1551 92.5017 56.0792 92.4132 55.9857 92.346C55.8337 92.2405 55.6686 92.1552 55.4945 92.0922C55.2732 92.0039 54.9722 91.9023 54.5872 91.7875C54.3169 91.7098 54.0522 91.6139 53.7949 91.5005C53.5675 91.404 53.3551 91.2753 53.1642 91.1186C52.9906 90.9776 52.8488 90.8016 52.7482 90.6021C52.6417 90.3844 52.5893 90.1444 52.5955 89.9023C52.6005 89.7028 52.6425 89.5059 52.7194 89.3217C52.8119 89.096 52.9559 88.895 53.1399 88.7345C53.3753 88.5351 53.6485 88.3849 53.9432 88.293C54.3514 88.1631 54.7785 88.1027 55.2068 88.1142C55.4568 88.1142 55.7313 88.1274 56.0366 88.1539C56.3546 88.1844 56.6708 88.2315 56.9838 88.2952V89.2731C56.66 89.1933 56.3319 89.1314 56.0012 89.0877C55.7342 89.0511 55.4652 89.0312 55.1957 89.0281C54.9633 89.0237 54.731 89.0444 54.5031 89.0899C54.3423 89.1218 54.1881 89.1808 54.0472 89.2643C53.942 89.3263 53.8556 89.4156 53.7971 89.5226C53.7466 89.6217 53.7208 89.7315 53.7219 89.8427C53.7206 89.9494 53.7432 90.055 53.7883 90.1517C53.8472 90.2594 53.9315 90.351 54.0339 90.4188C54.1909 90.5238 54.3595 90.6104 54.5363 90.6771C54.7576 90.7632 55.032 90.8581 55.3772 90.9575C55.7017 91.0489 56.019 91.164 56.3265 91.3019C56.5549 91.4026 56.7662 91.5381 56.9528 91.7036C57.1047 91.8405 57.2229 92.0104 57.298 92.2003C57.3712 92.402 57.4079 92.615 57.4065 92.8295Z" fill="#666666"/>
<path d="M63.0872 89.1319H61.2084V88.2246H64.2003V93.6441H66.0902V94.558H61.0003V93.6441H63.0872V89.1319ZM63.4722 85.5689C63.5898 85.568 63.7064 85.5905 63.8152 85.6351C63.9182 85.678 64.0115 85.7411 64.0896 85.8205C64.1675 85.9004 64.2298 85.9939 64.2733 86.0965C64.3184 86.2026 64.341 86.3168 64.3397 86.432C64.3403 86.5472 64.3178 86.6613 64.2733 86.7676C64.2292 86.8705 64.167 86.9647 64.0896 87.0457C64.0115 87.1252 63.9182 87.1882 63.8152 87.2312C63.7064 87.2758 63.5898 87.2983 63.4722 87.2974C63.3553 87.2985 63.2394 87.2759 63.1314 87.2312C63.0282 87.1888 62.9348 87.1257 62.857 87.0457C62.7789 86.9653 62.7166 86.8709 62.6733 86.7676C62.6289 86.6613 62.6063 86.5472 62.6069 86.432C62.6056 86.3168 62.6282 86.2026 62.6733 86.0965C62.7161 85.9935 62.7785 85.8998 62.857 85.8205C62.9348 85.7406 63.0282 85.6775 63.1314 85.6351C63.2394 85.5904 63.3553 85.5678 63.4722 85.5689Z" fill="#666666"/>
<path d="M69.4693 88.2244H70.4497L70.4939 89.2465C70.6574 89.0499 70.8373 88.8675 71.0317 88.7012C71.1885 88.5667 71.3591 88.449 71.5407 88.3502C71.7005 88.2643 71.8719 88.2018 72.0496 88.1648C72.2266 88.1291 72.4068 88.1113 72.5874 88.1118C73.2402 88.1118 73.7359 88.3039 74.0701 88.688C74.4042 89.0721 74.5724 89.6527 74.5724 90.4253V94.5579H73.4659V90.5092C73.4968 90.1208 73.3989 89.7329 73.1871 89.4054C73.0878 89.2842 72.9609 89.1885 72.8169 89.1263C72.6729 89.0641 72.516 89.0372 72.3595 89.0478C72.2252 89.0476 72.0916 89.0677 71.9633 89.1074C71.8195 89.1557 71.6843 89.2265 71.5628 89.3171C71.3996 89.4361 71.2477 89.5699 71.1091 89.7167C70.9476 89.8845 70.7661 90.0964 70.5625 90.3481V94.5424H69.4561L69.4693 88.2244Z" fill="#666666"/>
<path d="M83.3778 91.0569C83.3778 91.2129 83.3778 91.3431 83.3778 91.4476C83.3778 91.5536 83.3667 91.6529 83.3601 91.7456H78.8943C78.8764 92.0181 78.9156 92.2913 79.0093 92.5478C79.103 92.8044 79.2493 93.0386 79.4387 93.2357C79.7994 93.5845 80.3239 93.7567 81.0055 93.7567C81.1914 93.7567 81.3773 93.7567 81.5632 93.7346C81.7491 93.7125 81.9283 93.6993 82.1009 93.675C82.2735 93.6507 82.4395 93.622 82.5966 93.5889C82.7538 93.5558 82.902 93.5227 83.0392 93.4852V94.388C82.7055 94.4786 82.3662 94.5472 82.0235 94.5933C81.6348 94.6463 81.2429 94.6721 80.8506 94.6706C80.3734 94.6819 79.8981 94.6071 79.4476 94.4499C79.0777 94.3196 78.7462 94.0996 78.4827 93.8097C78.221 93.5143 78.0303 93.1632 77.9251 92.7832C77.7998 92.3341 77.7394 91.8695 77.7458 91.4034C77.7432 90.9743 77.8082 90.5475 77.9383 90.1385C78.0582 89.7576 78.2489 89.4026 78.5004 89.0921C78.7571 88.7779 79.0823 88.5262 79.4512 88.3564C79.8201 88.1865 80.2231 88.1029 80.6293 88.112C81.0308 88.1042 81.43 88.1747 81.8044 88.3195C82.1329 88.4486 82.4279 88.6501 82.6674 88.9089C82.9133 89.179 83.0975 89.4991 83.2074 89.8471C83.3274 90.239 83.3849 90.6472 83.3778 91.0569ZM82.2337 90.9001C82.2475 90.6391 82.2199 90.3776 82.1518 90.1253C82.0901 89.9055 81.9831 89.701 81.8376 89.5248C81.6945 89.3539 81.5134 89.2186 81.3087 89.1297C81.0774 89.0312 80.8276 88.983 80.5762 88.9884C80.3539 88.9847 80.1336 89.0303 79.9311 89.1219C79.7286 89.2135 79.5491 89.3489 79.4055 89.5182C79.2549 89.6978 79.1373 89.9026 79.0581 90.1231C78.9663 90.3729 78.9111 90.6346 78.8943 90.9001H82.2337Z" fill="#666666"/>
<path d="M91.5879 92.8295C91.5915 93.0345 91.5531 93.2381 91.475 93.4277C91.4015 93.6021 91.2965 93.7614 91.1652 93.8979C91.0311 94.0364 90.8776 94.1546 90.7094 94.2489C90.5332 94.3469 90.3479 94.4275 90.1561 94.4896C89.9587 94.5515 89.7567 94.598 89.552 94.6286C89.3511 94.6565 89.1485 94.6705 88.9456 94.6706C88.5495 94.6726 88.1536 94.6542 87.7595 94.6154C87.4024 94.5782 87.0483 94.517 86.6995 94.4322V93.4233C87.0628 93.5265 87.4323 93.6061 87.8059 93.6617C88.1678 93.7161 88.5332 93.7434 88.8991 93.7434C89.3016 93.7672 89.7038 93.6914 90.0698 93.5227C90.1856 93.4682 90.2831 93.3815 90.3507 93.273C90.4182 93.1645 90.4528 93.0389 90.4504 92.9112C90.4524 92.8056 90.4312 92.7009 90.3885 92.6043C90.3373 92.5012 90.2613 92.4125 90.1672 92.346C90.0151 92.2405 89.85 92.1552 89.6759 92.0922C89.4546 92.0039 89.1536 91.9023 88.7686 91.7875C88.4983 91.7098 88.2336 91.6139 87.9763 91.5005C87.7489 91.404 87.5365 91.2753 87.3457 91.1186C87.1726 90.977 87.031 90.8011 86.9296 90.6021C86.8231 90.3844 86.7707 90.1444 86.7769 89.9023C86.7819 89.7028 86.824 89.5059 86.9008 89.3217C86.9934 89.096 87.1373 88.895 87.3213 88.7345C87.5567 88.5351 87.8299 88.3849 88.1246 88.293C88.5328 88.1631 88.9599 88.1027 89.3882 88.1142C89.6375 88.1142 89.9142 88.1274 90.2181 88.1539C90.5391 88.1863 90.8583 88.2356 91.1741 88.3018V89.2798C90.8502 89.1999 90.5222 89.138 90.1915 89.0943C89.9245 89.0576 89.6555 89.0377 89.386 89.0347C89.1536 89.0303 88.9213 89.0511 88.6933 89.0965C88.5326 89.1284 88.3784 89.1874 88.2375 89.2709C88.136 89.3291 88.0521 89.4135 87.9949 89.5154C87.9376 89.6172 87.909 89.7326 87.9122 89.8493C87.9108 89.956 87.9335 90.0616 87.9786 90.1584C88.0375 90.266 88.1218 90.3577 88.2242 90.4255C88.3817 90.5309 88.5511 90.6176 88.7288 90.6838C89.0042 90.7913 89.2848 90.8848 89.5697 90.9641C89.8933 91.0559 90.2099 91.171 90.5168 91.3085C90.7452 91.4092 90.9565 91.5448 91.1431 91.7103C91.295 91.8471 91.4132 92.0171 91.4883 92.207C91.5577 92.4071 91.5914 92.6178 91.5879 92.8295Z" fill="#666666"/>
<path d="M100.134 92.8295C100.14 93.2277 99.9872 93.6119 99.7095 93.8979C99.5758 94.0369 99.4222 94.1552 99.2536 94.2489C99.0767 94.3452 98.8906 94.4235 98.6981 94.4829C98.5008 94.5453 98.2988 94.5918 98.094 94.622C97.8931 94.65 97.6905 94.664 97.4877 94.664C97.0916 94.6659 96.6957 94.6475 96.3015 94.6088C95.9452 94.5716 95.5918 94.5103 95.2437 94.4255V93.4233C95.6069 93.5267 95.9766 93.6064 96.3502 93.6617C96.712 93.7162 97.0775 93.7435 97.4434 93.7434C97.8459 93.7668 98.2479 93.6909 98.6141 93.5226C98.7294 93.4679 98.8265 93.381 98.8936 93.2726C98.9608 93.1641 98.9951 93.0386 98.9925 92.9112C98.994 92.8059 98.9737 92.7014 98.9327 92.6043C98.8813 92.5014 98.8053 92.4127 98.7114 92.346C98.5605 92.24 98.396 92.1546 98.2224 92.0922C98.0011 92.0039 97.6979 91.9023 97.315 91.7875C97.0441 91.7098 96.7786 91.6139 96.5206 91.5005C96.2941 91.4034 96.0825 91.2748 95.8921 91.1186C95.7184 90.9771 95.576 90.8012 95.4739 90.6021C95.3695 90.3838 95.3179 90.1441 95.3234 89.9023C95.3275 89.6805 95.3781 89.4621 95.4719 89.261C95.5656 89.0599 95.7005 88.8806 95.8678 88.7345C96.1026 88.5355 96.375 88.3854 96.6689 88.293C97.0778 88.1632 97.5057 88.1027 97.9347 88.1142C98.1825 88.1142 98.4591 88.1274 98.7623 88.1539C99.081 88.1845 99.3979 88.2317 99.7117 88.2952V89.2731C99.3878 89.1932 99.0598 89.1313 98.7291 89.0877C98.4614 89.051 98.1916 89.0311 97.9214 89.0281C97.689 89.0238 97.4567 89.0445 97.2287 89.0899C97.0686 89.1217 96.9152 89.1807 96.7751 89.2643C96.6699 89.3263 96.5835 89.4155 96.525 89.5226C96.4738 89.6215 96.4472 89.7313 96.4476 89.8427C96.4462 89.9493 96.4689 90.055 96.514 90.1517C96.5738 90.2594 96.6588 90.351 96.7618 90.4188C96.9186 90.5242 97.0872 90.6109 97.2641 90.6771C97.4854 90.7632 97.7599 90.8581 98.1051 90.9575C98.4296 91.0489 98.7469 91.164 99.0544 91.3019C99.2825 91.4031 99.4937 91.5386 99.6807 91.7036C99.833 91.8396 99.9506 92.0099 100.024 92.2003C100.099 92.4016 100.136 92.6148 100.134 92.8295Z" fill="#666666"/>
<path d="M117.477 94.2488C116.818 94.5219 116.111 94.6615 115.397 94.6594C114.229 94.6594 113.332 94.3113 112.706 93.6152C112.081 92.9191 111.768 91.8889 111.768 90.5247C111.76 89.9173 111.847 89.3125 112.027 88.7321C112.18 88.2347 112.431 87.773 112.766 87.3745C113.084 87.0034 113.482 86.709 113.93 86.5135C114.412 86.305 114.934 86.2011 115.459 86.2089C115.818 86.2064 116.176 86.2397 116.528 86.3082C116.855 86.3713 117.173 86.4713 117.477 86.6063V87.71C117.184 87.5484 116.872 87.4224 116.548 87.3348C116.205 87.2463 115.853 87.2033 115.499 87.2067C115.136 87.2031 114.776 87.2784 114.446 87.4275C114.132 87.5718 113.858 87.7881 113.644 88.0588C113.413 88.3595 113.241 88.7021 113.14 89.0677C113.015 89.51 112.956 89.9681 112.963 90.4275C112.963 91.496 113.18 92.3017 113.614 92.8448C114.047 93.3878 114.684 93.6586 115.523 93.6572C115.866 93.6588 116.208 93.618 116.541 93.5358C116.865 93.4548 117.179 93.3393 117.477 93.1914V94.2488Z" fill="#666666"/>
<path d="M126.269 91.3418C126.275 91.8012 126.205 92.2584 126.061 92.6951C125.934 93.0827 125.729 93.4408 125.46 93.7481C125.195 94.0417 124.87 94.2738 124.506 94.428C124.102 94.5961 123.667 94.6788 123.229 94.6708C122.811 94.6748 122.395 94.5999 122.005 94.4501C121.655 94.3159 121.341 94.1028 121.087 93.8275C120.825 93.5338 120.628 93.1875 120.511 92.8121C120.372 92.3611 120.304 91.891 120.312 91.4191C120.307 90.9619 120.378 90.507 120.52 90.0725C120.649 89.6864 120.853 89.3298 121.122 89.0239C121.386 88.7303 121.712 88.4981 122.076 88.344C122.481 88.1756 122.916 88.0929 123.355 88.1011C123.772 88.094 124.188 88.1651 124.579 88.3109C124.928 88.4441 125.241 88.6555 125.495 88.929C125.757 89.2216 125.954 89.5672 126.07 89.9422C126.211 90.3952 126.278 90.8677 126.269 91.3418ZM125.143 91.3904C125.149 91.0446 125.106 90.6997 125.015 90.3661C124.942 90.1004 124.816 89.852 124.645 89.6354C124.489 89.4424 124.288 89.2907 124.059 89.1939C123.816 89.0915 123.554 89.0404 123.291 89.0438C122.998 89.0358 122.708 89.1026 122.448 89.238C122.217 89.3611 122.02 89.5375 121.872 89.7524C121.716 89.9782 121.605 90.2314 121.543 90.4985C121.396 91.1314 121.404 91.7901 121.567 92.4191C121.638 92.6879 121.763 92.9395 121.934 93.1586C122.09 93.3505 122.289 93.502 122.516 93.6001C122.761 93.7024 123.024 93.7528 123.289 93.7481C123.582 93.7564 123.873 93.6903 124.134 93.556C124.363 93.4317 124.56 93.2555 124.709 93.0416C124.864 92.8152 124.975 92.5622 125.037 92.2955C125.109 92 125.145 91.6968 125.143 91.3926V91.3904Z" fill="#666666"/>
<path d="M129.288 88.2244H130.268L130.313 89.2465C130.476 89.0499 130.656 88.8675 130.85 88.7012C131.007 88.5667 131.178 88.449 131.359 88.3502C131.519 88.2643 131.691 88.2018 131.868 88.1648C132.045 88.1291 132.225 88.1113 132.406 88.1118C133.059 88.1118 133.555 88.3039 133.889 88.688C134.223 89.0721 134.391 89.6527 134.391 90.4253V94.5579H133.285V90.5092C133.315 90.1208 133.217 89.7329 133.006 89.4054C132.906 89.2842 132.779 89.1885 132.635 89.1263C132.491 89.0641 132.335 89.0372 132.178 89.0478C132.044 89.0476 131.91 89.0677 131.782 89.1074C131.638 89.1557 131.503 89.2265 131.381 89.3171C131.218 89.4361 131.066 89.5699 130.928 89.7167C130.766 89.8845 130.585 90.0964 130.381 90.3481V94.5424H129.275L129.288 88.2244Z" fill="#666666"/>
<path d="M142.86 92.8297C142.864 93.0268 142.829 93.2228 142.756 93.4062C142.683 93.5896 142.575 93.7568 142.437 93.8981C142.304 94.0371 142.15 94.1554 141.981 94.2491C141.806 94.3475 141.62 94.4281 141.428 94.4898C141.231 94.5517 141.029 94.5982 140.824 94.6288C140.623 94.6568 140.421 94.6708 140.218 94.6708C139.822 94.6728 139.426 94.6543 139.032 94.6156C138.675 94.5782 138.32 94.517 137.972 94.4324V93.4235C138.335 93.5265 138.705 93.6061 139.078 93.6619C139.441 93.7164 139.807 93.7437 140.173 93.7436C140.575 93.7675 140.977 93.6917 141.342 93.5229C141.458 93.4684 141.555 93.3817 141.623 93.2732C141.69 93.1647 141.725 93.0391 141.723 92.9114C141.724 92.8061 141.704 92.7016 141.663 92.6045C141.611 92.5016 141.535 92.413 141.442 92.3462C141.294 92.2435 141.134 92.1604 140.966 92.099C140.744 92.0107 140.441 91.9091 140.058 91.7944C139.787 91.7166 139.522 91.6207 139.264 91.5074C139.037 91.4108 138.826 91.2822 138.635 91.1255C138.462 90.9839 138.319 90.808 138.217 90.6089C138.111 90.3911 138.06 90.151 138.067 89.9091C138.071 89.7097 138.112 89.5129 138.188 89.3285C138.282 89.1033 138.426 88.9024 138.609 88.7413C138.845 88.5428 139.118 88.3928 139.412 88.2998C139.821 88.17 140.249 88.1096 140.678 88.121C140.926 88.121 141.203 88.1342 141.506 88.1607C141.824 88.1914 142.141 88.2385 142.455 88.302V89.28C142.13 89.2003 141.802 89.1384 141.47 89.0945C141.203 89.0578 140.934 89.0379 140.665 89.0349C140.432 89.0306 140.2 89.0514 139.972 89.0967C139.811 89.129 139.657 89.1879 139.516 89.2711C139.412 89.3338 139.325 89.4229 139.266 89.5294C139.22 89.6278 139.196 89.7352 139.196 89.844C139.196 89.9528 139.22 90.0602 139.266 90.1586C139.325 90.2667 139.411 90.3585 139.514 90.4257C139.671 90.5311 139.839 90.6177 140.016 90.684C140.238 90.7701 140.512 90.865 140.857 90.9643C141.181 91.0561 141.497 91.1712 141.804 91.3087C142.033 91.4089 142.244 91.5445 142.431 91.7105C142.584 91.8458 142.703 92.0162 142.776 92.2072C142.841 92.408 142.87 92.6188 142.86 92.8297Z" fill="#666666"/>
<path d="M151.482 94.5581H150.495L150.457 93.536C150.291 93.7311 150.111 93.9134 149.917 94.0812C149.761 94.2168 149.59 94.3345 149.408 94.4322C149.248 94.5175 149.077 94.5799 148.899 94.6177C148.721 94.6538 148.539 94.6716 148.357 94.6706C147.704 94.6706 147.211 94.4808 146.879 94.0967C146.547 93.7126 146.379 93.1364 146.379 92.3638V88.2246H147.485V92.2755C147.485 93.2468 147.854 93.7324 148.592 93.7324C148.726 93.7327 148.859 93.7126 148.988 93.6728C149.133 93.6242 149.269 93.5535 149.393 93.4631C149.557 93.3441 149.709 93.2104 149.849 93.0636C150.01 92.8958 150.192 92.6816 150.395 92.4256V88.2312H151.502L151.482 94.5581Z" fill="#666666"/>
<path d="M157.087 86.5469H155.208V85.6528H158.2V93.6442H160.09V94.5581H155V93.6442H157.087V86.5469Z" fill="#666666"/>
<path d="M168.586 94.4697C168.332 94.5337 168.074 94.5794 167.813 94.6066C167.548 94.633 167.278 94.6463 167.006 94.6463C166.207 94.6463 165.614 94.4675 165.222 94.1076C164.83 93.7478 164.633 93.1959 164.633 92.452V89.1407H162.863V88.2201H164.633V86.4784L165.74 86.1958V88.2201H168.592V89.1407H165.733V92.3637C165.719 92.5492 165.743 92.7358 165.806 92.9111C165.868 93.0865 165.967 93.2467 166.096 93.3814C166.398 93.6266 166.782 93.7474 167.169 93.7191C167.391 93.7177 167.613 93.7022 167.833 93.6728C168.087 93.6376 168.338 93.5875 168.586 93.5227V94.4697Z" fill="#666666"/>
<path d="M176.094 94.5581L176.068 93.706C175.767 94.0165 175.411 94.2674 175.017 94.4455C174.66 94.5936 174.278 94.6686 173.892 94.6663C173.577 94.6732 173.263 94.6269 172.963 94.5294C172.726 94.4488 172.51 94.3185 172.328 94.1475C172.164 93.9869 172.038 93.7915 171.96 93.5758C171.881 93.3465 171.841 93.1053 171.843 92.8627C171.831 92.5749 171.889 92.2884 172.014 92.0283C172.138 91.7682 172.324 91.5423 172.556 91.3704C173.029 91.0113 173.73 90.8318 174.658 90.8318H175.986V90.2887C175.993 90.1217 175.965 89.955 175.902 89.7997C175.84 89.6445 175.746 89.5041 175.625 89.388C175.313 89.1385 174.917 89.0177 174.519 89.0503C174.163 89.0508 173.808 89.0915 173.461 89.1717C173.093 89.2572 172.732 89.3709 172.381 89.5117V88.5227C172.52 88.4741 172.675 88.4233 172.848 88.3748C173.021 88.3262 173.198 88.2843 173.388 88.2467C173.578 88.2092 173.775 88.1783 173.981 88.154C174.189 88.1319 174.398 88.1209 174.607 88.1209C174.957 88.1166 175.306 88.1589 175.645 88.2467C175.93 88.3189 176.196 88.4498 176.426 88.6308C176.64 88.8042 176.808 89.027 176.915 89.2799C177.036 89.5722 177.095 89.8864 177.088 90.2026V94.5669L176.094 94.5581ZM175.975 91.6751H174.576C174.338 91.6714 174.1 91.6989 173.868 91.7567C173.691 91.8006 173.526 91.8803 173.381 91.9907C173.259 92.086 173.162 92.2105 173.1 92.3528C173.036 92.5036 173.005 92.6659 173.007 92.8296C173.007 92.9489 173.027 93.0675 173.065 93.1806C173.103 93.2917 173.166 93.3928 173.248 93.4764C173.341 93.5681 173.453 93.6382 173.576 93.6817C173.735 93.7358 173.902 93.7612 174.069 93.7568C174.372 93.7468 174.669 93.6715 174.939 93.536C175.319 93.3455 175.668 93.1 175.975 92.8075V91.6751Z" fill="#666666"/>
<path d="M180.56 88.2244H181.54L181.585 89.2465C181.748 89.0499 181.928 88.8675 182.122 88.7012C182.279 88.5667 182.45 88.449 182.631 88.3502C182.791 88.2643 182.963 88.2018 183.14 88.1648C183.317 88.1291 183.498 88.1113 183.678 88.1118C184.342 88.1118 184.827 88.3039 185.161 88.688C185.495 89.0721 185.663 89.6527 185.663 90.4253V94.5579H184.557V90.5092C184.588 90.1208 184.49 89.7329 184.278 89.4054C184.179 89.2842 184.052 89.1885 183.908 89.1263C183.764 89.0641 183.607 89.0372 183.45 89.0478C183.316 89.0476 183.182 89.0677 183.054 89.1074C182.91 89.1557 182.775 89.2265 182.654 89.3171C182.494 89.4361 182.346 89.5699 182.211 89.7167C182.047 89.8845 181.866 90.0964 181.662 90.3481V94.5424H180.556L180.56 88.2244Z" fill="#666666"/>
<path d="M194.039 94.3242C193.753 94.4344 193.456 94.5158 193.154 94.567C192.846 94.6206 192.533 94.6472 192.22 94.6465C191.218 94.6465 190.446 94.3749 189.903 93.8319C189.36 93.2888 189.09 92.4963 189.091 91.4543C189.084 90.9898 189.164 90.528 189.326 90.0923C189.472 89.7007 189.698 89.3436 189.989 89.0437C190.277 88.7555 190.621 88.53 191.001 88.3814C191.414 88.2205 191.854 88.1403 192.298 88.1452C192.607 88.1433 192.915 88.1662 193.22 88.2137C193.502 88.257 193.778 88.3311 194.044 88.4344V89.483C193.779 89.3432 193.497 89.2379 193.205 89.1695C192.914 89.1044 192.618 89.0718 192.32 89.0724C192.045 89.0706 191.773 89.1255 191.521 89.2336C191.269 89.339 191.043 89.4971 190.857 89.6971C190.663 89.9121 190.513 90.1625 190.414 90.4345C190.301 90.7503 190.246 91.0837 190.251 91.419C190.251 92.185 190.437 92.7568 190.81 93.1387C191.016 93.3343 191.259 93.4857 191.526 93.5837C191.792 93.6817 192.076 93.7241 192.36 93.7082C192.652 93.7091 192.943 93.6757 193.227 93.6089C193.51 93.54 193.783 93.4378 194.041 93.3043L194.039 94.3242Z" fill="#666666"/>
<path d="M203.298 88.2246L201.136 93.8892C200.942 94.4019 200.71 94.8999 200.444 95.3793C200.234 95.7567 199.971 96.1018 199.662 96.4036C199.395 96.6604 199.079 96.8609 198.733 96.993C198.37 97.1235 197.986 97.1878 197.6 97.1828C197.491 97.1828 197.392 97.1828 197.303 97.1828L197.013 97.163V96.1607C197.104 96.174 197.206 96.185 197.317 96.1961C197.427 96.2071 197.538 96.2115 197.664 96.2115C197.856 96.2123 198.048 96.1825 198.231 96.1232C198.413 96.06 198.581 95.9626 198.726 95.8362C198.896 95.6851 199.045 95.5121 199.169 95.3219C199.33 95.0798 199.47 94.8242 199.587 94.5581L197.051 88.2246H198.301L199.908 92.4189L200.231 93.4035L200.598 92.3947L202.083 88.2312L203.298 88.2246Z" fill="#666666"/>
<defs>
<linearGradient id="paint0_linear_349_7477" x1="70.2018" y1="76.8272" x2="44.5746" y2="39.6331" gradientUnits="userSpaceOnUse">
<stop stop-color="#2269E9"/>
<stop offset="0.15" stop-color="#1E74E8"/>
<stop offset="0.43" stop-color="#1292E7"/>
<stop offset="0.74" stop-color="#02BCE4"/>
</linearGradient>
</defs>
</svg>
