<svg width="57" height="19" viewBox="0 0 57 19" fill="none" xmlns="http://www.w3.org/2000/svg">
    <path d="M7.272 18.312C5.656 18.312 4.28 17.944 3.144 17.208C2.024 16.472 1.24 15.464 0.792 14.184L3.168 12.792C3.84 14.68 5.232 15.624 7.344 15.624C8.384 15.624 9.16 15.424 9.672 15.024C10.2 14.608 10.464 14.072 10.464 13.416C10.464 12.728 10.184 12.208 9.624 11.856C9.064 11.488 8.072 11.088 6.648 10.656C5.848 10.416 5.2 10.192 4.704 9.984C4.208 9.776 3.68 9.488 3.12 9.12C2.576 8.736 2.168 8.264 1.896 7.704C1.624 7.144 1.488 6.488 1.488 5.736C1.488 4.248 2.016 3.072 3.072 2.208C4.128 1.328 5.4 0.887999 6.888 0.887999C8.232 0.887999 9.408 1.216 10.416 1.872C11.424 2.528 12.2 3.432 12.744 4.584L10.416 5.928C9.712 4.36 8.536 3.576 6.888 3.576C6.088 3.576 5.448 3.768 4.968 4.152C4.488 4.52 4.248 5.024 4.248 5.664C4.248 6.288 4.488 6.784 4.968 7.152C5.464 7.504 6.352 7.88 7.632 8.28C8.272 8.488 8.736 8.648 9.024 8.76C9.328 8.856 9.744 9.016 10.272 9.24C10.816 9.464 11.224 9.688 11.496 9.912C11.768 10.136 12.056 10.416 12.36 10.752C12.68 11.088 12.904 11.472 13.032 11.904C13.16 12.336 13.224 12.824 13.224 13.368C13.224 14.888 12.672 16.096 11.568 16.992C10.48 17.872 9.048 18.312 7.272 18.312ZM24.3853 15.36H31.8253V18H21.6253V1.2H31.7053V3.84H24.3853V8.208H31.1053V10.824H24.3853V15.36ZM54.3919 15.792C52.7119 17.472 50.6559 18.312 48.2239 18.312C45.7919 18.312 43.7279 17.472 42.0319 15.792C40.3519 14.096 39.5119 12.032 39.5119 9.6C39.5119 7.168 40.3519 5.112 42.0319 3.432C43.7279 1.736 45.7919 0.887999 48.2239 0.887999C50.6559 0.887999 52.7119 1.736 54.3919 3.432C56.0879 5.112 56.9359 7.168 56.9359 9.6C56.9359 12.032 56.0879 14.096 54.3919 15.792ZM43.9759 13.92C45.1279 15.056 46.5439 15.624 48.2239 15.624C49.9039 15.624 51.3119 15.056 52.4479 13.92C53.5999 12.768 54.1759 11.328 54.1759 9.6C54.1759 7.872 53.5999 6.44 52.4479 5.304C51.3119 4.152 49.9039 3.576 48.2239 3.576C46.5439 3.576 45.1279 4.152 43.9759 5.304C42.8399 6.44 42.2719 7.872 42.2719 9.6C42.2719 11.328 42.8399 12.768 43.9759 13.92Z" fill="white"/>
</svg>
