<svg width="59" height="59" viewBox="0 0 59 59" fill="none" xmlns="http://www.w3.org/2000/svg">
    <path d="M30.8029 50.1992H15.2663C7.49792 50.1992 4.91667 45.0367 4.91667 39.8496V19.1504C4.91667 11.3821 7.49792 8.80084 15.2663 8.80084H30.8029C38.5713 8.80084 41.1525 11.3821 41.1525 19.1504V39.8496C41.1525 47.6179 38.5467 50.1992 30.8029 50.1992Z" stroke="white" stroke-width="3" stroke-linecap="round" stroke-linejoin="round"/>
    <path d="M47.9867 42.0375L41.1525 37.2438V21.7317L47.9867 16.9379C51.33 14.6025 54.0833 16.0284 54.0833 20.1338V38.8663C54.0833 42.9717 51.33 44.3975 47.9867 42.0375Z" stroke="white" stroke-width="3" stroke-linecap="round" stroke-linejoin="round"/>
    <path d="M28.2708 27.0417C30.3074 27.0417 31.9583 25.3907 31.9583 23.3542C31.9583 21.3176 30.3074 19.6667 28.2708 19.6667C26.2343 19.6667 24.5833 21.3176 24.5833 23.3542C24.5833 25.3907 26.2343 27.0417 28.2708 27.0417Z" stroke="white" stroke-width="3" stroke-linecap="round" stroke-linejoin="round"/>
</svg>
