<svg width="59" height="59" viewBox="0 0 59 59" fill="none" xmlns="http://www.w3.org/2000/svg">
    <path d="M8.60416 50.3958C10.6446 52.4363 13.9387 52.4363 15.9792 50.3958L47.9375 18.4375C49.9779 16.3971 49.9779 13.1029 47.9375 11.0625C45.8971 9.02209 42.6029 9.02209 40.5625 11.0625L8.60416 43.0208C6.56375 45.0613 6.56375 48.3554 8.60416 50.3958Z" stroke="white" stroke-width="3" stroke-linecap="round" stroke-linejoin="round"/>
    <path d="M44.2746 22.1004L36.8996 14.7254" stroke="white" stroke-width="3" stroke-linecap="round" stroke-linejoin="round"/>
    <path d="M20.8958 5.99832L24.5833 4.91666L23.5017 8.60416L24.5833 12.2917L20.8958 11.21L17.2083 12.2917L18.29 8.60416L17.2083 4.91666L20.8958 5.99832Z" stroke="white" stroke-width="1.5" stroke-linecap="round" stroke-linejoin="round"/>
    <path d="M11.0625 20.7483L14.75 19.6667L13.6683 23.3542L14.75 27.0417L11.0625 25.96L7.375 27.0417L8.45667 23.3542L7.375 19.6667L11.0625 20.7483Z" stroke="white" stroke-width="1.5" stroke-linecap="round" stroke-linejoin="round"/>
    <path d="M47.9375 33.04L51.625 31.9583L50.5433 35.6458L51.625 39.3333L47.9375 38.2517L44.25 39.3333L45.3317 35.6458L44.25 31.9583L47.9375 33.04Z" stroke="white" stroke-width="1.5" stroke-linecap="round" stroke-linejoin="round"/>
</svg>
